<svg width="95" height="40" viewBox="0 0 95 40" fill="none" xmlns="http://www.w3.org/2000/svg">
<path d="M51.2668 6.81387C51.4669 6.66272 51.6743 6.53211 51.895 6.43672C52.1157 6.33986 52.3481 6.27676 52.61 6.25181C52.4276 6.27089 52.2378 6.27823 52.0421 6.27529C51.6802 6.27089 51.3595 6.33986 51.0609 6.47047C50.7622 6.59961 50.4915 6.79039 50.2355 7.00611C50.0384 6.73462 49.8177 6.48221 49.5088 6.29437C49.1999 6.10946 48.7968 5.98179 48.2495 6.03022C47.9553 6.0581 47.6522 6.10946 47.3521 6.19311C47.074 6.26942 46.8342 6.38976 46.6415 6.52917C46.593 6.56292 46.5474 6.60108 46.5047 6.63777C46.465 6.67446 46.4267 6.71114 46.3914 6.74783C46.3208 6.82267 46.259 6.90045 46.206 6.9797C45.9927 7.29815 45.9089 7.63567 45.8721 7.9688C45.5381 7.91157 45.1983 7.89542 44.882 7.92771C44.7246 7.94385 44.5731 7.97173 44.4318 8.00695C44.2906 8.04364 44.1597 8.08913 44.0317 8.14637L43.9831 8.16838L43.9199 8.19479C43.8184 8.23442 43.7154 8.2667 43.608 8.29018H43.6095L43.5565 8.30192C43.2843 8.35622 43.0843 8.45308 42.8577 8.59102C42.6356 8.7275 42.3958 8.89773 42.1383 9.07677C41.9941 8.79794 41.8529 8.53232 41.6352 8.29899C41.4174 8.06712 41.1203 7.85727 40.648 7.72813L40.6583 7.73106C40.5259 7.69584 40.3906 7.66209 40.2508 7.63274C40.1802 7.61806 40.1096 7.60339 40.0375 7.59165L39.8345 7.5579L39.8286 7.55643L39.8183 7.55496L39.8242 7.55643C39.349 7.48452 38.94 7.55203 38.6016 7.70024C38.2618 7.84993 37.9941 8.07886 37.7719 8.33861C37.5145 8.10968 37.2129 7.91597 36.8377 7.82205C36.4655 7.72813 36.0124 7.7384 35.5196 7.93064C35.2548 8.03484 34.9973 8.15224 34.7531 8.27991C34.2985 8.51618 34.0205 8.81702 33.8454 9.12813C33.6703 9.44218 33.5968 9.77237 33.557 10.1055C33.2246 10.0453 32.8877 10.0189 32.5493 10.0732C32.3801 10.0996 32.2109 10.1481 32.0417 10.22C31.9579 10.2552 31.8711 10.3007 31.7902 10.3476C31.7152 10.3902 31.6416 10.4371 31.5695 10.4885C31.4121 10.6 31.2591 10.6998 31.1179 10.7761C30.9884 10.8466 30.8972 10.9126 30.831 10.9816C30.7648 11.0506 30.7221 11.1254 30.6765 11.2105C30.6309 11.2956 30.5794 11.391 30.5029 11.4879C30.4279 11.5847 30.3279 11.6816 30.2087 11.7696C30.1292 11.4805 30.1101 11.2061 30.0071 10.9508C29.8012 10.4416 29.3304 9.98662 29.3157 9.97342C29.2848 9.947 29.2524 9.91912 29.2157 9.89124C29.1598 9.84868 28.9611 9.77677 28.9406 9.7753C28.8876 9.7709 28.8346 9.7753 28.789 9.78704L28.6684 9.81639C28.5889 9.83547 28.508 9.85455 28.4256 9.8795C28.3845 9.89124 28.3447 9.90591 28.3035 9.92205C28.2829 9.92939 28.2623 9.9382 28.2418 9.947L28.1858 9.97342L27.9652 10.0776L27.5224 10.2875C27.3752 10.355 27.2267 10.4166 27.0722 10.468C26.9236 10.5208 26.7588 10.4665 26.6014 10.4298C26.3925 10.3829 26.216 10.4166 26.1145 10.4371C25.9556 10.4694 26.0865 10.5692 25.9541 10.4724C26.0806 10.5766 25.9482 10.4548 26.11 10.4797C26.2733 10.5047 26.3175 10.4885 26.4822 10.5003C26.5573 10.5047 26.7647 10.5854 26.8412 10.5824C26.9398 10.5956 27.0236 10.6191 27.1134 10.6558C27.2193 10.7057 27.3237 10.7644 27.3988 10.8451C27.4768 10.9302 27.5356 11.0286 27.5827 11.1327C27.6283 11.2369 27.6621 11.347 27.6798 11.4571C27.6886 11.5099 27.693 11.5715 27.7033 11.6332C27.7121 11.6933 27.7239 11.7535 27.7401 11.8137C27.771 11.934 27.8166 12.0558 27.8931 12.1673C28.2167 12.6428 28.9067 12.678 28.9244 12.6795C29.2833 12.725 29.6438 12.6692 29.9468 12.5313C30.0277 12.6898 30.141 12.8424 30.297 12.973C30.4514 13.1036 30.6515 13.2107 30.8825 13.2694C31.112 13.3296 31.3709 13.3428 31.6284 13.3047C31.8858 13.2665 32.1433 13.1785 32.386 13.0464C32.6479 12.9026 32.8818 12.7499 33.101 12.5929C33.2025 12.5195 33.2922 12.4447 33.3717 12.3684C33.4482 12.295 33.507 12.226 33.5644 12.1527C33.6762 12.0074 33.7615 11.8592 33.8277 11.7051C33.9587 11.3998 34.0116 11.0785 34.044 10.7497C34.3706 10.8143 34.6942 10.8583 35.012 10.8407C35.3313 10.8231 35.6431 10.7453 35.9639 10.5795C36.1375 10.49 36.3096 10.4122 36.4832 10.3432C36.8039 10.22 37.0319 10.0571 37.2408 9.85015C37.4497 9.64469 37.6351 9.39815 37.8308 9.13987C38.0573 9.36733 38.275 9.58453 38.5207 9.75623C38.7679 9.92792 39.0445 10.0556 39.4093 10.1172L39.3608 10.1114L39.5138 10.1348L39.5844 10.1466L39.6491 10.1583C39.7374 10.1759 39.8256 10.1965 39.9183 10.22L39.9227 10.2214L39.9948 10.2405L39.958 10.2302C40.3008 10.3124 40.6495 10.3197 40.9893 10.2508C41.3292 10.1833 41.6558 10.0409 41.9485 9.85602C42.1251 10.1613 42.3604 10.4533 42.7326 10.6543C43.1004 10.8539 43.6183 10.9537 44.2126 10.8158C44.526 10.7439 44.8408 10.6353 45.1336 10.5003C45.4057 10.3755 45.6191 10.22 45.7794 10.0615C45.9412 9.90298 46.053 9.73861 46.134 9.57719C46.2943 9.25287 46.334 8.93442 46.362 8.60863C46.6856 8.67467 46.9961 8.72897 47.2829 8.74658C47.355 8.75098 47.4256 8.75245 47.4948 8.75245L47.6919 8.74658C47.814 8.74071 47.9302 8.7231 48.0597 8.68935C48.198 8.65119 48.3466 8.62624 48.5069 8.61157C48.8026 8.58515 49.0851 8.4971 49.3573 8.35475C49.6309 8.21387 49.8913 8.01869 50.1414 7.80297C50.3341 8.07446 50.546 8.32834 50.8387 8.52498C51.1315 8.72016 51.5081 8.86398 52.0289 8.86985C52.3099 8.87278 52.5982 8.86251 52.8939 8.83023C52.4688 8.87425 52.1172 8.81262 51.8332 8.69962C51.5478 8.58662 51.3242 8.42079 51.1374 8.23295L50.8814 7.93798C50.7593 7.77949 50.6475 7.61219 50.5386 7.4449C50.6842 7.30989 50.8314 7.17341 50.98 7.04574V7.04867C50.9888 7.03693 51.2668 6.81387 51.2668 6.81387ZM29.7703 11.0726C29.8232 11.2252 29.838 11.394 29.8453 11.5569C29.8527 11.7227 29.8791 11.9472 29.7423 12.0749C29.6099 12.1982 28.8861 12.3288 28.7228 12.32C28.5036 12.3068 28.1917 12.2231 28.0476 12.0514C27.9814 11.9736 27.9313 11.8738 27.8946 11.7696C27.8754 11.7168 27.8592 11.6625 27.846 11.6068L27.8063 11.4336C27.7754 11.3133 27.7298 11.1988 27.6695 11.0917C27.6092 10.9845 27.5341 10.8847 27.4444 10.8026C27.3488 10.7174 27.2355 10.6705 27.1237 10.6294C27.0575 10.6059 26.9898 10.5942 26.9207 10.5854C26.9795 10.578 27.0383 10.5692 27.0957 10.5516C27.2546 10.5091 27.412 10.4548 27.565 10.3946L28.0196 10.2097L28.2476 10.1172L28.3035 10.0952C28.3212 10.0893 28.3374 10.0835 28.3565 10.0776C28.3933 10.0659 28.4301 10.0556 28.4683 10.0468C28.5448 10.0277 28.6228 10.0145 28.7037 9.99983L28.8229 9.97782C28.8567 9.97195 28.8861 9.97195 28.9141 9.97635C29.3613 10.0395 29.557 10.578 29.5776 10.625C29.6452 10.7703 29.7173 10.92 29.7703 11.0726ZM33.4835 11.1709L33.4364 11.5525C33.4158 11.6713 33.3893 11.7887 33.354 11.9047C33.3364 11.9619 33.3158 12.0206 33.2922 12.0778C33.2805 12.1057 33.2687 12.1351 33.2555 12.1629C33.2422 12.1923 33.226 12.2216 33.2084 12.251C33.2084 12.251 33.0245 12.5137 33.0274 12.5166C32.948 12.6149 32.8524 12.7118 32.7405 12.8042C32.6346 12.8556 32.5287 12.8982 32.4213 12.9304C32.3286 12.9569 32.0918 13.0038 32.0918 13.0038C31.7887 13.0449 31.4915 13.0126 31.2297 12.9202L30.8472 12.725C30.65 12.5885 30.5 12.4139 30.3941 12.2304C30.4912 12.138 30.5706 12.0382 30.6383 11.9355C30.7001 11.7858 30.8663 11.4703 30.8663 11.4703C30.934 11.2971 30.9943 11.1372 31.087 10.9845C31.087 10.9845 31.2164 10.829 31.2047 10.8187C31.2473 10.7673 31.2856 10.7248 31.3621 10.6778C31.5533 10.5619 31.8726 10.5208 31.8726 10.5208C31.927 10.5135 31.9888 10.5017 32.0506 10.4944C32.1109 10.487 32.1727 10.4812 32.233 10.4782C32.3551 10.4724 32.4772 10.4753 32.5993 10.4841L32.9848 10.5325C33.1628 10.5619 33.3393 10.6 33.5158 10.6397C33.5056 10.8158 33.4982 10.9948 33.4835 11.1709ZM36.9378 9.61388C36.823 9.79732 36.3934 10.2904 36.3934 10.2904C36.3361 10.3403 36.2743 10.3873 36.2081 10.4327C36.1169 10.4562 36.0256 10.4738 35.9359 10.4856C35.8977 10.487 35.6873 10.5047 35.6873 10.5047C35.4666 10.5105 35.243 10.4856 35.0164 10.4445C35.0164 10.4445 34.2735 10.2699 34.0822 10.2214C34.0984 10.0262 34.2441 9.2558 34.2441 9.2558C34.3176 9.02247 34.4294 8.79354 34.6001 8.57928C34.6001 8.57928 34.8723 8.23882 35.1356 8.11555C35.3842 8.0231 35.8079 8.00989 35.8079 8.00989C36.0918 8.01282 36.873 8.10674 37.4468 8.77006C37.3291 8.95056 36.9378 9.61388 36.9378 9.61388ZM41.7058 9.37027C41.5484 9.473 41.388 9.57425 41.2232 9.66524C40.9069 9.96314 39.9948 10.1099 39.9948 10.1143C39.8918 10.129 39.7903 10.1363 39.6888 10.1378C39.6579 10.1246 39.6285 10.1099 39.5991 10.0967L39.5564 10.0747L39.2946 9.92646C39.1254 9.81346 38.9768 9.67991 38.837 9.53316L38.6002 9.26608C38.4531 9.09144 38.3074 8.90654 38.15 8.7275C38.2809 8.56754 38.8797 7.99375 39.0592 7.90716C39.2328 7.82351 39.7947 7.65915 39.8904 7.65915C39.8889 7.65622 39.9978 7.64448 40.0551 7.64595C40.114 7.64595 40.1743 7.65035 40.2346 7.65475C40.3656 7.69878 40.6068 7.82058 40.6156 7.82498C40.7054 7.87341 40.8599 7.99668 40.8599 7.99668C40.9982 8.11115 41.3365 8.52205 41.388 8.60423C41.4527 8.70549 41.641 9.22352 41.7058 9.37027ZM45.7897 9.13987L45.7868 9.13547C45.7838 9.17362 45.7809 9.21031 45.7765 9.247C45.7647 9.34385 45.7397 9.43484 45.7029 9.52142L45.7044 9.52436C45.5602 10.0028 45.1453 10.3682 45.06 10.4239C45.0615 10.4254 44.8173 10.5956 44.6687 10.6646C44.3539 10.7453 43.9875 10.7101 43.9875 10.7101C43.1828 10.6103 42.9121 10.2361 42.8739 10.1891C42.6694 9.99249 42.5149 9.76796 42.3825 9.53903C42.5973 9.36 42.79 9.16775 42.9636 8.98725L43.1784 8.76419C43.2976 8.64239 43.4123 8.53085 43.5374 8.434C43.5374 8.434 43.7654 8.27844 43.8007 8.2579C43.8875 8.24762 44.3068 8.23442 44.4318 8.24469C44.5481 8.25349 45.1512 8.23735 45.8338 8.50444C45.828 8.71429 45.8191 8.92561 45.7897 9.13987ZM49.4588 7.73546C49.241 8.00695 48.9365 8.23882 48.6467 8.42519C48.5834 8.46482 48.3348 8.59396 48.2671 8.62184C48.198 8.6189 47.8729 8.55727 47.8729 8.55727C47.7875 8.53379 47.7007 8.50737 47.611 8.47656C47.5213 8.44721 47.4301 8.41199 47.3271 8.38117L46.9902 8.27111C46.7989 8.208 46.6003 8.14343 46.3958 8.08767C46.4135 7.87781 46.4414 7.66502 46.4959 7.45517C46.4959 7.45517 46.5165 7.24825 46.5724 7.13966C46.6121 7.06335 46.6606 6.99144 46.7136 6.92246C46.8166 6.75223 46.9593 6.5864 47.1402 6.44699C47.1402 6.44699 47.508 6.1711 47.8052 6.11387C48.0935 6.06397 48.5349 6.19898 48.5349 6.19898C48.8041 6.28557 49.0189 6.42498 49.2013 6.5864C49.2013 6.5864 49.4441 6.79919 49.5294 6.92687C49.5412 6.94301 49.7501 7.23504 49.8383 7.36712L49.4588 7.73546Z" fill="#F6921E"/>
<path d="M45.5301 8.79802L45.4874 8.73785C45.4668 8.7672 45.4418 8.79362 45.4109 8.81563C45.3756 8.84058 45.3373 8.85819 45.2976 8.86699L45.3432 8.93157C45.3506 8.94184 45.3462 8.95651 45.3344 8.96532C45.3329 8.96679 45.3314 8.96679 45.33 8.96825L45.7816 9.58461C45.811 9.6257 45.8875 9.62129 45.9537 9.57433C46.0199 9.52737 46.0494 9.45693 46.0199 9.41584L45.5683 8.79949L45.5668 8.80096C45.5536 8.80829 45.5374 8.80829 45.5301 8.79802Z" fill="#FD9D6F"/>
<path d="M44.8237 8.2652L44.99 8.49413L45.2563 8.86394L45.2621 8.87275L45.3298 8.96814C45.3313 8.96814 45.3328 8.96667 45.3342 8.9652C45.346 8.9564 45.3504 8.94172 45.343 8.93145L45.2974 8.86688C45.3372 8.85807 45.3754 8.84193 45.4107 8.81552C45.4416 8.7935 45.4666 8.76709 45.4872 8.73774L45.5299 8.79791C45.5372 8.80818 45.5534 8.80965 45.5652 8.80084L45.5667 8.79937L45.5034 8.71132L45.4916 8.69518L45.2209 8.31803C45.2224 8.31656 44.8737 8.2608 44.8237 8.2652Z" fill="#B86966"/>
<path opacity="0.38" d="M45.0021 8.3453L45.8715 9.55746C45.8347 9.58388 45.7818 9.5736 45.7524 9.53251L44.8903 8.33356L45.0021 8.3453Z" fill="white"/>
<path d="M51.1673 7.65925L51.1761 7.58588C51.1423 7.59321 51.1055 7.59615 51.0672 7.59175C51.0246 7.58588 50.9849 7.57267 50.9496 7.55212L50.9407 7.6299C50.9393 7.64164 50.926 7.65045 50.9113 7.64898C50.9098 7.64898 50.9084 7.64751 50.9054 7.64751L50.8716 7.93368L51.1276 8.23011L51.1967 7.6842C51.1952 7.6842 51.1952 7.6842 51.1938 7.6842C51.1761 7.68273 51.1658 7.67099 51.1673 7.65925Z" fill="#FD9D6F"/>
<path d="M51.0385 6.62746L50.9768 7.07064L50.9194 7.52264L50.9179 7.53291L50.9032 7.64884C50.9047 7.64884 50.9061 7.65031 50.9091 7.65031C50.9238 7.65178 50.937 7.64297 50.9385 7.63123L50.9488 7.55345C50.9841 7.574 51.0238 7.58721 51.0665 7.59308C51.1047 7.59748 51.1415 7.59601 51.1754 7.58721L51.1665 7.66058C51.1651 7.67379 51.1754 7.68406 51.1915 7.687C51.193 7.687 51.193 7.687 51.1945 7.687L51.2077 7.57987L51.2107 7.56079L51.268 7.09999L51.3284 6.66561C51.3342 6.61572 51.2739 6.57756 51.1945 6.56729C51.1136 6.55408 51.0444 6.57756 51.0385 6.62746Z" fill="#B86966"/>
<path opacity="0.38" d="M51.1405 6.59621L50.9625 8.01382L50.8918 7.91697L51.0478 6.67399C51.0537 6.62556 51.0949 6.59181 51.1405 6.59621Z" fill="white"/>
<path d="M34.6685 9.94255L34.6288 9.88385C34.6082 9.91173 34.5817 9.93815 34.5493 9.95869C34.5125 9.98217 34.4743 9.99832 34.4346 10.0071L34.4772 10.0702C34.4846 10.0805 34.4787 10.0952 34.4669 10.104C34.4655 10.1054 34.464 10.1054 34.4625 10.1069L34.8862 10.7438C34.9127 10.7834 34.9892 10.7805 35.0569 10.7365C35.1245 10.6924 35.1569 10.6235 35.129 10.5824L34.7053 9.94695L34.7038 9.94842C34.6906 9.95429 34.6758 9.95282 34.6685 9.94255Z" fill="#FD9D6F"/>
<path d="M34.1669 9.66964L34.3949 10.0028L34.4008 10.0101L34.464 10.104C34.4655 10.1026 34.467 10.1026 34.4685 10.1011C34.4817 10.0923 34.4861 10.0776 34.4788 10.0673L34.4361 10.0042C34.4758 9.99543 34.5141 9.98075 34.5508 9.95581C34.5817 9.93526 34.6082 9.90884 34.6303 9.88096L34.67 9.93966C34.6774 9.94994 34.6921 9.9514 34.7053 9.9426L34.7068 9.94113L34.6494 9.85455L34.6391 9.8384L34.3905 9.46712L34.2463 9.25287L34.1669 9.66964Z" fill="#B86966"/>
<path opacity="0.38" d="M34.202 9.53906L35.0082 10.7454C34.9699 10.7703 34.9184 10.7586 34.892 10.7204L34.1814 9.65646L34.202 9.53906Z" fill="white"/>
<path d="M38.8951 8.82574L38.9024 8.7553C38.8686 8.7641 38.8318 8.76704 38.7936 8.76264C38.7509 8.75823 38.7097 8.74649 38.6744 8.72742L38.6671 8.80373C38.6656 8.81547 38.6523 8.82427 38.6376 8.82281C38.6362 8.82281 38.6347 8.82134 38.6317 8.82134L38.5626 9.58738C38.5582 9.6358 38.62 9.6813 38.6994 9.68864C38.7803 9.69597 38.848 9.66369 38.8524 9.61526L38.9216 8.84922C38.9201 8.84922 38.9201 8.84922 38.9186 8.84922C38.9054 8.84775 38.8936 8.83748 38.8951 8.82574Z" fill="#FD9D6F"/>
<path d="M38.6923 8.19319L38.6849 8.26363L38.6437 8.69948L38.6423 8.70976L38.632 8.82129C38.6334 8.82129 38.6349 8.82275 38.6378 8.82275C38.6526 8.82422 38.6658 8.81542 38.6673 8.80368L38.6746 8.72883C38.7099 8.74791 38.7497 8.75965 38.7938 8.76405C38.832 8.76699 38.8673 8.76405 38.9026 8.75672L38.8953 8.82716C38.8938 8.8389 38.9056 8.85064 38.9203 8.8521C38.9218 8.8521 38.9218 8.8521 38.9232 8.8521L38.9335 8.74791L38.935 8.72883L38.9777 8.28418L39.01 7.93931C39.013 7.88942 38.6923 8.19319 38.6923 8.19319Z" fill="#B86966"/>
<path opacity="0.38" d="M38.7993 8.11603L38.6625 9.54098C38.6169 9.53658 38.5845 9.49549 38.5889 9.44853L38.7081 8.20261L38.7993 8.11603Z" fill="white"/>
<path d="M33.2808 10.9259L33.2366 10.8716C33.2175 10.9009 33.194 10.9288 33.1645 10.9523C33.1307 10.9802 33.0939 10.9993 33.0557 11.0095L33.1027 11.0682C33.1101 11.077 33.1072 11.0932 33.0954 11.102C33.0939 11.1034 33.0924 11.1034 33.091 11.1049L33.4411 11.5378L33.4867 11.1445L33.319 10.9229L33.3175 10.9244C33.3043 10.9347 33.2881 10.9362 33.2808 10.9259Z" fill="#FD9D6F"/>
<path d="M32.4894 10.3593L32.7381 10.6705L33.0132 11.0124L33.019 11.0197L33.0897 11.1078C33.0911 11.1063 33.0926 11.1063 33.0941 11.1048C33.1058 11.096 33.1088 11.0799 33.1014 11.0711L33.0543 11.0124C33.0926 11.0006 33.1294 10.9816 33.1632 10.9552C33.1926 10.9317 33.2162 10.9038 33.2353 10.8744L33.2794 10.9287C33.2868 10.9375 33.303 10.9375 33.3147 10.9287L33.3162 10.9273L33.25 10.8466L33.2382 10.8319L32.9573 10.4841L32.7145 10.1803C32.6836 10.1422 32.6145 10.1598 32.5527 10.2097C32.4924 10.2566 32.4585 10.3212 32.4894 10.3593Z" fill="#B86966"/>
<path opacity="0.38" d="M32.5378 10.2747L33.4396 11.3915L33.4205 11.5001L32.526 10.3936C32.4981 10.3554 32.5025 10.3026 32.5378 10.2747Z" fill="white"/>
<path d="M37.0382 8.93872L37.022 8.86975C36.9926 8.88883 36.9587 8.9035 36.922 8.91231C36.8793 8.92258 36.8381 8.92405 36.7984 8.91818L36.816 8.99155C36.819 9.00329 36.8087 9.01503 36.794 9.01944C36.7925 9.01944 36.791 9.01944 36.7881 9.01944L36.9323 9.62699C36.9852 9.54187 37.147 9.26891 37.147 9.26891L37.0735 8.9534C37.072 8.9534 37.072 8.95487 37.0705 8.95487C37.0558 8.9578 37.0411 8.95046 37.0382 8.93872Z" fill="#FD9D6F"/>
<path d="M36.5895 8.17568L36.6602 8.47505L36.7617 8.90209L36.7631 8.9109L36.7896 9.02096C36.7911 9.02096 36.7926 9.02096 36.7955 9.02096C36.8102 9.01803 36.8205 9.00482 36.8176 8.99308L36.7999 8.9197C36.8396 8.92557 36.8808 8.92411 36.9235 8.91383C36.9603 8.90503 36.9941 8.89035 37.0235 8.87128L37.0397 8.94025C37.0427 8.95199 37.0574 8.95933 37.0721 8.95492C37.0721 8.95492 37.0736 8.95346 37.075 8.95346L37.0515 8.8522L37.0471 8.83459L36.9441 8.40021L36.8749 8.10964C36.8632 8.06268 36.794 8.048 36.7161 8.06708C36.6352 8.08322 36.5778 8.12725 36.5895 8.17568Z" fill="#B86966"/>
<path opacity="0.38" d="M36.6701 8.09143L37.0011 9.48703L36.9378 9.57655L36.6098 8.19269C36.598 8.1472 36.6259 8.1017 36.6701 8.09143Z" fill="white"/>
<path d="M44.0676 9.66687L44.047 9.56415C44.0176 9.58763 43.9838 9.60377 43.947 9.61111C43.9043 9.61991 43.8616 9.61404 43.8205 9.59937L43.8425 9.7109C43.8455 9.72851 43.8366 9.74465 43.8219 9.74759C43.8205 9.74759 43.8175 9.74759 43.816 9.74759L44.0088 10.7147C44.1618 10.7308 44.253 10.7308 44.3015 10.7088L44.1029 9.69329C44.1014 9.69329 44.1014 9.69476 44.1 9.69476C44.0853 9.69622 44.0706 9.68448 44.0676 9.66687Z" fill="#FD9D6F"/>
<path d="M43.5629 8.41926L43.657 8.92849L43.7806 9.56832L43.7835 9.583L43.8159 9.74736C43.8174 9.74736 43.8203 9.74736 43.8218 9.74736C43.8365 9.74442 43.8453 9.72828 43.8424 9.71067L43.8203 9.59914C43.8615 9.61381 43.9042 9.61822 43.9468 9.61088C43.9836 9.60354 44.0174 9.5874 44.0469 9.56392L44.0675 9.66664C44.0704 9.68425 44.0851 9.69599 44.1013 9.69306C44.1028 9.69306 44.1028 9.69159 44.1042 9.69159L44.0748 9.53897L44.0689 9.51109L43.9424 8.85805L43.8497 8.36349C43.8365 8.29305 43.7644 8.26077 43.685 8.27691C43.6055 8.29159 43.5496 8.34882 43.5629 8.41926Z" fill="#B86966"/>
<path opacity="0.38" d="M43.6497 8.36926L44.0984 10.6835C44.0984 10.6835 44.0233 10.7305 44.0101 10.6615L43.5923 8.51014C43.579 8.4397 43.6041 8.3766 43.6497 8.36926Z" fill="white"/>
<path d="M36.1084 8.97394L36.1467 9.07373C36.1099 9.06932 36.0716 9.07226 36.0363 9.08547C35.9951 9.10014 35.9613 9.12802 35.9348 9.16178L35.8936 9.05465C35.8877 9.03704 35.8701 9.02823 35.8568 9.03264C35.8554 9.03264 35.8539 9.0341 35.8524 9.03557L35.4729 8.04354C35.4464 7.97456 35.72 7.87184 35.745 7.93934L36.1246 8.92991C36.1231 8.92991 36.1231 8.92991 36.1217 8.92991C36.1084 8.93872 36.1011 8.95633 36.1084 8.97394Z" fill="#FD9D6F"/>
<path d="M36.353 10.3242L36.1558 9.83116L35.919 9.2104L35.9131 9.19719L35.8528 9.03724C35.8543 9.03577 35.8557 9.0343 35.8572 9.0343C35.8719 9.02843 35.8881 9.0387 35.894 9.05631L35.9352 9.16344C35.9616 9.12969 35.9955 9.10181 36.0367 9.08713C36.072 9.07392 36.1088 9.06952 36.147 9.07539L36.1088 8.9756C36.1029 8.95799 36.1088 8.94038 36.122 8.93451C36.1235 8.93451 36.1235 8.93451 36.1249 8.93451L36.1809 9.08273L36.1912 9.10914L36.4324 9.74164L36.5634 10.0865C36.5648 10.085 36.4721 10.2333 36.353 10.3242Z" fill="#B86966"/>
<path opacity="0.38" d="M36.3908 10.1724L35.5537 7.98438C35.5537 7.98438 35.4684 7.99318 35.4948 8.05922L36.3231 10.2282C36.3496 10.2957 36.3908 10.1724 36.3908 10.1724Z" fill="white"/>
<path d="M40.556 8.9124L40.5281 9.01366C40.5001 8.98871 40.4677 8.96964 40.4324 8.95936C40.3912 8.94762 40.3471 8.94909 40.3059 8.96083L40.3353 8.85223C40.3397 8.83462 40.3324 8.81701 40.3177 8.81408C40.3162 8.81408 40.3147 8.81408 40.3118 8.81408L40.5884 7.8103C40.6457 7.83819 40.7899 7.93357 40.8458 7.98934L40.5928 8.89039C40.5913 8.89039 40.5913 8.88892 40.5898 8.88892C40.5766 8.88452 40.5604 8.89626 40.556 8.9124Z" fill="#FB5C0F"/>
<path d="M39.9674 10.0585L40.0895 9.61676L40.2631 8.98719L40.2675 8.97399L40.3116 8.81256C40.3131 8.81256 40.316 8.81256 40.3175 8.81256C40.3322 8.81696 40.3396 8.83457 40.3352 8.85072L40.3057 8.95931C40.3469 8.94757 40.3911 8.9461 40.4323 8.95784C40.469 8.96812 40.5014 8.98719 40.5279 9.01214L40.5558 8.91088C40.5603 8.89327 40.5764 8.883 40.5911 8.8874C40.5926 8.8874 40.5926 8.88887 40.5941 8.88887L40.5529 9.03856L40.5455 9.06497L40.369 9.70627L40.2498 10.1348C40.2307 10.2038 40.1572 10.2302 40.0792 10.2082C39.9997 10.1891 39.9483 10.1289 39.9674 10.0585Z" fill="#882D00"/>
<path opacity="0.38" d="M40.0377 10.1739L40.6689 7.88315L40.5997 7.83325L39.9921 10.0301C39.973 10.0976 39.9936 10.1622 40.0377 10.1739Z" fill="white"/>
<path d="M39.7294 8.73196L39.7132 8.83615C39.6823 8.81414 39.6484 8.798 39.6117 8.79213C39.569 8.78479 39.5263 8.79066 39.4866 8.8068L39.5043 8.69527C39.5072 8.67766 39.4969 8.66152 39.4822 8.65858C39.4807 8.65858 39.4778 8.65858 39.4763 8.65858L39.6278 7.71498C39.7205 7.67682 39.8382 7.6416 39.9339 7.646L39.7647 8.70408C39.7632 8.70408 39.7632 8.70261 39.7617 8.70261C39.747 8.70261 39.7323 8.71435 39.7294 8.73196Z" fill="#FD9D6F"/>
<path d="M39.2717 9.93559L39.3438 9.4836L39.4468 8.83936L39.4497 8.82468L39.4762 8.65886C39.4777 8.65886 39.4791 8.65739 39.4821 8.65886C39.4968 8.66179 39.5071 8.67793 39.5041 8.69554L39.4865 8.80707C39.5262 8.79093 39.5689 8.78506 39.6115 8.7924C39.6483 8.79827 39.6836 8.81441 39.7131 8.83642L39.7292 8.73223C39.7322 8.71462 39.7469 8.70141 39.7616 8.70435C39.7631 8.70435 39.7631 8.70582 39.7645 8.70582L39.7395 8.85844L39.7351 8.88632L39.6292 9.5423L39.5498 10.0677C39.5409 10.097 39.4497 10.0926 39.3703 10.0794C39.2908 10.0662 39.2599 10.0075 39.2717 9.93559Z" fill="#B86966"/>
<path opacity="0.38" d="M39.3577 10.0288L39.7328 7.69397L39.6416 7.74387L39.2959 9.89083C39.2856 9.9598 39.3121 10.0214 39.3577 10.0288Z" fill="white"/>
<path d="M35.1728 9.44798L35.1949 9.48907C35.1625 9.51988 35.1404 9.56097 35.1316 9.605L35.2861 9.8941L35.6789 10.6249C35.7127 10.688 35.9701 10.5515 35.9363 10.4884L35.5612 9.78991L35.3729 9.43624C35.3331 9.43037 35.2934 9.4333 35.2552 9.44944L35.236 9.41422C35.2243 9.39368 35.2022 9.38341 35.1846 9.39368C35.1654 9.40248 35.161 9.42596 35.1728 9.44798Z" fill="#FB5C0F"/>
<path d="M34.5918 8.5895L35.1302 9.60355C35.1391 9.55952 35.1611 9.51843 35.1935 9.48761L35.1714 9.44652C35.1597 9.42598 35.1655 9.40103 35.1832 9.39223C35.2009 9.38342 35.2244 9.39223 35.2347 9.41277L35.2538 9.44799C35.2921 9.43185 35.3318 9.42745 35.3715 9.43478L34.8316 8.42367C34.8213 8.40312 34.8051 8.38845 34.786 8.37671C34.7257 8.4266 34.5918 8.5895 34.5918 8.5895Z" fill="#882D00"/>
<path opacity="0.38" d="M34.6758 8.5473L35.7689 10.5945C35.7291 10.6165 35.6688 10.5827 35.6365 10.5211L34.614 8.60894L34.6758 8.5473Z" fill="white"/>
<path d="M44.6102 9.2236L44.6308 9.26469C44.5969 9.29404 44.5749 9.33366 44.5646 9.37769L44.7073 9.66532L45.0648 10.3829C45.0971 10.446 45.1736 10.4578 45.2457 10.4211C45.3178 10.3859 45.3575 10.3169 45.3252 10.2538L44.9839 9.56846L44.8088 9.21626C44.7705 9.20892 44.7293 9.21186 44.6911 9.228L44.6734 9.19278C44.6631 9.17224 44.6396 9.16196 44.6219 9.17077C44.6058 9.17811 44.5999 9.20159 44.6102 9.2236Z" fill="#FB5C0F"/>
<path d="M43.9999 8.2461L44.5648 9.37608C44.5751 9.33206 44.5986 9.2939 44.631 9.26308L44.6104 9.22199C44.6001 9.20145 44.606 9.1765 44.6237 9.16769C44.6413 9.15889 44.6648 9.16916 44.6751 9.18971L44.6928 9.22493C44.731 9.21025 44.7708 9.20732 44.8105 9.21319L44.3294 8.24023C44.222 8.21088 44.0852 8.23729 43.9999 8.2461Z" fill="#882D00"/>
<path opacity="0.38" d="M44.1535 8.34242L45.1554 10.3573C45.1142 10.3779 45.0568 10.3441 45.0259 10.281L44.0638 8.34682C44.0329 8.28519 44.1535 8.34242 44.1535 8.34242Z" fill="white"/>
<path d="M47.5169 7.40383L47.5272 7.44785C47.4875 7.4684 47.4566 7.50215 47.436 7.54178L47.5081 7.85582L47.6538 8.48832C47.6538 8.48832 47.8391 8.56756 47.9833 8.58077L47.7994 7.82647L47.7111 7.44345C47.6744 7.42731 47.6346 7.42144 47.5949 7.42731L47.5861 7.38915C47.5802 7.36714 47.5611 7.351 47.542 7.3554C47.5228 7.35834 47.5111 7.38035 47.5169 7.40383Z" fill="#FB5C0F"/>
<path d="M47.1641 6.3766L47.4363 7.54033C47.4569 7.50071 47.4878 7.46696 47.5275 7.44641L47.5172 7.40239C47.5113 7.38037 47.5231 7.35689 47.5422 7.35249C47.5614 7.34809 47.5819 7.36276 47.5864 7.38624L47.5952 7.4244C47.6349 7.41853 47.6761 7.4244 47.7114 7.44054L47.4466 6.31056C47.4304 6.24159 47.3642 6.23278 47.2862 6.25039C47.2083 6.26947 47.148 6.30763 47.1641 6.3766Z" fill="#882D00"/>
<path opacity="0.38" d="M47.2463 6.29401L47.7597 8.51141L47.6671 8.47326L47.1948 6.43489C47.1786 6.36738 47.2022 6.30428 47.2463 6.29401Z" fill="white"/>
<path d="M48.3883 7.24821L48.3912 7.2937C48.3485 7.30838 48.3132 7.33626 48.2853 7.37148L48.3059 7.69286L48.3574 8.53962C48.3618 8.61006 48.4265 8.60125 48.5074 8.59685C48.5883 8.59245 48.6516 8.54402 48.6457 8.47358L48.6001 7.71194L48.5751 7.31865C48.5427 7.29664 48.503 7.2849 48.4633 7.28343L48.4603 7.24527C48.4589 7.22179 48.4412 7.20418 48.4221 7.20565C48.4015 7.20565 48.3868 7.22473 48.3883 7.24821Z" fill="#FB5C0F"/>
<path d="M48.2089 6.12439L48.2854 7.37177C48.3118 7.33509 48.3486 7.30867 48.3913 7.29399L48.3883 7.2485C48.3869 7.22502 48.4016 7.20594 48.4222 7.20448C48.4428 7.20301 48.459 7.22062 48.4604 7.2441L48.4634 7.28225C48.5046 7.28372 48.5428 7.29546 48.5752 7.31747L48.506 6.18749C48.4207 6.15814 48.2868 6.13173 48.2089 6.12439Z" fill="#882D00"/>
<path opacity="0.38" d="M48.3087 6.1798L48.4559 8.57331C48.4103 8.57624 48.3676 8.57037 48.3602 8.3341L48.2264 6.17833C48.2219 6.10789 48.3087 6.1798 48.3087 6.1798Z" fill="white"/>
<path d="M30.9049 12.3361L30.899 12.3038C30.8548 12.3024 30.8151 12.2906 30.7813 12.2715L30.7401 12.0382L30.6312 11.4263C30.6224 11.3749 30.6739 11.3059 30.7533 11.2912C30.8328 11.2766 30.9034 11.2971 30.9122 11.3485L31.0226 11.9604L31.074 12.2451C31.0461 12.2686 31.0108 12.2848 30.9711 12.295L30.9755 12.3229C30.9784 12.339 30.9652 12.3567 30.9461 12.3596C30.9269 12.364 30.9078 12.3523 30.9049 12.3361Z" fill="#FB5C0F"/>
<path d="M30.864 12.7353L30.7816 12.2715C30.814 12.2906 30.8552 12.3023 30.8993 12.3038L30.9052 12.3361C30.9081 12.3537 30.9273 12.364 30.9464 12.361C30.9655 12.3581 30.9788 12.3405 30.9758 12.3244L30.9714 12.2965C31.0111 12.2862 31.0464 12.2701 31.0744 12.2466L31.1935 12.9055C31.1303 12.8805 30.8875 12.7793 30.864 12.7353Z" fill="#882D00"/>
<path opacity="0.38" d="M30.9741 12.7942L30.7284 11.4191C30.6843 11.4265 30.6548 11.4734 30.6637 11.5248L30.8799 12.7311L30.9741 12.7942Z" fill="white"/>
<path d="M29.4386 11.8591L29.4518 11.84C29.4209 11.8107 29.3974 11.7769 29.3842 11.7461L29.4813 11.6096L29.7976 11.165C29.8329 11.2413 29.849 11.5818 29.849 11.5818L29.7299 11.7623L29.6107 11.9296C29.5783 11.9207 29.543 11.9061 29.5077 11.8841L29.496 11.9002C29.4886 11.9105 29.4695 11.909 29.4533 11.8973C29.4386 11.8855 29.4312 11.8679 29.4386 11.8591Z" fill="#FB5C0F"/>
<path d="M28.8733 12.4594C28.8895 12.4374 29.3838 11.7447 29.3838 11.7447C29.397 11.7755 29.4206 11.8078 29.4515 11.8386L29.4382 11.8577C29.4309 11.868 29.4382 11.8856 29.4544 11.8958C29.4706 11.9076 29.4897 11.9091 29.4971 11.8988L29.5089 11.8826C29.5427 11.9046 29.578 11.9193 29.6118 11.9281L29.1675 12.5459C29.1455 12.5768 29.0616 12.6032 28.9792 12.5797C28.9013 12.5577 28.8571 12.4828 28.8733 12.4594Z" fill="#882D00"/>
<path opacity="0.38" d="M28.9464 12.5331L29.8085 11.3121C29.7718 11.2857 29.7247 11.2886 29.7041 11.318L28.9038 12.4494C28.8832 12.4788 28.9464 12.5331 28.9464 12.5331Z" fill="white"/>
<path d="M28.103 10.6308L28.1192 10.6073C28.0883 10.5765 28.0662 10.5412 28.0559 10.506L28.1751 10.3373L28.3649 10.0702C28.3649 10.0702 28.6547 9.98359 28.7871 9.98065L28.4266 10.4869L28.281 10.6924C28.2457 10.6865 28.2104 10.6733 28.1751 10.6513L28.1604 10.6718C28.1515 10.6836 28.1309 10.6851 28.1148 10.6733C28.1015 10.6616 28.0956 10.6425 28.103 10.6308Z" fill="#FB5C0F"/>
<path d="M27.6262 11.1152L28.0572 10.5077C28.0675 10.5429 28.0896 10.5767 28.1205 10.6089L28.1043 10.6324C28.0955 10.6442 28.1013 10.6632 28.1175 10.675C28.1337 10.6867 28.1543 10.6853 28.1631 10.6735L28.1778 10.653C28.2117 10.675 28.2485 10.6882 28.2838 10.6941L27.788 11.3721C27.7615 11.4087 27.7012 11.3236 27.6718 11.2752C27.6291 11.2062 27.5997 11.1519 27.6262 11.1152Z" fill="#882D00"/>
<path opacity="0.38" d="M27.6686 11.2188L28.4777 10.0697C28.4777 10.0697 28.3895 10.0521 28.3645 10.0873L27.648 11.1058C27.6215 11.1425 27.6318 11.1938 27.6686 11.2188Z" fill="white"/>
<path d="M29.0643 11.6493L29.1187 11.5803C29.0834 11.5715 29.0496 11.5553 29.0201 11.5319C28.9863 11.5054 28.9598 11.4717 28.9436 11.4335L28.8848 11.5084C28.876 11.5201 28.8583 11.5231 28.8465 11.5128C28.8451 11.5113 28.8436 11.5098 28.8436 11.5084L28.2831 12.2128C28.2448 12.2597 28.2537 12.3463 28.3169 12.3948C28.3802 12.4446 28.4582 12.4608 28.4964 12.4124L29.0731 11.6874C29.0716 11.6874 29.0716 11.6874 29.0702 11.6859C29.0569 11.6771 29.0554 11.661 29.0643 11.6493Z" fill="#FD9D6F"/>
<path d="M29.5692 10.5956L29.2808 10.9551L28.938 11.3866L28.9307 11.3954L28.8424 11.5054C28.8439 11.5069 28.8439 11.5084 28.8454 11.5098C28.8571 11.5186 28.8748 11.5172 28.8836 11.5054L28.9424 11.4306C28.9601 11.4687 28.9851 11.5025 29.0189 11.5289C29.0484 11.5524 29.0822 11.5685 29.1175 11.5773L29.0631 11.6463C29.0543 11.6581 29.0557 11.6757 29.0675 11.6845C29.069 11.6845 29.069 11.6845 29.0704 11.6859L29.1513 11.5832L29.1661 11.5641L29.5147 11.1239L29.7001 10.8891C29.7016 10.892 29.6118 10.6352 29.5692 10.5956Z" fill="#B86966"/>
<path opacity="0.38" d="M29.5616 10.7573L28.3111 12.3349C28.2758 12.307 28.2758 12.2468 28.3126 12.1999L29.463 10.75C29.4998 10.703 29.5616 10.7573 29.5616 10.7573Z" fill="white"/>
<path d="M28.6317 11.2135L28.692 11.1314C28.6553 11.1255 28.62 11.1108 28.5905 11.0888C28.5552 11.0624 28.5302 11.0286 28.5126 10.989L28.4478 11.0771C28.4375 11.0917 28.4184 11.0947 28.4066 11.0859C28.4052 11.0844 28.4037 11.0829 28.4022 11.0815L27.8476 11.8299C27.8064 11.8857 27.8241 11.9708 27.8888 12.0192C27.9535 12.0676 28.0065 12.1087 28.0491 12.0515L28.6361 11.2546C28.6347 11.2546 28.6347 11.2546 28.6332 11.2532C28.6229 11.2458 28.6214 11.2282 28.6317 11.2135Z" fill="#FD9D6F"/>
<path d="M29.1601 10.0629L28.8865 10.4298L28.5084 10.9405L28.4996 10.9522L28.4025 11.0828C28.4039 11.0843 28.4039 11.0858 28.4069 11.0872C28.4186 11.0961 28.4378 11.0917 28.4481 11.0784L28.5128 10.9904C28.5305 11.03 28.5555 11.0638 28.5908 11.0902C28.6217 11.1122 28.6555 11.1269 28.6923 11.1327L28.632 11.2149C28.6217 11.2296 28.6231 11.2472 28.6349 11.256C28.6364 11.256 28.6364 11.256 28.6379 11.2575L28.7276 11.1357L28.7438 11.1137L29.1292 10.5942L29.3749 10.2625C29.3381 10.1759 29.2219 10.082 29.1601 10.0629Z" fill="#B86966"/>
<path opacity="0.38" d="M29.2349 10.1227L27.8668 11.9703C27.83 11.9439 27.8329 11.8764 27.8741 11.8221L29.1437 10.1066C29.1849 10.0523 29.2349 10.1227 29.2349 10.1227Z" fill="white"/>
<path d="M43.2779 9.45085L43.2734 9.53597C43.2411 9.51983 43.2058 9.51102 43.1675 9.50955C43.1234 9.50809 43.0822 9.51542 43.0439 9.53157L43.0484 9.44058C43.0484 9.42591 43.0366 9.41417 43.0219 9.4127C43.0204 9.4127 43.0189 9.4127 43.016 9.41417L43.0572 8.58062C43.0601 8.52192 43.1278 8.4779 43.2087 8.4823C43.2896 8.4867 43.3529 8.5366 43.3499 8.5953L43.3088 9.42884C43.3073 9.42884 43.3073 9.42884 43.3058 9.42884C43.2911 9.42591 43.2793 9.43765 43.2779 9.45085Z" fill="#FB5C0F"/>
<path d="M42.9753 10.2964L42.9856 10.0866L43.0121 9.55972V9.54798L43.0195 9.41297C43.021 9.41297 43.0224 9.4115 43.0254 9.4115C43.0401 9.41297 43.0518 9.42471 43.0518 9.43938L43.0474 9.53037C43.0857 9.51422 43.1269 9.50542 43.171 9.50835C43.2093 9.50982 43.2446 9.52009 43.2769 9.53477L43.2813 9.44965C43.2813 9.43498 43.2946 9.42471 43.3093 9.42471C43.3108 9.42471 43.3108 9.42471 43.3122 9.42471L43.3064 9.54945L43.3049 9.57146L43.2784 10.1086L43.2637 10.4828C43.2578 10.5444 42.9753 10.2964 42.9753 10.2964Z" fill="#882D00"/>
<path opacity="0.38" d="M43.0704 10.3381L43.1587 8.56093C43.1131 8.55799 43.0748 8.60202 43.0719 8.65925L42.991 10.2779L43.0704 10.3381Z" fill="white"/>
<path d="M46.848 7.55053L46.8804 7.60923C46.8465 7.6151 46.8112 7.62831 46.7789 7.64592C46.7406 7.66646 46.7082 7.69435 46.6832 7.7237L46.6479 7.66059C46.642 7.65032 46.6273 7.64885 46.6141 7.65619C46.6126 7.65766 46.6112 7.65913 46.6097 7.65913L46.314 7.12789C46.2919 7.08826 46.3302 7.02369 46.4008 6.98407C46.4714 6.94445 46.5464 6.94592 46.5685 6.98554L46.8642 7.51678C46.8627 7.51678 46.8627 7.51678 46.8612 7.51825C46.848 7.52705 46.8421 7.54026 46.848 7.55053Z" fill="#FB5C0F"/>
<path d="M46.9437 8.25524L46.8672 8.12463L46.6656 7.76216L46.6612 7.75482L46.6097 7.66237C46.6112 7.6609 46.6127 7.65943 46.6142 7.65943C46.6274 7.65209 46.6421 7.65356 46.648 7.66383L46.6833 7.72694C46.7083 7.69612 46.7407 7.6697 46.7789 7.64916C46.8128 7.63155 46.8466 7.61834 46.8804 7.61247L46.8481 7.55377C46.8422 7.5435 46.8481 7.53029 46.8628 7.52295C46.8643 7.52295 46.8642 7.52295 46.8657 7.52148L46.9143 7.60807L46.9231 7.62421L47.1291 7.99402L47.3586 8.39465C47.2659 8.36237 46.9658 8.29486 46.9437 8.25524Z" fill="#882D00"/>
<path opacity="0.38" d="M47.0757 8.29821L46.3681 7.02588C46.3284 7.04789 46.3136 7.09779 46.3357 7.13594L46.9551 8.25125L47.0757 8.29821Z" fill="white"/>
<path d="M49.4403 7.21142L49.4389 7.27893C49.405 7.26719 49.3697 7.26132 49.3315 7.26132C49.2888 7.26132 49.2461 7.26865 49.2094 7.28186L49.2108 7.20995C49.2108 7.19821 49.1991 7.18941 49.1829 7.18941C49.1814 7.18941 49.1799 7.18941 49.177 7.18941L49.1829 6.58186C49.1829 6.53637 49.4727 6.85335 49.4727 6.85335L49.4683 7.19234C49.4668 7.19234 49.4668 7.19234 49.4654 7.19234C49.4536 7.19088 49.4403 7.19968 49.4403 7.21142Z" fill="#FB5C0F"/>
<path d="M49.1673 8.13912L49.1731 7.71794L49.1776 7.30264V7.29383L49.179 7.18671C49.1805 7.18671 49.182 7.18671 49.1849 7.18671C49.1996 7.18671 49.2129 7.19551 49.2129 7.20725L49.2114 7.27916C49.2482 7.26595 49.2894 7.25715 49.3335 7.25861C49.3718 7.25861 49.4071 7.26595 49.4409 7.27622L49.4424 7.20872C49.4424 7.19698 49.4541 7.18817 49.4703 7.18817C49.4718 7.18817 49.4718 7.18817 49.4733 7.18817L49.4718 7.2865V7.30411L49.4674 7.72675L49.4615 8.13912C49.4615 8.18461 49.3968 8.2125 49.3158 8.21103C49.232 8.21396 49.1658 8.18461 49.1673 8.13912Z" fill="#882D00"/>
<path opacity="0.38" d="M49.2053 6.70696L49.1906 8.10109C49.1906 8.14659 49.2273 8.18181 49.2715 8.18328L49.2862 6.74365C49.2876 6.74365 49.2067 6.66147 49.2053 6.70696Z" fill="white"/>
<path d="M32.4527 11.3528L32.516 11.4365C32.4792 11.4424 32.4439 11.457 32.4144 11.4805C32.3806 11.5069 32.3556 11.5422 32.3394 11.5818L32.2703 11.4923C32.26 11.4776 32.2409 11.4732 32.2291 11.4835C32.2276 11.4849 32.2261 11.4864 32.2261 11.4879L31.5965 10.6675C31.5524 10.6103 31.5685 10.5237 31.6333 10.4753C31.698 10.4268 31.7848 10.4327 31.8289 10.4914L32.4586 11.3103C32.4571 11.3103 32.4571 11.3103 32.4556 11.3118C32.4424 11.3191 32.4424 11.3382 32.4527 11.3528Z" fill="#FD9D6F"/>
<path d="M33.0211 12.5254L32.7342 12.1497L32.337 11.6317L32.3282 11.62L32.2267 11.4864C32.2282 11.4849 32.2282 11.4835 32.2296 11.482C32.2414 11.4732 32.2605 11.4776 32.2708 11.4908L32.34 11.5803C32.3561 11.5407 32.3812 11.5055 32.415 11.4791C32.4444 11.4556 32.4797 11.4424 32.5165 11.435L32.4532 11.3514C32.4429 11.3367 32.4429 11.3176 32.4547 11.3088C32.4562 11.3088 32.4562 11.3088 32.4577 11.3074L32.5518 11.4306L32.5695 11.4527L32.974 11.981L33.1976 12.273C33.1976 12.2759 33.0888 12.4594 33.0211 12.5254Z" fill="#B86966"/>
<path opacity="0.38" d="M33.0608 12.4158L31.6705 10.5976C31.6337 10.6255 31.6396 10.693 31.6823 10.7487L33.0107 12.4907L33.0608 12.4158Z" fill="white"/>
<path d="M41.1942 9.10623L41.1854 9.13265C41.1428 9.12678 41.1016 9.13118 41.0677 9.14292L41.0074 9.33517L40.8059 9.99261C40.7926 10.0352 40.8456 10.0807 40.9236 10.1041C41.0001 10.1276 41.0721 10.1218 41.0854 10.0792L41.2796 9.44229L41.3531 9.20749C41.3281 9.18401 41.2943 9.16347 41.256 9.14879L41.2634 9.12531C41.2678 9.11064 41.256 9.09449 41.2369 9.08862C41.2178 9.08569 41.1987 9.09156 41.1942 9.10623Z" fill="#FB5C0F"/>
<path d="M41.286 8.46204L41.0682 9.14296C41.1021 9.13122 41.1433 9.12682 41.1859 9.13269L41.1948 9.10627C41.1992 9.0916 41.2183 9.08573 41.2374 9.0916C41.2565 9.09747 41.2683 9.11361 41.2639 9.12829L41.2565 9.15177C41.2948 9.16644 41.3272 9.18552 41.3536 9.21047L41.4802 8.80837C41.4802 8.8069 41.4272 8.61466 41.286 8.46204Z" fill="#882D00"/>
<path opacity="0.38" d="M41.3094 8.67952L40.9048 9.96946C40.8607 9.95625 40.8371 9.91076 40.8504 9.86967L41.2476 8.60321L41.3094 8.67952Z" fill="white"/>
<path d="M31.7171 11.9676L31.6965 11.9265C31.6524 11.9353 31.6068 11.9295 31.5656 11.9119L31.417 11.6198L31.0786 10.9565C31.0462 10.8919 31.083 10.823 31.1551 10.7863C31.2272 10.7496 31.2743 10.6982 31.3066 10.7628L31.6597 11.4555L31.8421 11.8121C31.8245 11.8473 31.798 11.8781 31.7642 11.9001L31.7818 11.9353C31.7921 11.9559 31.7877 11.9808 31.7686 11.9896C31.7509 11.9984 31.7289 11.9896 31.7171 11.9676Z" fill="#FB5C0F"/>
<path d="M32.1203 12.9949L31.5657 11.9119C31.6069 11.9295 31.6525 11.9353 31.6966 11.9265L31.7172 11.9676C31.7275 11.9882 31.751 11.9984 31.7687 11.9896C31.7863 11.9808 31.7922 11.9559 31.7819 11.9353L31.7643 11.9001C31.7996 11.8781 31.8261 11.8473 31.8423 11.8121L32.4131 12.9288C32.3469 12.9582 32.2277 12.9978 32.1203 12.9949Z" fill="#882D00"/>
<path opacity="0.38" d="M32.2096 12.9615L31.1165 10.8219C31.0753 10.8424 31.0695 10.91 31.1018 10.9731L32.1022 12.9307C32.1346 12.9938 32.2096 12.9615 32.2096 12.9615Z" fill="white"/>
<path d="M55.7713 5.91011C55.4447 5.73401 55.0563 5.68998 54.6194 5.8338C53.7043 6.1361 53.3939 7.03422 53.6661 7.85162C53.9382 8.66903 54.7238 9.20467 55.6389 8.90236C56.0067 8.78056 56.3245 8.56483 56.5407 8.32563L56.1464 7.13695L55.2976 7.41724L55.1873 7.08558L56.3995 6.68495L56.9777 8.42542C56.6584 8.7923 56.1818 9.08873 55.7507 9.23108C54.69 9.58182 53.6337 9.05645 53.2762 7.97783C52.9187 6.89921 53.4513 5.84994 54.512 5.49921C55.0754 5.31283 55.5359 5.33925 55.9567 5.55057L55.7713 5.91011Z" fill="#CC3399"/>
<path d="M59.1843 6.65386L59.1711 6.59223C59.0828 6.17399 58.8386 6.00816 58.4179 6.09621C58.1324 6.15491 57.9044 6.30606 57.7367 6.53499L57.4778 6.33541C57.6529 6.06099 57.975 5.86434 58.4311 5.77042C58.9077 5.67063 59.3741 5.85407 59.4977 6.44401L59.7242 7.52556C59.7625 7.71194 59.8316 7.935 59.8787 8.05974L59.5462 8.12871C59.5006 8.01424 59.4594 7.87189 59.4329 7.74275L59.4227 7.74422C59.2932 8.10523 59.0519 8.29601 58.6621 8.37672C58.2325 8.46624 57.7779 8.31215 57.6793 7.84254C57.5146 7.05596 58.4326 6.81089 59.0122 6.69055L59.1843 6.65386ZM59.0666 6.97084C58.7194 7.04275 57.9412 7.23206 58.0427 7.71781C58.1104 8.03772 58.4311 8.10083 58.7062 8.04359C59.2034 7.9394 59.3682 7.53877 59.2785 7.10879L59.2417 6.93269L59.0666 6.97084Z" fill="#CC3399"/>
<path d="M60.5614 3.9347L60.9115 3.93176L60.9307 5.86594H60.941C61.166 5.53135 61.5721 5.3846 61.9002 5.38166C62.674 5.37432 63.2242 5.92317 63.2315 6.66867C63.2389 7.41416 62.699 7.97328 61.9252 7.98062C61.5971 7.98356 61.1881 7.84561 60.9571 7.51395H60.9468L60.9513 7.92632L60.6011 7.92926L60.5614 3.9347ZM61.9031 5.69718C61.3308 5.70305 60.9174 6.13449 60.9218 6.68921C60.9277 7.24393 61.3499 7.66804 61.9222 7.66217C62.4989 7.6563 62.8549 7.22485 62.8505 6.67013C62.8446 6.11542 62.4798 5.69131 61.9031 5.69718Z" fill="#CC3399"/>
<path d="M64.1658 6.40305C64.2128 6.18586 64.2437 5.99802 64.3114 5.64581L64.6483 5.71919L64.5497 6.16825L64.56 6.17118C64.7145 5.93491 65.0249 5.7368 65.4486 5.83072C65.5472 5.85273 65.6266 5.88061 65.6958 5.9173L65.5545 6.23722C65.5163 6.21227 65.4574 6.18879 65.3633 6.16825C64.8454 6.05525 64.5144 6.45294 64.4423 6.77726L64.1422 8.13911L63.8009 8.06427L64.1658 6.40305Z" fill="#CC3399"/>
<path d="M65.9443 8.61902L65.6089 8.51923L66.318 6.1492L66.6534 6.24899L65.9443 8.61902ZM66.6858 5.53138C66.5637 5.49469 66.4725 5.35822 66.5151 5.21587C66.5578 5.07352 66.7093 5.00895 66.8314 5.04564C66.9535 5.08232 67.0447 5.2188 67.0021 5.36115C66.9594 5.5035 66.8079 5.56807 66.6858 5.53138Z" fill="#CC3399"/>
<path d="M67.4404 7.90874C67.3139 8.39008 67.536 8.88463 68.0009 9.04899C68.3496 9.17226 68.6879 9.07394 68.8924 8.91104L69.0719 9.21042C68.6732 9.46136 68.2775 9.48337 67.8935 9.34689C67.2006 9.10035 66.8725 8.39595 67.1226 7.69448C67.3727 6.99301 68.073 6.65255 68.7365 6.88735C69.4426 7.14416 69.6662 7.81188 69.4382 8.44878L69.3853 8.59846L67.4404 7.90874ZM69.1219 8.20224C69.2793 7.75905 69.1043 7.35548 68.6291 7.18672C68.1995 7.0341 67.6817 7.2601 67.5448 7.64312L69.1219 8.20224Z" fill="#CC3399"/>
<path d="M70.3299 10.0527L69.9916 9.96466L71.0096 6.10217L71.348 6.19022L70.3299 10.0527Z" fill="#CC3399"/>
<path d="M71.8775 10.3771L71.5332 10.3154L72.2438 6.38397L72.588 6.44561L71.8775 10.3771Z" fill="#CC3399"/>
<path d="M74.7697 9.17528L74.7741 9.11218C74.805 8.68514 74.6152 8.45914 74.1871 8.42832C73.8973 8.40778 73.6354 8.48849 73.4103 8.66312L73.2176 8.40044C73.4618 8.18472 73.8252 8.08493 74.2901 8.11868C74.7756 8.1539 75.1728 8.45767 75.1301 9.05935L75.0492 10.16C75.036 10.3493 75.0404 10.5826 75.0507 10.7162L74.7123 10.6912C74.7006 10.568 74.7006 10.4197 74.7094 10.2891H74.6991C74.474 10.6017 74.1901 10.7176 73.7943 10.6898C73.3559 10.6575 72.9616 10.386 72.997 9.9061C73.0558 9.10484 74.0047 9.12099 74.5961 9.16354L74.7697 9.17528ZM74.5696 9.44677C74.2151 9.42183 73.4162 9.38954 73.3809 9.88556C73.3574 10.2128 73.6487 10.361 73.9282 10.3801C74.4357 10.4168 74.705 10.0763 74.7359 9.63902L74.7491 9.45998L74.5696 9.44677Z" fill="#CC3399"/>
<path d="M79.7804 9.92649L80.8632 6.81391L81.4443 6.77869L81.6664 10.512L81.2854 10.534L81.0927 7.30699H81.0824L79.9216 10.6148L79.7216 10.6265L78.1754 7.48309H78.1651L78.3578 10.7101L77.9768 10.7322L77.7546 6.99881L78.3357 6.96506L79.7804 9.92649Z" fill="#CC3399"/>
<path d="M82.7066 7.20578C82.5801 7.21899 82.4432 7.128 82.427 6.97978C82.4109 6.83303 82.5271 6.71417 82.6536 6.70096C82.7801 6.68775 82.9169 6.7802 82.9331 6.92695C82.9478 7.07371 82.8331 7.19257 82.7066 7.20578ZM83.2141 10.3389L82.8669 10.3756L82.6065 7.91606L82.9537 7.87937L83.2141 10.3389Z" fill="#CC3399"/>
<path d="M84.6516 10.1686L84.3044 10.2126L83.8013 6.25032L84.1485 6.2063L84.6516 10.1686Z" fill="#CC3399"/>
<path d="M86.0916 9.9661L85.7458 10.0175L85.1515 6.06839L85.4972 6.01703L86.0916 9.9661Z" fill="#CC3399"/>
<path d="M87.16 8.62056C87.2806 9.10337 87.7146 9.43063 88.2015 9.35285C88.5679 9.29415 88.8165 9.04614 88.918 8.804L89.2196 8.9801C88.9901 9.391 88.6547 9.60086 88.2516 9.66543C87.5248 9.78136 86.8981 9.32056 86.7789 8.58534C86.6598 7.85012 87.1114 7.21615 87.8058 7.10462C88.5487 6.99016 89.0666 7.47003 89.174 8.13775L89.199 8.29477L87.16 8.62056ZM88.7782 8.07318C88.7032 7.60945 88.3546 7.33943 87.8573 7.41867C87.4071 7.49058 87.0614 7.9367 87.1261 8.3388L88.7782 8.07318Z" fill="#CC3399"/>
<path d="M89.9803 7.67107C89.9627 7.44947 89.9377 7.26163 89.8994 6.90356L90.2422 6.87714L90.2775 7.33501L90.2878 7.33354C90.3672 7.06205 90.6056 6.78469 91.0396 6.75094C91.1396 6.7436 91.2249 6.74654 91.3 6.76268L91.2573 7.11048C91.2132 7.09874 91.1499 7.09287 91.0543 7.1002C90.5261 7.1413 90.3246 7.61824 90.3511 7.94989L90.4599 9.33962L90.1113 9.36604L89.9803 7.67107Z" fill="#CC3399"/>
<path d="M26.4514 25.3163C28.4596 21.7282 27.9844 17.5282 26.2764 13.676C29.2569 15.8802 30.1426 22.5926 28.8274 26.4096C27.6504 29.8201 24.33 29.1084 26.4514 25.3163Z" fill="#DFDFDF"/>
<path d="M5.67873 31.3243C3.1454 29.6484 1.35941 27.0964 0.497314 24.1981C4.6092 24.8071 6.2716 27.412 5.67873 31.3243Z" fill="#DFDFDF"/>
<path d="M8.51358 9.63892C5.3506 10.9289 3.51165 14.0693 2.89818 17.3683C2.38033 20.161 0.595819 19.5637 0 19.9071C0.482539 15.9609 3.59992 10.019 8.51358 9.63892Z" fill="#DFDFDF"/>
<path fill-rule="evenodd" clip-rule="evenodd" d="M18.3159 31.1365C18.3012 33.056 17.192 35.5874 18.4071 36.5956C19.3428 37.3719 20.2755 35.1956 21.2068 33.599C22.2704 31.7734 22.8147 32.1623 25.0391 31.9598C30.2044 31.4887 29.1437 30.1034 26.5632 29.6734C25.5996 29.5119 24.1932 29.3036 23.5415 27.8918C22.9236 26.552 23.5827 25.287 24.6125 23.8298C26.0086 21.8545 26.4073 20.7216 23.3517 22.4547C20.2049 24.2392 20.0342 24.6985 16.7315 22.9713C12.296 20.6526 13.645 23.0109 15.6679 24.9935C17.2817 26.574 18.3351 28.8428 18.3159 31.1365Z" fill="#0D99B7"/>
<path fill-rule="evenodd" clip-rule="evenodd" d="M5.86124 15.6058C7.32063 14.9689 9.60828 15.2654 9.9437 13.4193C11.2148 14.3364 10.5572 17.405 7.69872 18.7669C5.41695 19.8557 3.62656 16.5817 5.86124 15.6058Z" fill="#CC3399"/>
<path fill-rule="evenodd" clip-rule="evenodd" d="M14.238 29.6295C12.271 25.3385 11.4178 22.3756 13.3509 17.8512C15.6665 12.4302 14.3042 13.2829 11.6237 16.7477C9.25368 19.8118 6.32019 20.0598 1.90819 21.0166C-0.734005 21.589 -0.706053 22.6617 2.8718 22.8129C6.96309 22.9846 7.78399 25.7831 7.66483 29.2963C7.62511 30.4806 7.43974 31.6722 7.04989 32.7508C5.72879 36.402 7.37648 36.0836 8.69464 34.2389C9.35077 33.3202 9.93777 32.2856 10.232 31.0984C10.8293 28.6858 11.4898 29.3169 12.555 30.9209C16.2417 36.4666 15.6679 32.7494 14.238 29.6295Z" fill="#CC3399"/>
<path fill-rule="evenodd" clip-rule="evenodd" d="M18.4308 22.6425C17.6614 21.7987 17.7982 19.9716 18.6588 19.1895C19.7548 18.1945 20.7258 18.306 21.326 18.9077C23.418 20.9989 20.1153 24.4886 18.4308 22.6425Z" fill="#0D99B7"/>
<path d="M95 29.914C95 31.1408 93.8981 32.1446 92.552 32.1446H33.4497C32.1036 32.1446 31.0017 31.1408 31.0017 29.914C31.0017 28.6871 32.1036 27.6833 33.4497 27.6833H92.552C93.8981 27.6833 95 28.6871 95 29.914Z" fill="#CC3399"/>
<path d="M33.1759 28.9157H33.9468C34.3896 28.9157 34.7912 29.0551 34.7912 29.5115C34.7912 30.0295 34.3602 30.122 33.8747 30.122H33.5834V30.9732H33.1759V28.9157V28.9157ZM33.8306 29.808C34.063 29.808 34.3646 29.7962 34.3646 29.5174C34.3646 29.265 34.0954 29.2298 33.8762 29.2298H33.5849V29.808H33.8306Z" fill="white"/>
<path d="M35.4768 28.9161H36.995V29.2478H35.8843V29.7541H36.9362V30.0857H35.8843V30.6434H37.0524V30.9751H35.4753V28.9161H35.4768Z" fill="white"/>
<path d="M37.7793 28.9161H38.6826C39.2843 28.9161 39.8477 29.2478 39.8477 29.9449C39.8477 30.6478 39.1843 30.9736 38.634 30.9736H37.7793V28.9161ZM38.4913 30.6434C39.0033 30.6434 39.4196 30.4453 39.4196 29.9463C39.4196 29.4459 39.0577 29.2493 38.559 29.2493H38.1868V30.6449H38.4913V30.6434Z" fill="white"/>
<path d="M40.5492 28.9161H40.9567V30.9736H40.5492V28.9161Z" fill="white"/>
<path d="M42.5237 28.9161H42.8768L43.8639 30.9736H43.3975L43.1842 30.5025H42.1912L41.9838 30.9736H41.5277L42.5237 28.9161ZM43.0415 30.1899L42.6885 29.3535L42.3295 30.1899H43.0415Z" fill="white"/>
<path d="M44.6142 29.2478H43.9125V28.9161H45.7249V29.2478H45.0232V30.9736H44.6157V29.2478H44.6142Z" fill="white"/>
<path d="M46.3263 28.9161H47.1222C47.5621 28.9161 47.9769 29.0438 47.9769 29.5061C47.9769 29.8025 47.7857 30.0212 47.4458 30.0637L48.0549 30.9736H47.5635L47.0325 30.1019H46.7353V30.9736H46.3278V28.9161H46.3263ZM47.0516 29.7893C47.2811 29.7893 47.5503 29.7717 47.5503 29.5046C47.5503 29.261 47.2973 29.2317 47.0869 29.2317H46.7338V29.7893H47.0516Z" fill="white"/>
<path d="M48.679 28.9161H49.0865V30.9736H48.679V28.9161Z" fill="white"/>
<path d="M51.486 29.3989C51.3183 29.239 51.1624 29.1949 51.0035 29.1949C50.5313 29.1949 50.2164 29.5207 50.2164 29.9302C50.2164 30.3689 50.5298 30.6947 51.0035 30.6947C51.1874 30.6947 51.3654 30.6199 51.5184 30.4453L51.8553 30.661C51.6479 30.9163 51.3375 31.0279 51.0006 31.0279C50.2944 31.0279 49.7898 30.5979 49.7898 29.9551C49.7898 29.2947 50.2944 28.8647 51.0006 28.8647C51.311 28.8647 51.5773 28.9543 51.8038 29.1905L51.486 29.3989Z" fill="white"/>
<path d="M53.7352 28.9161H54.5311C54.971 28.9161 55.3859 29.0438 55.3859 29.5061C55.3859 29.8025 55.1946 30.0212 54.8548 30.0637L55.4638 30.9736H54.9725L54.4414 30.1019H54.1442V30.9736H53.7367V28.9161H53.7352ZM54.459 29.7893C54.6885 29.7893 54.9578 29.7717 54.9578 29.5046C54.9578 29.261 54.7047 29.2317 54.4943 29.2317H54.1413V29.7893H54.459Z" fill="white"/>
<path d="M56.098 28.9161H57.6163V29.2478H56.5055V29.7541H57.5574V30.0857H56.5055V30.6434H57.6736V30.9751H56.0966V28.9161H56.098Z" fill="white"/>
<path d="M59.5212 29.3593C59.4344 29.2492 59.2785 29.1964 59.1196 29.1964C58.9313 29.1964 58.7445 29.2712 58.7445 29.4606C58.7445 29.8729 59.8317 29.6381 59.8317 30.3704C59.8317 30.8121 59.4433 31.0279 58.9931 31.0279C58.7077 31.0279 58.4296 30.9486 58.2413 30.749L58.5488 30.4819C58.6488 30.6184 58.821 30.6977 59.0019 30.6977C59.1902 30.6977 59.4035 30.6052 59.4035 30.4159C59.4035 29.9654 58.3164 30.2237 58.3164 29.4884C58.3164 29.0643 58.7371 28.8662 59.1608 28.8662C59.4006 28.8662 59.6404 28.9278 59.8184 29.079L59.5212 29.3593Z" fill="white"/>
<path d="M60.5792 28.9161H62.0975V29.2478H60.9867V29.7541H62.0386V30.0857H60.9867V30.6434H62.1548V30.9751H60.5778V28.9161H60.5792Z" fill="white"/>
<path d="M63.6232 28.9161H63.9762L64.9634 30.9736H64.497L64.2837 30.5025H63.2907L63.0833 30.9736H62.6272L63.6232 28.9161ZM64.141 30.1899L63.7879 29.3535L63.429 30.1899H64.141Z" fill="white"/>
<path d="M65.5413 28.9161H66.3372C66.777 28.9161 67.1919 29.0438 67.1919 29.5061C67.1919 29.8025 67.0006 30.0212 66.6608 30.0637L67.2699 30.9736H66.7785L66.2474 30.1019H65.9502V30.9736H65.5427V28.9161H65.5413ZM66.2665 29.7893C66.496 29.7893 66.7653 29.7717 66.7653 29.5046C66.7653 29.261 66.5122 29.2317 66.3018 29.2317H65.9488V29.7893H66.2665Z" fill="white"/>
<path d="M69.4764 29.3989C69.3087 29.239 69.1527 29.1949 68.9939 29.1949C68.5216 29.1949 68.2068 29.5207 68.2068 29.9302C68.2068 30.3689 68.5201 30.6947 68.9939 30.6947C69.1778 30.6947 69.3558 30.6199 69.5088 30.4453L69.8457 30.661C69.6382 30.9163 69.3278 31.0279 68.9909 31.0279C68.2848 31.0279 67.7802 30.5979 67.7802 29.9551C67.7802 29.2947 68.2848 28.8647 68.9909 28.8647C69.3013 28.8647 69.5676 28.9543 69.7942 29.1905L69.4764 29.3989Z" fill="white"/>
<path d="M70.4447 28.9161H70.8522V29.735H71.9232V28.9161H72.3307V30.9736H71.9232V30.0667H70.8522V30.9736H70.4447V28.9161Z" fill="white"/>
<path d="M74.4476 28.9161H75.2185C75.6613 28.9161 76.063 29.0556 76.063 29.5119C76.063 30.03 75.6319 30.1224 75.1464 30.1224H74.8551V30.9736H74.4476V28.9161V28.9161ZM75.1023 29.8084C75.3347 29.8084 75.6363 29.7966 75.6363 29.5178C75.6363 29.2654 75.3671 29.2302 75.1479 29.2302H74.8566V29.8084H75.1023Z" fill="white"/>
<path d="M76.7485 28.9161H77.5444C77.9843 28.9161 78.3992 29.0438 78.3992 29.5061C78.3992 29.8025 78.2079 30.0212 77.8681 30.0637L78.4771 30.9736H77.9858L77.4547 30.1019H77.1575V30.9736H76.75V28.9161H76.7485ZM77.4738 29.7893C77.7033 29.7893 77.9725 29.7717 77.9725 29.5046C77.9725 29.261 77.7195 29.2317 77.5091 29.2317H77.156V29.7893H77.4738Z" fill="white"/>
<path d="M80.1999 28.8647C80.9149 28.853 81.421 29.283 81.421 29.9434C81.421 30.5861 80.9164 31.0161 80.1999 31.0278C79.4937 31.0278 78.9891 30.5979 78.9891 29.9551C78.9891 29.2947 79.4937 28.8647 80.1999 28.8647ZM80.2028 30.6962C80.678 30.6962 80.9928 30.3704 80.9928 29.9316C80.9928 29.5222 80.6795 29.1964 80.2028 29.1964C79.7306 29.1964 79.4158 29.5222 79.4158 29.9316C79.4158 30.3704 79.7306 30.6962 80.2028 30.6962Z" fill="white"/>
<path d="M84.1676 30.8239C83.8895 30.9574 83.5718 31.0279 83.2187 31.0279C82.5125 31.0279 82.0079 30.5979 82.0079 29.9551C82.0079 29.2947 82.5125 28.8647 83.2187 28.8647C83.5688 28.8647 83.8822 28.9323 84.122 29.123L83.8204 29.396C83.6748 29.2683 83.4511 29.1949 83.2216 29.1949C82.7494 29.1949 82.4346 29.5207 82.4346 29.9302C82.4346 30.3689 82.7479 30.6947 83.2216 30.6947C83.4291 30.6947 83.6159 30.6595 83.7586 30.5876V30.1019H83.2893V29.7702H84.1661V30.8239H84.1676Z" fill="white"/>
<path d="M84.9736 28.9161H85.7695C86.2094 28.9161 86.6243 29.0438 86.6243 29.5061C86.6243 29.8025 86.433 30.0212 86.0932 30.0637L86.7022 30.9736H86.2094L85.6783 30.1019H85.3811V30.9736H84.9736V28.9161ZM85.6974 29.7893C85.9269 29.7893 86.1962 29.7717 86.1962 29.5046C86.1962 29.261 85.9431 29.2317 85.7328 29.2317H85.3797V29.7893H85.6974Z" fill="white"/>
<path d="M88.0767 28.9161H88.4297L89.4169 30.9736H88.9505L88.7372 30.5025H87.7442L87.5368 30.9736H87.0807L88.0767 28.9161ZM88.596 30.1899L88.2429 29.3535L87.8839 30.1899H88.596Z" fill="white"/>
<path d="M90.0066 28.9161H90.6274L91.2394 30.3572L91.8573 28.9161H92.4723V30.9736H92.0839V29.2639H92.078L91.3821 30.9736H91.0967L90.4009 29.2639H90.395V30.9736H90.0066V28.9161Z" fill="white"/>
<path d="M34.4926 15.1995C34.5265 15.7043 34.5471 16.2297 34.553 16.78C34.5588 17.3303 34.5559 17.9745 34.5441 18.7127C34.5324 19.4508 34.5265 19.9762 34.5265 20.2844C34.5265 20.5823 34.5324 21.0035 34.5441 21.5464C34.5559 22.0909 34.5618 22.471 34.5618 22.6896C34.5736 23.6523 34.5441 24.4712 34.475 25.1462C34.4632 25.2607 34.4088 25.3576 34.3117 25.4383C34.2146 25.5175 34.1057 25.5527 33.9851 25.541C33.8645 25.5293 33.7644 25.475 33.6835 25.3781C33.6026 25.2812 33.5688 25.1697 33.5805 25.0435C33.6497 24.414 33.6776 23.6288 33.6673 22.6896C33.6673 22.4827 33.6614 22.1056 33.6497 21.5552C33.6379 21.0049 33.632 20.5823 33.632 20.2844C33.632 19.9645 33.6379 19.442 33.6497 18.7215C33.6614 17.9995 33.6644 17.3699 33.6585 16.8313C33.6526 16.2928 33.632 15.7718 33.5982 15.2684C33.5864 15.1422 33.6217 15.0336 33.7012 14.9426C33.7806 14.8517 33.8851 14.7988 34.0116 14.7886C34.1381 14.7768 34.247 14.812 34.3382 14.8913C34.4294 14.9705 34.4823 15.0733 34.4926 15.1995ZM40.6421 14.6668C40.1948 15.1819 39.8094 15.5663 39.4887 15.8173C39.3622 15.9318 39.0694 16.1328 38.6104 16.419L37.4041 17.2261C36.9451 17.5357 36.592 17.8014 36.3448 18.0244C36.0977 18.2475 35.9682 18.3942 35.9579 18.4632C35.9579 18.497 35.9859 18.5483 36.0447 18.6173C36.1242 18.7318 36.2624 18.858 36.4581 18.9959C36.5729 19.0884 36.7626 19.219 37.026 19.3907L37.5262 19.7517C38.0425 20.2095 38.7781 20.9433 39.7314 21.9515C40.6391 22.9142 41.3556 23.6244 41.8837 24.0823C41.9749 24.163 42.0264 24.2657 42.0382 24.3919C42.05 24.5181 42.0147 24.6267 41.9352 24.7177C41.8543 24.8102 41.7513 24.8615 41.6248 24.8718C41.4983 24.8836 41.3894 24.8483 41.2982 24.7691C40.7583 24.2995 40.0242 23.5657 39.0929 22.5693C38.1514 21.5729 37.4335 20.8626 36.9406 20.4385C36.8833 20.3812 36.745 20.2844 36.5272 20.1464L35.9079 19.7165C35.6549 19.5213 35.4651 19.3378 35.34 19.1661C35.1223 18.9035 35.0296 18.6334 35.0649 18.359C35.0988 18.0728 35.3238 17.7412 35.7372 17.3626C36.0123 17.1102 36.4037 16.8181 36.9083 16.4865L38.1308 15.6793C38.6016 15.3697 38.8708 15.1877 38.9399 15.129C39.2151 14.9001 39.5534 14.5508 39.9565 14.0812C40.0374 13.9902 40.1404 13.9374 40.2669 13.9271C40.3934 13.9154 40.5023 13.9506 40.5935 14.0299C40.6847 14.1106 40.7377 14.2133 40.748 14.3395C40.7568 14.4672 40.723 14.5758 40.6421 14.6668Z" fill="#2B388F" stroke="#2E3191" stroke-width="0.119031"/>
<path d="M44.2597 18.2578C44.2479 18.4177 44.1788 19.3085 44.0537 20.9301C43.9272 22.5517 43.864 23.7859 43.864 24.6326C43.864 24.7588 43.8213 24.8645 43.7345 24.9511C43.6477 25.0362 43.5418 25.0802 43.4153 25.0802C43.2887 25.0802 43.1828 25.0377 43.096 24.9511C43.0092 24.8645 42.9666 24.7588 42.9666 24.6326C42.9666 24.0031 42.9901 23.3265 43.0357 22.6045C43.0813 21.8825 43.1416 21.0901 43.2167 20.2257C43.2917 19.3613 43.3402 18.6819 43.3638 18.1903C43.3755 18.0758 43.427 17.976 43.5182 17.8894C43.6094 17.8043 43.7168 17.7661 43.8375 17.7779C43.9581 17.7896 44.0611 17.841 44.1479 17.932C44.2332 18.023 44.27 18.1316 44.2597 18.2578ZM43.9066 15.1907C43.9934 15.2772 44.0361 15.3829 44.0361 15.5091C44.0361 15.6353 43.9934 15.741 43.9066 15.8276C43.8198 15.9141 43.7139 15.9567 43.5874 15.9567C43.4609 15.9567 43.3549 15.9141 43.2681 15.8276C43.1813 15.741 43.1387 15.6353 43.1387 15.5091C43.1387 15.3829 43.1813 15.2772 43.2681 15.1907C43.3549 15.1041 43.4609 15.0615 43.5874 15.0615C43.7139 15.063 43.8198 15.1055 43.9066 15.1907Z" fill="#2B388F" stroke="#2E3191" stroke-width="0.119031"/>
<path d="M52.698 14.3923C52.7318 14.8384 52.7612 15.5325 52.7848 16.4717C52.8083 17.5709 52.8245 18.2474 52.8363 18.4984C52.8936 19.6782 52.9113 20.7715 52.8878 21.7797C52.876 22.5927 52.8304 23.234 52.7495 23.7036C52.7156 24.0015 52.6627 24.2539 52.595 24.4594C52.5023 24.7338 52.3817 24.929 52.2331 25.0434C51.9462 25.2606 51.5093 25.3414 50.9238 25.2841C50.4765 25.2386 49.9704 25.1242 49.4085 24.9407C48.8803 24.769 48.386 24.568 47.927 24.339C47.468 24.1101 47.1399 23.8929 46.9457 23.686C46.578 23.2971 46.3337 22.8334 46.2131 22.2948C46.0925 21.7562 46.0748 21.2353 46.1616 20.7319C46.2484 20.2286 46.4058 19.7589 46.6353 19.3231C46.7501 19.1059 46.8472 18.9342 46.9281 18.808C47.0075 18.6818 47.1208 18.5248 47.2635 18.3355C47.4077 18.1462 47.5739 17.9891 47.7637 17.8629C47.9535 17.7367 48.1624 17.6399 48.3919 17.5709C49.0466 17.3757 50.1485 17.3302 51.6991 17.4329C51.7785 17.4447 51.8476 17.4667 51.9065 17.5019V16.9868V16.4879C51.883 15.6631 51.8491 14.9983 51.8035 14.495C51.7917 14.3688 51.827 14.2573 51.9065 14.1604C51.9859 14.0635 52.0874 14.0092 52.2081 13.9975C52.3287 13.9858 52.4376 14.021 52.5347 14.1002C52.6318 14.1809 52.6862 14.2778 52.698 14.3923ZM51.6814 24.3405C51.7049 24.295 51.727 24.2378 51.7505 24.1688C51.7962 24.0309 51.8359 23.8372 51.8712 23.5847C51.9403 23.1489 51.98 22.5428 51.9918 21.7636C52.0154 20.7554 51.9977 19.6782 51.9403 18.5336C51.9403 18.4426 51.9344 18.3443 51.9227 18.2415C51.8418 18.3105 51.7447 18.3384 51.6299 18.3267C50.1941 18.2357 49.1951 18.2694 48.6332 18.4294C48.3919 18.4984 48.183 18.6392 48.005 18.8506C47.827 19.0633 47.6343 19.3569 47.4283 19.7355C47.1296 20.2506 46.9884 20.8346 47.0061 21.4877C47.0237 22.1407 47.2209 22.6676 47.6004 23.0682C47.7152 23.1944 47.9711 23.3573 48.3669 23.5583C48.7626 23.7594 49.2025 23.934 49.685 24.0822C50.1897 24.2539 50.6325 24.3567 51.012 24.3919C51.343 24.4256 51.5667 24.408 51.6814 24.3405Z" fill="#2B388F" stroke="#2E3191" stroke-width="0.119031"/>
<path d="M58.9668 19.1691C58.2666 18.8492 57.6928 18.654 57.2441 18.585C56.6247 18.5058 56.1878 18.6481 55.9348 19.015C55.8656 19.1075 55.8318 19.1779 55.8318 19.2293C55.8318 19.2806 55.8553 19.3584 55.9009 19.4611C55.9583 19.5639 56.0275 19.6681 56.1069 19.7708C56.1863 19.8735 56.2584 19.9601 56.3217 20.0291C56.3849 20.098 56.4909 20.1831 56.6409 20.2873L56.9337 20.5104L57.3132 20.7511C57.5089 20.889 57.634 20.9741 57.6928 21.0094C58.0032 21.2163 58.2577 21.4041 58.4593 21.5758C58.6608 21.7475 58.8638 21.9911 59.0713 22.3066C59.2787 22.6221 59.4096 22.9626 59.467 23.3295C59.5244 23.7419 59.3405 24.0911 58.9153 24.3773C58.6402 24.5607 58.2666 24.7089 57.7958 24.8234C57.4059 24.9261 56.9999 24.9951 56.5821 25.0303C56.1628 25.0641 55.8436 25.0641 55.6258 25.0303C55.4419 24.9848 55.1095 24.8586 54.6269 24.6517C54.5122 24.5945 54.4313 24.5079 54.3856 24.3934C54.34 24.279 54.343 24.1674 54.3945 24.0588C54.446 23.9502 54.5298 23.8725 54.6446 23.827C54.7593 23.7815 54.8682 23.7815 54.9712 23.827C55.3963 24.0104 55.6714 24.1131 55.798 24.1366C55.9465 24.1704 56.1966 24.1733 56.5468 24.1454C56.8969 24.1175 57.2382 24.0574 57.5722 23.9649C57.94 23.8739 58.221 23.7653 58.4166 23.6391C58.5314 23.5599 58.5829 23.5012 58.5711 23.4674C58.5137 23.1123 58.3754 22.8056 58.1577 22.5488C57.94 22.2905 57.6178 22.0249 57.1926 21.7504C57.147 21.7167 57.0323 21.6389 56.8484 21.5186C56.6645 21.3982 56.5291 21.3131 56.4438 21.2603C56.3585 21.2089 56.2349 21.1194 56.0731 20.9947C55.9127 20.8685 55.7862 20.7569 55.6935 20.6601C55.6008 20.5632 55.4978 20.4429 55.3831 20.2991C55.2683 20.1553 55.1771 20.0159 55.108 19.8779C54.9815 19.6255 54.9241 19.3907 54.9359 19.1735C54.9594 18.9563 55.0506 18.7332 55.211 18.5029C55.67 17.8381 56.3879 17.5754 57.3633 17.7119C57.9032 17.7808 58.5637 17.9922 59.3434 18.3473C59.4582 18.4045 59.5362 18.4911 59.5759 18.6056C59.6156 18.72 59.6097 18.8345 59.5582 18.949C59.5067 19.0634 59.4229 19.1412 59.3081 19.1808C59.1963 19.2175 59.0816 19.2146 58.9668 19.1691Z" fill="#2B388F" stroke="#2E3191" stroke-width="0.119031"/>
<path d="M65.7358 13.4472C66.1036 13.4355 66.7348 13.4413 67.6307 13.4648C68.4119 13.4883 69.0254 13.4824 69.4741 13.4472C69.6006 13.4355 69.7094 13.4707 69.8007 13.5499C69.8919 13.6307 69.9434 13.7334 69.9551 13.8596C69.9669 13.9858 69.9316 14.0944 69.8521 14.1854C69.7712 14.2778 69.6683 14.3292 69.5417 14.3395C69.0474 14.3732 68.3986 14.3791 67.5954 14.3571C66.723 14.3336 66.1139 14.3292 65.7697 14.3395H65.6667V14.3571C65.6667 15.0673 65.6152 15.9889 65.5122 17.1233L65.4269 17.9818C65.8285 18.1535 66.1993 18.2944 66.5376 18.403C66.876 18.5116 67.2379 18.6011 67.6233 18.6686C68.0073 18.7376 68.381 18.7581 68.7429 18.7288C69.1048 18.7009 69.4461 18.6231 69.7683 18.4969C69.883 18.4514 69.9978 18.4514 70.1125 18.4969C70.2273 18.5424 70.3082 18.6231 70.3538 18.7376C70.3994 18.8521 70.3994 18.9665 70.3538 19.081C70.3082 19.1954 70.2273 19.2762 70.1125 19.3217C68.8488 19.8265 67.2644 19.6944 65.3592 18.9269C65.3254 19.2365 65.3019 19.5344 65.2901 19.8206C65.2665 20.3254 65.2783 20.9829 65.3239 21.7959C65.3931 22.8041 65.4269 23.4909 65.4269 23.8577C65.4269 23.9839 65.3842 24.0896 65.2974 24.1762C65.2106 24.2613 65.1047 24.3053 64.9782 24.3053C64.8517 24.3053 64.7458 24.2628 64.659 24.1762C64.5736 24.0896 64.5295 23.9839 64.5295 23.8577C64.5295 23.5143 64.4957 22.8495 64.4265 21.8648C64.3809 20.9946 64.3691 20.302 64.3927 19.7854C64.4162 19.373 64.4898 18.4573 64.6163 17.0367C64.7193 15.8803 64.7708 14.9866 64.7708 14.3571C64.7708 14.2309 64.8134 14.1252 64.9002 14.0386C64.9856 13.952 65.093 13.9095 65.2195 13.9095H65.3063C65.3063 13.7833 65.346 13.6747 65.4269 13.5837C65.5063 13.4927 65.6093 13.4472 65.7358 13.4472Z" fill="#2B388F" stroke="#2E3191" stroke-width="0.119031"/>
<path d="M72.6076 18.2578C72.5958 18.4177 72.5267 19.3085 72.4002 20.9301C72.2737 22.5517 72.2104 23.7859 72.2104 24.6326C72.2104 24.7588 72.1677 24.8645 72.0809 24.9511C71.9956 25.0362 71.8882 25.0802 71.7617 25.0802C71.6352 25.0802 71.5292 25.0377 71.4425 24.9511C71.3557 24.8645 71.313 24.7588 71.313 24.6326C71.313 24.0031 71.3365 23.3265 71.3821 22.6045C71.4277 21.8825 71.4881 21.0901 71.5631 20.2257C71.6381 19.3613 71.6867 18.6819 71.7102 18.1903C71.722 18.0758 71.7735 17.976 71.8647 17.8894C71.9559 17.8043 72.0633 17.7661 72.1839 17.7779C72.3045 17.7896 72.4075 17.841 72.4943 17.932C72.5826 18.023 72.6194 18.1316 72.6076 18.2578ZM72.2545 15.1907C72.3413 15.2772 72.384 15.3829 72.384 15.5091C72.384 15.6353 72.3413 15.741 72.2545 15.8276C72.1692 15.9141 72.0618 15.9567 71.9353 15.9567C71.8088 15.9567 71.7028 15.9141 71.616 15.8276C71.5307 15.741 71.4866 15.6353 71.4866 15.5091C71.4866 15.3829 71.5292 15.2772 71.616 15.1907C71.7028 15.1041 71.8088 15.0615 71.9353 15.0615C72.0618 15.063 72.1692 15.1055 72.2545 15.1907Z" fill="#2B388F" stroke="#2E3191" stroke-width="0.119031"/>
<path d="M75.8632 19.6664C76.2987 18.7389 76.8445 18.1945 77.4991 18.0345C78.1876 17.8628 78.9114 18.1373 79.6691 18.8593C79.7603 18.9517 79.8074 19.0574 79.8074 19.1777C79.8074 19.2981 79.7647 19.4037 79.6779 19.4962C79.5926 19.5886 79.4881 19.6341 79.3675 19.6341C79.2469 19.6341 79.1409 19.5945 79.0483 19.5138C78.5201 19.0104 78.0729 18.8035 77.7051 18.896C77.3373 18.9884 76.9989 19.3714 76.6885 20.0465C76.6312 20.161 76.5444 20.2387 76.4296 20.2784C76.3149 20.318 76.2001 20.3151 76.0854 20.2696C75.9471 20.2006 75.8617 20.092 75.8264 19.9438C75.7573 22.1436 75.9294 24.2671 76.3428 26.3172C76.3766 26.4316 76.3605 26.5402 76.2913 26.643C76.2222 26.7457 76.128 26.8117 76.0074 26.8411C75.8868 26.8689 75.7749 26.8499 75.672 26.7809C75.569 26.7119 75.5057 26.6151 75.4822 26.4889C74.9187 23.7857 74.7819 20.9343 75.0688 17.9333C75.0806 17.8188 75.135 17.722 75.2321 17.6413C75.3292 17.5605 75.4395 17.5268 75.5587 17.5385C75.6793 17.5503 75.7794 17.6046 75.8603 17.7014C75.9397 17.7983 75.975 17.9098 75.9632 18.036C75.9059 18.7125 75.8662 19.279 75.8426 19.7369C75.8573 19.7119 75.8632 19.6899 75.8632 19.6664Z" fill="#2B388F" stroke="#2E3191" stroke-width="0.119031"/>
<path d="M84.8531 19.1691C84.1528 18.8492 83.579 18.654 83.1303 18.585C82.511 18.5058 82.074 18.6481 81.821 19.015C81.7519 19.1075 81.718 19.1779 81.718 19.2293C81.718 19.2806 81.7416 19.3584 81.7872 19.4611C81.8445 19.5639 81.9137 19.6681 81.9931 19.7708C82.0726 19.8735 82.1447 19.9601 82.2079 20.0291C82.2712 20.098 82.3771 20.1831 82.5272 20.2873L82.8199 20.5104L83.1995 20.7511C83.3951 20.889 83.5202 20.9741 83.579 21.0094C83.8895 21.2163 84.144 21.4041 84.3455 21.5758C84.5471 21.7475 84.7501 21.9911 84.9575 22.3066C85.1649 22.6221 85.2959 22.9626 85.3533 23.3295C85.4106 23.7419 85.2267 24.0911 84.8016 24.3773C84.5265 24.5607 84.1528 24.7089 83.682 24.8234C83.2922 24.9261 82.8861 24.9951 82.4683 25.0303C82.049 25.0641 81.7298 25.0641 81.5121 25.0303C81.3282 24.9848 80.9957 24.8586 80.5131 24.6517C80.3984 24.5945 80.3175 24.5079 80.2719 24.3934C80.2263 24.279 80.2292 24.1674 80.2807 24.0588C80.3322 23.9502 80.4161 23.8725 80.5308 23.827C80.6456 23.7815 80.7544 23.7815 80.8574 23.827C81.2826 24.0104 81.5577 24.1131 81.6842 24.1366C81.8328 24.1704 82.0829 24.1733 82.433 24.1454C82.7831 24.1175 83.1244 24.0574 83.4584 23.9649C83.8262 23.8739 84.1072 23.7653 84.3028 23.6391C84.4176 23.5599 84.4691 23.5012 84.4573 23.4674C84.3999 23.1123 84.2617 22.8056 84.0439 22.5488C83.8262 22.2905 83.504 22.0249 83.0788 21.7504C83.0332 21.7167 82.9185 21.6389 82.7346 21.5186C82.5507 21.3982 82.4154 21.3131 82.33 21.2603C82.2447 21.2089 82.1211 21.1194 81.9593 20.9947C81.7989 20.8685 81.6724 20.7569 81.5797 20.6601C81.4871 20.5632 81.3841 20.4429 81.2693 20.2991C81.1546 20.1553 81.0634 20.0159 80.9942 19.8779C80.8677 19.6255 80.8103 19.3907 80.8221 19.1735C80.8456 18.9563 80.9368 18.7332 81.0972 18.5029C81.5562 17.8381 82.2741 17.5754 83.2495 17.7119C83.7894 17.7808 84.45 17.9922 85.2297 18.3473C85.3444 18.4045 85.4224 18.4911 85.4621 18.6056C85.5018 18.72 85.496 18.8345 85.4445 18.949C85.393 19.0634 85.3091 19.1412 85.1944 19.1808C85.0826 19.2175 84.9678 19.2146 84.8531 19.1691Z" fill="#2B388F" stroke="#2E3191" stroke-width="0.119031"/>
<path d="M88.4177 18.8257C88.2691 18.8257 88.1426 18.8198 88.0381 18.8081C87.8542 18.8081 87.7056 18.7905 87.5909 18.7567C87.51 18.745 87.4408 18.723 87.3835 18.6877C87.2452 18.6188 87.154 18.5219 87.1084 18.3957C87.0392 18.1785 87.0848 17.9951 87.2466 17.8454C87.304 17.7764 87.3849 17.7221 87.4879 17.6825C87.5909 17.6429 87.6483 17.6223 87.66 17.6223C88.2 17.2217 88.6531 16.9634 89.0209 16.849C89.1356 16.8152 89.2474 16.8255 89.3563 16.8827C89.4652 16.9399 89.5402 17.0265 89.5799 17.141C89.6196 17.2555 89.6108 17.367 89.5549 17.4756C89.4975 17.5842 89.4107 17.662 89.296 17.7074C89.1238 17.7647 88.9576 17.8337 88.7972 17.9129H89.1077L90.2449 17.8263C90.6803 17.7926 90.9216 17.775 90.9687 17.775C91.0952 17.775 91.2041 17.8146 91.2953 17.8953C91.3865 17.976 91.4336 18.0787 91.4336 18.2049C91.4336 18.3311 91.3938 18.4397 91.3129 18.5307C91.232 18.6232 91.129 18.6687 91.0025 18.6687C90.9451 18.6687 90.7186 18.6863 90.3228 18.72C89.9271 18.7538 89.5902 18.7773 89.3151 18.789C89.2239 20.3813 89.246 21.6639 89.3842 22.6383C89.499 23.4395 89.677 23.9561 89.9183 24.185C89.9874 24.254 90.0727 24.2819 90.1772 24.2702C90.3611 24.2467 90.5847 24.1219 90.8495 23.8915C90.9407 23.8123 91.0496 23.7771 91.1761 23.7888C91.3026 23.8005 91.4056 23.8519 91.4865 23.9429C91.566 24.0353 91.6013 24.1439 91.5895 24.2687C91.5777 24.3949 91.5262 24.4976 91.435 24.5783C91.0334 24.9217 90.6538 25.1169 90.2978 25.1624C89.908 25.2079 89.5681 25.0934 89.2813 24.819C88.9017 24.4521 88.6442 23.7653 88.506 22.7571C88.3544 21.7167 88.3265 20.4062 88.4177 18.8257Z" fill="#2B388F" stroke="#2E3191" stroke-width="0.119031"/>
<path fill-rule="evenodd" clip-rule="evenodd" d="M24.0426 12.0061C20.4029 14.09 14.9067 13.1669 11.7805 10.6281C10.2799 9.41007 10.5609 9.37925 12.1674 8.98155C13.5547 8.63816 14.3741 8.3696 16.0071 9.59938C16.9781 10.3302 17.9682 10.8673 18.8759 11.0889C21.037 11.6157 22.67 11.5702 24.1544 11.0258C26.9996 9.98093 27.0849 10.2642 24.0426 12.0061Z" fill="#90278E"/>
<path fill-rule="evenodd" clip-rule="evenodd" d="M19.2717 6.54113C20.0735 8.22876 21.8904 9.70508 23.8264 9.78139C25.2402 9.83715 26.1288 9.46147 23.8823 10.2862C22.5465 10.7764 21.0562 10.8116 19.0613 10.3258C18.3125 10.1439 17.4887 9.70948 16.6663 9.11221C14.6743 7.66818 16.528 7.16189 17.9697 5.96146C19.3497 4.80947 18.5288 4.97676 19.2717 6.54113Z" fill="#00ADEE"/>
<path fill-rule="evenodd" clip-rule="evenodd" d="M12.7148 2.92362C14.289 3.57959 15.6454 3.83934 17.1445 3.94207C18.5391 4.03746 18.8157 3.8863 17.7388 5.18652C17.2401 5.78819 16.6296 6.29742 15.9469 6.723C14.3051 7.74732 12.8531 5.6884 12.016 3.89217C11.2245 2.19573 11.1436 2.26911 12.7148 2.92362Z" fill="#BE1E2D"/>
<path fill-rule="evenodd" clip-rule="evenodd" d="M10.9553 6.93578C11.0612 6.29888 11.1436 5.58861 11.17 4.85926C11.2112 3.69112 11.0303 3.67498 11.6644 4.70517C12.0071 5.26136 12.4249 5.86744 12.7942 6.36492C13.4165 7.19993 13.8843 7.75172 12.8707 8.03348C12.5323 8.1274 12.191 8.21105 11.8483 8.28296C10.1932 8.62782 10.7125 8.38715 10.9553 6.93578Z" fill="#F6921E"/>
<path d="M37.0142 37.4531C36.795 37.4531 36.6626 37.3049 36.6626 37.1068V34.229C36.6626 34.025 36.795 33.8827 37.0142 33.8827H37.8675C38.3677 33.8827 38.7502 34.0206 39.0209 34.2951C39.2916 34.5695 39.4446 34.9364 39.4696 35.3898C39.4799 35.5835 39.4799 35.767 39.4696 35.9445C39.4446 36.398 39.2916 36.7649 39.0209 37.0393C38.7502 37.3137 38.3677 37.4517 37.8675 37.4517H37.0142V37.4531ZM39.0518 35.406C39.0164 34.7089 38.6281 34.2863 37.8675 34.2863H37.0819V37.051H37.8675C38.6236 37.051 39.0106 36.6328 39.0518 35.9357C39.0621 35.7479 39.0621 35.5747 39.0518 35.406Z" fill="#2B388F" stroke="#2E3191" stroke-width="0.147528"/>
<path d="M42.2735 37.0475C42.2735 37.1238 42.2426 37.1795 42.1867 37.2162C42.0999 37.2823 41.9572 37.3439 41.763 37.4099C41.5747 37.4716 41.3643 37.5009 41.1451 37.5009C40.4919 37.5009 40.1241 37.159 40.1241 36.6351C40.1241 36.1611 40.4919 35.8104 41.151 35.8104C41.3599 35.8104 41.5997 35.8456 41.866 35.9175V35.7091C41.866 35.3011 41.6615 35.1236 41.2275 35.1236C41.0583 35.1236 40.8553 35.1691 40.6199 35.2556C40.4566 35.3173 40.3242 35.2351 40.3242 35.0971C40.3242 35.0106 40.3698 34.9445 40.4566 34.9034C40.6817 34.7963 40.9524 34.7405 41.2687 34.7405C41.9013 34.7405 42.275 35.0458 42.275 35.693V37.0475H42.2735ZM41.8645 36.9403V36.2726C41.5732 36.1963 41.3334 36.1611 41.1554 36.1611C40.7935 36.1611 40.5375 36.3401 40.5375 36.6248C40.5375 36.9609 40.7567 37.1296 41.1907 37.1296C41.5526 37.1282 41.7821 37.021 41.8645 36.9403Z" fill="#2B388F" stroke="#2E3191" stroke-width="0.147528"/>
<path d="M43.911 37.4995C43.3858 37.4995 43.1254 37.1634 43.1254 36.6586V34.4426C43.1254 34.3252 43.2122 34.2343 43.3299 34.2343C43.4475 34.2343 43.5388 34.3252 43.5388 34.4426V34.8609H44.3096C44.4112 34.8609 44.5038 34.9475 44.5038 35.0487C44.5038 35.15 44.4126 35.2366 44.3096 35.2366H43.5388V36.6733C43.5388 36.9433 43.6667 37.1164 43.9316 37.1164C43.9933 37.1164 44.1302 37.0856 44.3405 37.0255C44.5038 36.9844 44.6054 37.0768 44.6054 37.2133C44.6054 37.3101 44.5494 37.3762 44.4376 37.4114C44.289 37.4701 44.111 37.4995 43.911 37.4995Z" fill="#2B388F" stroke="#2E3191" stroke-width="0.147528"/>
<path d="M47.2257 37.0475C47.2257 37.1238 47.1948 37.1795 47.1389 37.2162C47.0521 37.2823 46.9094 37.3439 46.7152 37.4099C46.5269 37.4716 46.3165 37.5009 46.0973 37.5009C45.4441 37.5009 45.0763 37.159 45.0763 36.6351C45.0763 36.1611 45.4441 35.8104 46.1032 35.8104C46.3121 35.8104 46.5519 35.8456 46.8181 35.9175V35.7091C46.8181 35.3011 46.6137 35.1236 46.1797 35.1236C46.0105 35.1236 45.8075 35.1691 45.5721 35.2556C45.4088 35.3173 45.2764 35.2351 45.2764 35.0971C45.2764 35.0106 45.322 34.9445 45.4088 34.9034C45.6339 34.7963 45.9046 34.7405 46.2209 34.7405C46.8534 34.7405 47.2271 35.0458 47.2271 35.693V37.0475H47.2257ZM46.8167 36.9403V36.2726C46.5254 36.1963 46.2856 36.1611 46.1076 36.1611C45.7457 36.1611 45.4897 36.3401 45.4897 36.6248C45.4897 36.9609 45.7089 37.1296 46.1429 37.1296C46.5048 37.1282 46.7358 37.021 46.8167 36.9403Z" fill="#2B388F" stroke="#2E3191" stroke-width="0.147528"/>
<path d="M51.9786 37.4747C51.9168 37.4747 51.8668 37.4497 51.8256 37.4028L50.8649 36.2214C50.7678 36.104 50.706 36.0585 50.5795 36.0585H49.9616V37.2604C49.9616 37.3778 49.8601 37.4747 49.7527 37.4747C49.6453 37.4747 49.5438 37.3778 49.5438 37.2604V34.2256C49.5438 34.0275 49.6718 33.8837 49.891 33.8837H50.9326C51.2592 33.8837 51.5343 33.9805 51.755 34.1742C51.9742 34.3679 52.0875 34.638 52.0875 34.9784C52.0875 35.564 51.755 35.8956 51.2195 35.9822L52.1492 37.1283C52.1801 37.1635 52.1949 37.2046 52.1949 37.256C52.1919 37.3734 52.0948 37.4747 51.9786 37.4747ZM49.9616 35.6623H50.8811C51.4019 35.6623 51.6623 35.4334 51.6623 34.9799C51.6623 34.547 51.4122 34.2872 50.9061 34.2872H49.9616V35.6623Z" fill="#2B388F" stroke="#2E3191" stroke-width="0.147528"/>
<path d="M55.1179 35.9981C55.1179 36.1962 55.0164 36.293 54.8163 36.293H53.2893V36.3752C53.2893 36.8434 53.5953 37.1236 54.0498 37.1236C54.2176 37.1236 54.422 37.0782 54.6721 36.9916C54.8413 36.9255 54.9678 37.0268 54.9678 37.1545C54.9678 37.2308 54.9325 37.2924 54.856 37.3379C54.6927 37.4348 54.3455 37.5008 54.044 37.5008C53.3496 37.5008 52.9215 37.0738 52.8847 36.406C52.87 36.1668 52.8744 35.9628 52.8906 35.7956C52.9465 35.144 53.3908 34.7419 54.019 34.7419C54.3514 34.7419 54.6162 34.8431 54.8148 35.053C55.0135 35.257 55.1164 35.5211 55.1164 35.8469V35.9981H55.1179ZM54.6486 35.9467C54.6898 35.9467 54.7104 35.9262 54.7148 35.8851C54.7398 35.4213 54.4691 35.1117 54.0248 35.1117C53.5349 35.1117 53.2746 35.4331 53.2893 35.9467H54.6486Z" fill="#2B388F" stroke="#2E3191" stroke-width="0.147528"/>
<path d="M56.9717 35.9673C57.4262 36.0847 57.6513 36.3239 57.6513 36.6849C57.6513 37.1795 57.2585 37.4994 56.6612 37.4994C56.289 37.4994 55.9816 37.4025 55.7521 37.2147C55.6697 37.1487 55.655 37.021 55.7109 36.9403C55.7874 36.839 55.8845 36.8229 55.9963 36.8992C56.2052 37.0577 56.3641 37.1281 56.6951 37.1281C57.0379 37.1281 57.2409 36.9491 57.2409 36.7055C57.2409 36.5279 57.1026 36.4046 56.8319 36.3386C56.5921 36.2828 56.47 36.2564 56.4641 36.252C55.9845 36.1302 55.7447 35.891 55.7447 35.5285C55.7447 35.0443 56.1331 34.739 56.6995 34.739C56.9952 34.739 57.2409 34.8109 57.4292 34.9577C57.5263 35.034 57.5204 35.1822 57.4542 35.2424C57.3821 35.3246 57.2909 35.3334 57.1791 35.2673C57.0055 35.1661 56.8422 35.1147 56.6833 35.1147C56.3258 35.1147 56.1478 35.2468 56.1478 35.5124C56.1478 35.6797 56.2552 35.7824 56.5465 35.8631L56.8069 35.9248L56.9717 35.9673Z" fill="#2B388F" stroke="#2E3191" stroke-width="0.147528"/>
<path d="M60.5455 36.4707C60.5308 36.7715 60.4131 37.0151 60.1983 37.2088C59.9894 37.4025 59.7231 37.4994 59.4068 37.4994C59.0949 37.4994 58.8301 37.4025 58.6153 37.2088C58.4005 37.0151 58.2843 36.7715 58.2681 36.4707C58.2534 36.2315 58.2534 35.9923 58.2681 35.7472C58.2828 35.4522 58.4005 35.213 58.6109 35.0237C58.8257 34.8359 59.0905 34.739 59.4068 34.739C59.7231 34.739 59.9894 34.83 60.1983 35.0193C60.4131 35.2071 60.5293 35.4464 60.5455 35.7472C60.5602 35.9923 60.5602 36.2315 60.5455 36.4707ZM58.6815 36.4457C58.7168 36.8478 58.9978 37.1134 59.4068 37.1134C59.8158 37.1134 60.0953 36.8493 60.1321 36.4457C60.1468 36.2271 60.1468 36.0025 60.1321 35.778C60.1071 35.3906 59.8305 35.1264 59.4068 35.1264C58.9831 35.1264 58.708 35.3906 58.6815 35.778C58.6668 36.0025 58.6668 36.2271 58.6815 36.4457Z" fill="#2B388F" stroke="#2E3191" stroke-width="0.147528"/>
<path d="M61.3265 34.9899C61.3265 34.8725 61.4133 34.7756 61.531 34.7756C61.6487 34.7756 61.7399 34.8725 61.7399 34.9899V36.4662C61.7399 36.8683 61.9944 37.1075 62.424 37.1075C62.705 37.1075 62.9404 37.0459 63.1287 36.9197V34.9899C63.1287 34.8725 63.2155 34.7756 63.3332 34.7756C63.4509 34.7756 63.5421 34.8725 63.5421 34.9899V37.0268C63.5421 37.1031 63.5112 37.1589 63.4553 37.1956C63.164 37.3995 62.8168 37.5008 62.424 37.5008C61.7546 37.5008 61.3265 37.1193 61.3265 36.4618V34.9899V34.9899Z" fill="#2B388F" stroke="#2E3191" stroke-width="0.147528"/>
<path d="M65.8796 34.99C65.8796 35.0868 65.8031 35.1778 65.6751 35.1778C65.6501 35.1778 65.5883 35.1719 65.5015 35.1573C65.4147 35.1426 65.3382 35.1367 65.272 35.1367C64.9969 35.1426 64.8586 35.2952 64.8586 35.5946V37.2646C64.8586 37.382 64.7674 37.473 64.6497 37.473C64.532 37.473 64.4408 37.382 64.4408 37.2646V35.5491C64.4408 35.0443 64.7424 34.739 65.2735 34.739C65.4515 34.739 65.6001 34.7596 65.7178 34.7948C65.8237 34.8212 65.8796 34.8872 65.8796 34.99Z" fill="#2B388F" stroke="#2E3191" stroke-width="0.147528"/>
<path d="M68.1012 36.6805C68.1424 36.5895 68.2086 36.5426 68.2998 36.5426C68.4072 36.5426 68.494 36.6292 68.494 36.751C68.494 36.9036 68.3969 37.0665 68.2027 37.2397C68.0144 37.4128 67.7584 37.4994 67.4421 37.4994C67.1199 37.4994 66.8492 37.4025 66.6403 37.2088C66.4314 37.0107 66.3137 36.7656 66.2975 36.4707C66.2828 36.2315 66.2828 35.9864 66.2975 35.7472C66.3122 35.4464 66.4299 35.2071 66.6403 35.0193C66.8551 34.8315 67.1199 34.739 67.4421 34.739C67.7584 34.739 68.0085 34.8256 68.1983 35.0032C68.3866 35.1763 68.4837 35.3392 68.4837 35.4874C68.4837 35.6092 68.3969 35.6958 68.2895 35.6958C68.1983 35.6958 68.1306 35.6503 68.0909 35.5579C67.9732 35.2732 67.729 35.125 67.448 35.125C67.0184 35.125 66.7492 35.3803 66.7124 35.7721C66.6977 35.9659 66.6977 36.1904 66.7124 36.4443C66.7477 36.8361 67.014 37.112 67.448 37.112C67.729 37.1134 67.9835 36.9652 68.1012 36.6805Z" fill="#2B388F" stroke="#2E3191" stroke-width="0.147528"/>
<path d="M71.3727 35.9981C71.3727 36.1962 71.2711 36.293 71.0711 36.293H69.544V36.3752C69.544 36.8434 69.85 37.1236 70.3046 37.1236C70.4723 37.1236 70.6768 37.0782 70.9269 36.9916C71.0946 36.9255 71.2226 37.0268 71.2226 37.1545C71.2226 37.2308 71.1873 37.2924 71.1108 37.3379C70.9475 37.4348 70.6003 37.5008 70.2987 37.5008C69.6043 37.5008 69.1762 37.0738 69.1394 36.406C69.1247 36.1668 69.1291 35.9628 69.1439 35.7956C69.1998 35.144 69.6441 34.7419 70.2722 34.7419C70.6047 34.7419 70.8695 34.8431 71.0681 35.053C71.2667 35.257 71.3697 35.5211 71.3697 35.8469V35.9981H71.3727ZM70.9034 35.9467C70.9445 35.9467 70.9651 35.9262 70.9696 35.8851C70.9946 35.4213 70.7239 35.1117 70.2811 35.1117C69.7912 35.1117 69.5308 35.4331 69.5455 35.9467H70.9034Z" fill="#2B388F" stroke="#2E3191" stroke-width="0.147528"/>
<path d="M75.8306 36.4971C75.8659 36.4106 75.9321 36.3651 76.0248 36.3651C76.1219 36.3651 76.2234 36.456 76.2234 36.5632C76.2234 36.5881 76.2175 36.6189 76.2087 36.6556C76.1072 36.9095 75.938 37.1135 75.6982 37.272C75.4584 37.4305 75.198 37.5068 74.9067 37.5068C74.5036 37.5068 74.1667 37.3747 73.896 37.1047C73.6253 36.8347 73.4767 36.4942 73.4517 36.0862C73.4311 35.8059 73.4311 35.5315 73.4517 35.2615C73.4826 34.8535 73.6312 34.5175 73.896 34.2474C74.1667 33.9774 74.5036 33.8395 74.9067 33.8395C75.198 33.8395 75.4584 33.9158 75.6982 34.0743C75.938 34.2269 76.1072 34.4309 76.2087 34.6848C76.219 34.72 76.2234 34.7508 76.2234 34.7816C76.2234 34.8887 76.1219 34.9753 76.0248 34.9753C75.9336 34.9753 75.8659 34.9298 75.8306 34.8433C75.6717 34.4764 75.3142 34.243 74.9067 34.243C74.6154 34.243 74.38 34.3399 74.1917 34.5336C74.0034 34.7273 73.896 34.9768 73.8695 35.282C73.8548 35.5418 73.8548 35.8059 73.8695 36.0657C73.8945 36.3709 74.0019 36.6204 74.1917 36.8141C74.38 37.0078 74.6154 37.1047 74.9067 37.1047C75.3142 37.1032 75.6717 36.864 75.8306 36.4971Z" fill="#2B388F" stroke="#2E3191" stroke-width="0.147528"/>
<path d="M79.0835 35.9981C79.0835 36.1962 78.982 36.293 78.7819 36.293H77.2548V36.3752C77.2548 36.8434 77.5608 37.1236 78.0154 37.1236C78.1846 37.1236 78.3876 37.0782 78.6377 36.9916C78.8054 36.9255 78.9334 37.0268 78.9334 37.1545C78.9334 37.2308 78.8981 37.2924 78.8216 37.3379C78.6583 37.4348 78.3111 37.5008 78.0095 37.5008C77.3151 37.5008 76.887 37.0738 76.8503 36.406C76.8355 36.1668 76.84 35.9628 76.8547 35.7956C76.9106 35.144 77.3549 34.7419 77.9831 34.7419C78.3155 34.7419 78.5803 34.8431 78.7789 35.053C78.9775 35.257 79.0805 35.5211 79.0805 35.8469V35.9981H79.0835ZM78.6127 35.9467C78.6539 35.9467 78.6745 35.9262 78.6789 35.8851C78.7039 35.4213 78.4332 35.1117 77.9904 35.1117C77.5005 35.1117 77.2401 35.4331 77.2548 35.9467H78.6127Z" fill="#2B388F" stroke="#2E3191" stroke-width="0.147528"/>
<path d="M82.0593 37.2603C82.0593 37.3821 81.9769 37.4745 81.8548 37.4745C81.7371 37.4745 81.6459 37.3835 81.6459 37.2603V35.7986C81.6459 35.3554 81.3546 35.1309 80.9618 35.1309C80.6808 35.1309 80.4455 35.1867 80.2571 35.2997V37.2603C80.2571 37.3821 80.1704 37.4745 80.0527 37.4745C79.935 37.4745 79.8438 37.3835 79.8438 37.2603V35.1984C79.8438 35.1221 79.8746 35.0605 79.935 35.015C80.1189 34.877 80.5014 34.7405 80.9721 34.7405C81.6812 34.7405 82.0593 35.1074 82.0593 35.7795V37.2603V37.2603Z" fill="#2B388F" stroke="#2E3191" stroke-width="0.147528"/>
<path d="M83.713 37.4995C83.1878 37.4995 82.9274 37.1634 82.9274 36.6586V34.4426C82.9274 34.3252 83.0142 34.2343 83.1319 34.2343C83.2496 34.2343 83.3408 34.3252 83.3408 34.4426V34.8609H84.1116C84.2132 34.8609 84.3058 34.9475 84.3058 35.0487C84.3058 35.15 84.2146 35.2366 84.1116 35.2366H83.3408V36.6733C83.3408 36.9433 83.4688 37.1164 83.7336 37.1164C83.7953 37.1164 83.9322 37.0856 84.1425 37.0255C84.3058 36.9844 84.4074 37.0768 84.4074 37.2133C84.4074 37.3101 84.3514 37.3762 84.2382 37.4114C84.091 37.4701 83.9116 37.4995 83.713 37.4995Z" fill="#2B388F" stroke="#2E3191" stroke-width="0.147528"/>
<path d="M87.1701 35.9981C87.1701 36.1962 87.0686 36.293 86.8686 36.293H85.3415V36.3752C85.3415 36.8434 85.6475 37.1236 86.1021 37.1236C86.2698 37.1236 86.4743 37.0782 86.7244 36.9916C86.8936 36.9255 87.0201 37.0268 87.0201 37.1545C87.0201 37.2308 86.9848 37.2924 86.9083 37.3379C86.745 37.4348 86.3978 37.5008 86.0962 37.5008C85.4018 37.5008 84.9737 37.0738 84.9369 36.406C84.9222 36.1668 84.9266 35.9628 84.9413 35.7956C84.9972 35.144 85.4415 34.7419 86.0697 34.7419C86.4022 34.7419 86.667 34.8431 86.8656 35.053C87.0642 35.257 87.1672 35.5211 87.1672 35.8469V35.9981H87.1701ZM86.6994 35.9467C86.7406 35.9467 86.7612 35.9262 86.7656 35.8851C86.7906 35.4213 86.5199 35.1117 86.0771 35.1117C85.5872 35.1117 85.3268 35.4331 85.3415 35.9467H86.6994Z" fill="#2B388F" stroke="#2E3191" stroke-width="0.147528"/>
<path d="M89.3392 34.99C89.3392 35.0868 89.2627 35.1778 89.1347 35.1778C89.1097 35.1778 89.0479 35.1719 88.9611 35.1573C88.8743 35.1426 88.7978 35.1367 88.7316 35.1367C88.4565 35.1426 88.3182 35.2952 88.3182 35.5946V37.2646C88.3182 37.382 88.227 37.473 88.1093 37.473C87.9916 37.473 87.9004 37.382 87.9004 37.2646V35.5491C87.9004 35.0443 88.202 34.739 88.7331 34.739C88.9111 34.739 89.0597 34.7596 89.1774 34.7948C89.2833 34.8212 89.3392 34.8872 89.3392 34.99Z" fill="#2B388F" stroke="#2E3191" stroke-width="0.147528"/>
</svg>
