<?xml version="1.0" encoding="utf-8"?>
<!-- Generator: Adobe Illustrator 25.4.1, SVG Export Plug-In . SVG Version: 6.00 Build 0)  -->
<svg version="1.1" id="Calque_1" xmlns="http://www.w3.org/2000/svg" x="0px"
     y="0px"
     width="454px"
     height="309px"
     viewBox="0 0 454 309" style="enable-background:new 0 0 454 309;" xml:space="preserve">
<style type="text/css">
	.st0{fill:#283583;}
	.st1{fill-rule:evenodd;clip-rule:evenodd;fill:#283583;}
</style>
    <path class="st0" d="M181.4,112.8c-8.5,0-13.4-5.8-13.4-14c0-8.2,5.1-14,13-14c5.6,0,10.8,2.7,11.8,9.4h-6.5
	c-0.6-2.1-2.3-3.5-5.2-3.5c-4,0-6.4,3.5-6.4,8.3c0,5,2.6,8.1,6.7,8.1c2.8,0,4.7-1.4,5.4-3.6h6.5
	C192.2,109.6,187.3,112.8,181.4,112.8z"/>
    <path class="st0" d="M218.6,85.2v27.3h-6.2v-11.1h-9.8v11.1h-6.2V85.2h6.2v10.7h9.8V85.2H218.6z"/>
    <path class="st0" d="M246.5,100.9c0,8.5-5.1,12-11.4,12c-6.3,0-11.5-3.5-11.5-12V85.2h6.5v16c0,3.4,1.8,5.8,5.1,5.8
	c3.3,0,4.9-2.4,4.9-5.8v-16h6.5V100.9z"/>
    <path class="st0" d="M178.1,149.6c-6.5,0-10.2-4-10.2-9.6h6c0,2.6,1.4,4.3,4.4,4.3c1.8,0,3.2-0.9,3.2-2.6c0-1.9-1.6-2.7-5-4
	c-4.2-1.6-7.8-3.7-7.8-8.2c0-5.1,4-8,9-8c6,0,9.4,3.9,9.4,8.4h-5.6c-0.2-1.8-1.4-3.2-3.7-3.2c-1.7,0-2.9,0.9-2.9,2.3
	c0,1.5,1.2,2.4,4.4,3.7c5,2,8.5,4,8.5,9C187.9,147,183.8,149.6,178.1,149.6z"/>
    <path class="st0" d="M209.3,144.4v4.8h-1.1c-1.9,0-3.8-0.5-4.5-2.5c-1.5,1.8-3.8,2.9-6.9,2.9c-4.3,0-7-2.1-7-5.8
	c0-4.2,3.4-6.1,8.6-6.5l3.6-0.3v-0.3c0-1.9-1.2-2.9-2.8-2.9c-2.1,0-2.9,1.6-3,2.7h-5.6c0.3-4.2,3.5-7.1,8.5-7.1
	c4.7,0,8.5,2.6,8.5,8.2v5.3C207.7,144,208.1,144.4,209.3,144.4z M202,141l-2,0.2c-3,0.2-4.2,1.1-4.2,2.3c0,0.9,0.8,1.5,2,1.5
	C199.9,144.9,201.9,143.4,202,141z"/>
    <path class="st0" d="M211,124.1c0-2.1,1.7-3.7,3.7-3.7c2,0,3.6,1.6,3.6,3.7c0,1.9-1.6,3.6-3.6,3.6C212.7,127.8,211,126.1,211,124.1z
	 M217.7,149.2h-5.9v-19.5h5.9V149.2z"/>
    <path class="st0" d="M241.6,138.5v10.7h-6.2v-9.7c0-3.2-1.6-4.7-3.8-4.7c-1.9,0-3.8,1.3-3.8,4.6v9.8h-6.2v-19.5h4.9l0.7,2.3h0.5
	c0.9-1.1,2.3-2.7,6-2.7C238.3,129.3,241.6,132.5,241.6,138.5z"/>
    <path class="st0" d="M253.2,149.6c-3.8,0-6.5-1.6-6.5-6.8v-8.3h-3.9v-4.4h1.3c2,0,3.1-1.1,3.1-2.7v-2.6h5.5v4.9h4.9v4.8h-4.9v7.7
	c0,1.5,0.7,2.2,1.7,2.2c0.8,0,1.5-0.4,1.9-0.6l1.1,4.6C256.5,149,255,149.6,253.2,149.6z"/>
    <path class="st0" d="M278.3,142.8c-0.9,4.4-4.9,6.8-9.5,6.8c-6.2,0-10.2-4.2-10.2-10.1c0-6.1,4.4-10.1,9.8-10.1
	c5.2,0,10.4,3.1,9.7,11.8h-13.7c0.4,2.3,1.8,3.6,4.5,3.6c1.8,0,3.2-0.7,3.8-2H278.3z M264.6,137h8.1c-0.1-1.5-1.6-3-3.9-3
	C266.7,134,265.2,135,264.6,137z"/>
    <path class="st0" d="M294.8,134.6v4.9h-14v-4.9H294.8z"/>
    <path class="st0" d="M304.9,143.8c1.7,0,2.7-1.2,2.7-3.5v-18.3h6.1v18.6c0,5.7-3.5,9-8.6,9c-5.8,0-9-3.6-9-8.9h6
	C302.3,142.5,303.1,143.8,304.9,143.8z"/>
    <path class="st0" d="M316.8,140.4v-10.7h6.2v9.7c0,3.2,1.6,4.7,3.7,4.7c1.9,0,3.7-1.3,3.7-4.6v-9.8h6.2v19.5h-4.9l-0.7-2.3h-0.5
	c-0.9,1.1-2.3,2.7-5.9,2.7C320,149.6,316.8,146.4,316.8,140.4z"/>
    <path class="st0" d="M348.1,149.6c-5.2,0-8.5-2.6-8.8-7.1h5.7c0.2,1.9,1.7,2.6,3.2,2.6c1.1,0,2.2-0.4,2.2-1.4c0-1.1-1.2-1.7-3.5-2.3
	c-2.9-0.7-7-1.9-7-6c0-3.7,3.3-6.1,7.9-6.1c4.7,0,7.7,2.6,8,6.4h-5.5c-0.2-1.2-1.2-1.9-2.7-1.9c-1,0-1.8,0.4-1.8,1.3
	c0,0.9,0.9,1.4,3.6,2.1c4,1.1,6.8,2.8,6.8,6.4C356.2,147.6,352.7,149.6,348.1,149.6z"/>
    <path class="st0" d="M367.2,149.6c-3.8,0-6.5-1.6-6.5-6.8v-8.3h-3.9v-4.4h1.3c2,0,3.1-1.1,3.1-2.7v-2.6h5.5v4.9h4.9v4.8h-4.9v7.7
	c0,1.5,0.7,2.2,1.7,2.2c0.8,0,1.5-0.4,1.9-0.6l1.1,4.6C370.5,149,369.1,149.6,367.2,149.6z"/>
    <path class="st0" d="M373.6,124.1c0-2.1,1.7-3.7,3.7-3.7c2,0,3.6,1.6,3.6,3.7c0,1.9-1.6,3.6-3.6,3.6
	C375.3,127.8,373.6,126.1,373.6,124.1z M380.2,149.2h-5.9v-19.5h5.9V149.2z"/>
    <path class="st0" d="M404.2,138.5v10.7H398v-9.7c0-3.2-1.6-4.7-3.8-4.7c-1.9,0-3.8,1.3-3.8,4.6v9.8h-6.2v-19.5h4.9l0.7,2.3h0.5
	c0.9-1.1,2.3-2.7,6-2.7C400.8,129.3,404.2,132.5,404.2,138.5z"/>
    <path class="st0" d="M426.5,142.8c-0.9,4.4-4.9,6.8-9.5,6.8c-6.2,0-10.2-4.2-10.2-10.1c0-6.1,4.4-10.1,9.8-10.1
	c5.2,0,10.4,3.1,9.7,11.8h-13.7c0.4,2.3,1.8,3.6,4.5,3.6c1.8,0,3.2-0.7,3.8-2H426.5z M412.8,137h8.1c-0.1-1.5-1.6-3-3.9-3
	C414.9,134,413.5,135,412.8,137z"/>
    <g>
	<path class="st1" d="M401.6,249.4v9.2l0,0.3l-0.4,0h-4.5l-0.4,0l0-0.3v-8.4c0-2.5-1.4-3.6-3.2-3.6c-1.7,0-3.1,1.2-3.1,3.6v8.4
		l0,0.3l-0.4,0h-4.5l-0.4,0l0-0.3v-8.4c0-4.6,3.7-8.3,8.3-8.3c2,0,3.7,0.7,5.2,1.8l0.1,0.3l0.1-0.3c0.1-0.2,0.3-0.3,0.5-0.5l0.3-0.1
		l-0.3-0.1c-1.2-1.4-2-3.2-2-5.1l0-18.4l0-0.3l0.4,0h4.5l0.4,0l0,0.3v18.4c0,2,1.1,2.9,2.6,2.9c1.4,0,2.6-1,2.6-2.9v-18.4l0-0.3
		l0.4,0h4.5l0.4,0l0,0.3v18.4c0,2-0.7,3.8-2,5.1l-0.3,0.1l0.3,0.1c0.2,0.1,0.3,0.3,0.5,0.5l0.1,0.3l0.1-0.3c1.4-1.1,3.2-1.8,5.2-1.8
		c4.6,0,8.3,3.7,8.3,8.3v8.4l0,0.3l-0.4,0h-4.5l-0.4,0l0-0.3v-8.4c0-2.5-1.4-3.6-3.2-3.6c-1.7,0-3.2,1.2-3.2,3.6v8.4l0,0.3l-0.4,0
		h-4.5l-0.4,0l0-0.3v-9.2c0-2.5-1.5-3.8-3.3-3.8C403,245.7,401.6,246.9,401.6,249.4L401.6,249.4z"/>
        <path class="st1" d="M300.5,281.7h4.7v-0.5l-1.8-0.4v-16.1h-4.9v0.6l1.9,0.5v5.4c-0.8-0.7-2.1-1.3-3.7-1.3c-3,0-5.1,2.6-5.1,6.2
		c0,3.7,2,5.8,5.2,5.8c1.5,0,2.8-0.6,3.7-1.4V281.7L300.5,281.7z M300.5,279.5L300.5,279.5c-0.7,0.5-1.5,1-2.7,1c-1.6,0-3-1.2-3-4.4
		c0-3.3,1.1-4.8,3-4.8c1.2,0,2.1,0.4,2.7,1.1V279.5L300.5,279.5z"/>
        <polygon class="st1" points="345.1,264.7 345.1,265.2 343.3,265.7 343.3,280.7 345.1,281.2 345.1,281.7 337.7,281.7 337.7,281.2
		340.1,280.7 340.1,268.7 334.5,281.7 333.3,281.7 327.8,268.7 327.8,280.7 330.1,281.1 330.1,281.7 324.8,281.7 324.8,281.2 
		326.3,280.8 326.3,265.6 324.8,265.2 324.8,264.7 329.5,264.7 334.8,277.7 340.3,264.7 345.1,264.7 	"/>
        <path class="st1" d="M352.6,269.9c-3.4,0-6.4,2.3-6.4,6c0,3.6,3,6,6.4,6c3.4,0,6.4-2.4,6.4-6C359,272.3,355.9,269.9,352.6,269.9
		L352.6,269.9z M352.6,270.8L352.6,270.8c2,0,3.1,2.3,3.1,5.2c0,2.9-1.1,5.2-3.1,5.2c-2,0-3.1-2.4-3.1-5.2
		C349.4,273.1,350.5,270.8,352.6,270.8L352.6,270.8z"/>
        <path class="st1" d="M414.3,273.5v2l-2.7,0.1c-2.6,0.1-4.2,1.5-4.2,3.4c0,1.9,1.4,3,3.4,3c1.6,0,2.7-0.8,3.5-1.3v1h4.3v-0.5
		l-1.4-0.4V273c0-1.7-1.1-3.1-3.7-3.1c-2.6,0-4.2,0.7-5.1,1.1v2.7h1.3l0.4-2.2c0.3-0.1,1.1-0.4,2.4-0.3
		C414.1,271.4,414.3,272.4,414.3,273.5L414.3,273.5z M414.3,279.8L414.3,279.8c-0.6,0.4-1.1,0.8-2.1,0.8c-1.5,0-1.9-0.9-1.9-2
		c0-1.1,0.8-1.9,2.2-2.1l1.9-0.2V279.8L414.3,279.8z"/>
        <polygon class="st1" points="426.5,281.2 426.5,281.7 420,281.7 420,281.2 421.7,280.8 421.7,265.7 420,265.2 420,264.7
		424.7,264.7 424.7,280.8 426.5,281.2 	"/>
        <path class="st1" d="M276.2,243l-2.5-0.5v-0.5h5.9v0.5l-1.8,0.5v10.3c0,4.3-2.3,6-7.1,6c-4.9,0-6.9-1.9-6.9-5.8v-10.7l-1.8-0.4
		v-0.5h7.5v0.6l-2.6,0.4v10.5c0,3.2,1.1,4.7,4.4,4.7c3.6,0,4.9-1.6,4.9-5L276.2,243L276.2,243z"/>
        <path class="st1" d="M286.4,258.5v0.5H280v-0.5l1.7-0.4v-9.8l-1.6-0.4v-0.5h4.6v1.8c0.5-0.4,2.2-1.9,4.3-1.9c2.2,0,3.3,1.2,3.3,3.4
		v7.5l1.7,0.4v0.5h-6.2v-0.5l1.5-0.4v-7.2c0-1.1-0.3-2.1-1.8-2.1c-1.3,0-2.5,0.9-2.9,1.1v8.2L286.4,258.5L286.4,258.5z"/>
        <polygon class="st1" points="299.8,258.1 301.5,258.5 301.5,259 295.1,259 295.1,258.5 296.8,258.1 296.8,248.3 295.2,247.9
		295.2,247.3 299.8,247.3 299.8,258.1 	"/>
        <path class="st1" d="M300,243.3c0,0.9-0.8,1.6-1.7,1.6c-0.9,0-1.7-0.7-1.7-1.6c0-0.9,0.8-1.7,1.7-1.7
		C299.2,241.7,300,242.4,300,243.3L300,243.3z"/>
        <polygon class="st1" points="351.3,258.1 353,258.5 353,259 346.5,259 346.5,258.5 348.3,258.1 348.3,248.3 346.7,247.9
		346.7,247.3 351.3,247.3 351.3,258.1 	"/>
        <path class="st1" d="M351.4,243.3c0,0.9-0.8,1.6-1.7,1.6c-0.9,0-1.7-0.7-1.7-1.6c0-0.9,0.8-1.7,1.7-1.7
		C350.7,241.7,351.4,242.4,351.4,243.3L351.4,243.3z"/>
        <polygon class="st1" points="302.5,248.1 301.6,247.8 301.6,247.3 307.3,247.3 307.3,247.8 305.5,248.2 308.1,255.3 310.7,248.2
		309.1,247.8 309.1,247.3 313,247.3 313,247.8 312,248.2 307.6,259.2 306.6,259.2 302.5,248.1 	"/>
        <path class="st1" d="M316.4,252.4h7.7c-0.1-3.2-1.8-5.2-5.1-5.2c-3.3,0-5.8,2.9-5.8,6c0,3.6,2.4,6,5.8,6c2.9,0,4.5-1.2,5.3-1.8
		l-0.5-0.8c-0.7,0.4-2,1.3-4.3,1.2C317.3,257.7,316.2,255.3,316.4,252.4L316.4,252.4z M321.2,251.5L321.2,251.5h-4.6
		c0.3-2,1-3.5,2.4-3.5C320.6,248.1,321.1,249.9,321.2,251.5L321.2,251.5z"/>
        <path class="st1" d="M344.2,247.8l-0.3,2.9h-1.1l-0.3-1.9c-0.4-0.2-0.9-0.7-2.1-0.7c-0.9,0-1.7,0.5-1.7,1.5c0,1.2,1.3,1.7,2.7,2.3
		c1.3,0.5,3.4,1.3,3.4,3.4c0,2.4-1.9,4-4.3,4c-2.2,0-3.4-0.5-3.8-0.6l-0.2-3.2l1.1-0.1l0.6,2.2c0.3,0.2,1.2,0.9,2.2,0.9
		c1.5,0,2.2-0.8,2.2-1.9c0-1.3-1.9-1.9-3.1-2.5c-1.2-0.6-2.9-1-2.9-3.4c0-2,1.6-3.4,3.8-3.4C342.5,247.2,343.7,247.6,344.2,247.8
		L344.2,247.8z"/>
        <polygon class="st1" points="372.9,243.5 371.7,241.8 367.7,244.9 368.4,245.9 372.9,243.5 	"/>
        <path class="st1" d="M365.9,252.4h7.7c-0.1-3.2-1.8-5.2-5.1-5.2c-3.3,0-5.8,2.9-5.8,6c0,3.6,2.4,6,5.8,6c2.9,0,4.5-1.2,5.3-1.8
		l-0.5-0.8c-0.7,0.4-2,1.3-4.3,1.2C366.8,257.7,365.7,255.3,365.9,252.4L365.9,252.4z M370.7,251.5L370.7,251.5H366
		c0.3-2,1.1-3.5,2.4-3.5C370,248.1,370.6,249.9,370.7,251.5L370.7,251.5z"/>
        <path class="st1" d="M334,247.2c-1.7,0-2.9,1.3-3.6,2.9h-0.1v-2.7h-4.7v0.5l1.8,0.5v9.8l-1.8,0.4v0.5h7.3v-0.6l-2.5-0.4v-6.6
		c0.7-1.5,1.7-2.1,2.4-2.1c0.5,0,0.7,0.1,1.1,0.4c0.1,0.1,0.6,0.3,0.9,0.1c0.6-0.2,0.7-0.7,0.7-1.3
		C335.5,247.8,334.8,247.2,334,247.2L334,247.2z"/>
        <path class="st1" d="M366.5,281.2v0.5h-6.4v-0.5l1.7-0.4v-9.7l-1.6-0.5v-0.5h4.6v1.8c0.5-0.5,2.2-1.9,4.3-1.9
		c2.2,0,3.3,1.2,3.3,3.4v7.5l1.7,0.4v0.5H368v-0.5l1.5-0.4v-7.2c0-1.1-0.3-2.1-1.8-2.1c-1.3,0-2.5,0.9-2.9,1.1v8.2L366.5,281.2
		L366.5,281.2z"/>
        <path class="st1" d="M392.7,270c-1.7,0-2.9,1.3-3.6,2.9H389v-2.8h-4.7v0.5l1.8,0.5v9.7l-1.8,0.4v0.5h7.3v-0.6l-2.5-0.4v-6.6
		c0.7-1.5,1.7-2.2,2.4-2.2c0.5,0,0.7,0.1,1,0.4c0.1,0.1,0.6,0.3,0.9,0.1c0.6-0.2,0.7-0.7,0.7-1.3C394.1,270.6,393.5,270,392.7,270
		L392.7,270z"/>
        <path class="st1" d="M361.8,257.7c-0.4,0.3-0.9,0.5-1.5,0.5c-1.1,0-1.4-0.8-1.4-2.5v-7.3l3-0.4v-0.6h-3v-5.4h-1
		c-0.2,3.1-1.3,5.1-4,5.4h-0.5v0.6l2.5,0.4v7.5c0,2.4,0.6,3.4,2.8,3.4c1.6,0,2.9-0.6,3.4-1.1L361.8,257.7L361.8,257.7z"/>
        <path class="st1" d="M382.9,280.4c-0.4,0.3-0.9,0.5-1.5,0.5c-1.1,0-1.4-0.8-1.4-2.5v-7.3l3-0.4v-0.6h-3v-5.4h-1
		c-0.2,3.1-1.3,5.1-4,5.4h-0.5v0.6l2.5,0.4v7.5c0,2.4,0.6,3.4,2.8,3.4c1.6,0,2.9-0.6,3.4-1.1L382.9,280.4L382.9,280.4z"/>
        <path class="st1" d="M309.3,275.2h7.7c-0.1-3.2-1.8-5.2-5.1-5.2c-3.3,0-5.8,2.9-5.8,6c0,3.6,2.4,6,5.8,6c2.9,0,4.5-1.2,5.3-1.8
		l-0.5-0.8c-0.7,0.4-2,1.3-4.3,1.2C310.2,280.5,309.1,278.1,309.3,275.2L309.3,275.2z M314.1,274.3L314.1,274.3h-4.6
		c0.3-2,1-3.5,2.4-3.5C313.5,270.8,314,272.6,314.1,274.3L314.1,274.3z"/>
        <path class="st1" d="M397.6,275.2h7.7c-0.1-3.2-1.8-5.2-5.1-5.2c-3.3,0-5.8,2.9-5.8,6c0,3.6,2.4,6,5.8,6c2.9,0,4.5-1.2,5.4-1.8
		l-0.5-0.8c-0.7,0.4-2,1.3-4.3,1.2C398.5,280.5,397.4,278.1,397.6,275.2L397.6,275.2z M404.6,266.2L404.6,266.2l-1.1-1.7l-4,3.1
		l0.7,0.9L404.6,266.2L404.6,266.2z M402.4,274.3L402.4,274.3h-4.6c0.3-2,1-3.5,2.4-3.5C401.8,270.8,402.3,272.6,402.4,274.3
		L402.4,274.3z"/>
</g>
    <g>
	<path class="st0" d="M98.1,58.6c1.1,0,2.3-0.1,3.4-0.3c4.6-0.8,9.1-3.1,12.3-6.4c10.7-10.7,6.5-18.4,3-21.9h0
		c-1.8-1.9-4.5-2.9-7.8-2.9c-5.3-0.1-11.2,2.6-15.4,6.8c-7.2,7.2-8.9,16.8-3.9,21.8C91.7,57.5,94.6,58.6,98.1,58.6z"/>
        <path class="st0" d="M94.7,92.8c4.3,0,9.3-1.6,12.1-4.4c5.3-5.3,6.1-13,1.8-17.5h0c-4-4.1-15.2-0.7-19.9,3.5
		c-3.5,3.2-4.3,6.3-4.3,8.5c-0.1,2.8,1.1,5.6,3.2,7.7C89.1,92.1,91.8,92.8,94.7,92.8z"/>
        <path class="st0" d="M70.1,114.7c10.8-1.6,14.3-3.8,16-4.7c2.4-1.4,7-4.2,5.7-8c-0.9-2.7-4.2-2.7-10.1-1.9
		c-5.9,0.8-13.9,2.3-22.3,2c-4.2-0.2-11.5-2.1-12-8.2c-0.2-2,0.1-4.9,2.6-8.2c7.5-9.8,18-12.2,24.6-15.6c2.2-1.2,3.7-2,4.6-2.7
		c2.9-2.5,4-7.2,2.5-10c-1-1.9-3.7-4.4-11.1-2.5h0c-12.9,3.3-29.8,10.1-38.9,24.1c-5.8,9-5.3,17-3.5,21.2c4.1,9.6,15,13.8,21.6,14.6
		C54.8,115.3,62.4,115.9,70.1,114.7z"/>
        <path class="st0" d="M151,78.4c-0.9-7.4-4.4-14.7-11.1-20.2c-5.7-4.7-14.8-5.3-17.9-2.3c-2.2,2-2.3,5.1-0.4,7.8
		c6.8,9.4,9.4,17.5,8.3,23.9c-1.4,8.8-5.7,15.2-20.5,21c-4.6,1.8-10.5,3.4-15.6,4.9c-4.7,1.4-8.8,2.5-11.4,3.6
		c-2.9,1.2-4.6,3.8-4,6.3c0.4,1.8,2.1,3.9,7.2,3.9c0.5,0,1.1,0,1.7-0.1c8-0.6,31.4-4,43.2-11.9C151.1,101.6,152.3,88.9,151,78.4z"/>
        <path class="st0" d="M75.4,181.9c-0.2-14.8,1.6-31.8-1.7-39.2c-2.6-5.7-11-9.7-16.6-8.4c-2.1,0.5-7.1,2.4-7,10.5
		c0.1,12,6.2,46.4,9,57.2c1.7,6.7,5.2,12.2,8.9,12.4c0.1,0,0.2,0,0.3,0c1.4,0,2.7-0.5,4.5-3.5C76.1,205.1,75.5,189.2,75.4,181.9z"/>
        <path class="st0" d="M122.5,190.5c-2-12.6-5.6-29.8-9-39c-3.3-8.8-6.4-15.5-15-14.4c-4.1,0.5-9.1,1.6-11.4,5.2
		c-1.4,2.2-1.5,5-0.4,8.3c7.6,22,21.8,57.2,28.3,62.9c0.8,0.7,2.9,2.6,5.3,2.6c0.7,0,1.4-0.2,2.1-0.5c3-1.7,3.4-6,1.7-16
		C123.5,196.9,123,193.8,122.5,190.5z"/>
</g>
    <g>
	<path class="st0" d="M184.3,176.7h-2v-12.4h-0.1l-4.7,10.5h-2.3l-4.8-10.5h-0.2v12.4h-2v-16.1h2.7l5.4,12.1h0.2l5.3-12.1h2.6V176.7
		z"/>
        <path class="st0" d="M187.3,170.9c0-3.4,2.4-6,5.8-6c3.3,0,5.8,2.6,5.8,6c0,3.4-2.5,6-5.8,6C189.8,176.9,187.3,174.3,187.3,170.9z
		 M196.9,170.9c0-2.3-1.5-4.2-3.8-4.2c-2.3,0-3.7,1.9-3.7,4.2c0,2.3,1.5,4.2,3.7,4.2C195.4,175.2,196.9,173.2,196.9,170.9z"/>
        <path class="st0" d="M202.5,174.1v-7.3H200v-1.6h0.8c1.4,0,1.8-0.5,1.8-1.7v-1.4h1.8v3.1h2.9v1.6h-2.9v7c0,0.8,0.3,1.4,1.4,1.4
		c0.4,0,0.8-0.1,1.2-0.2v1.6c-0.4,0.1-1,0.3-1.7,0.3C203,176.9,202.5,175.4,202.5,174.1z"/>
        <path class="st0" d="M219.2,169.5v7.2h-2v-6.8c0-2.2-1.2-3.2-2.7-3.2c-1.6,0-3,1-3,3.4v6.6h-2v-16.3h2v6.2h0.2
		c0.6-0.9,1.5-1.6,3.3-1.6C217.4,165,219.2,166.5,219.2,169.5z"/>
        <path class="st0" d="M232.3,171.4h-8.6c0.1,2.3,1.4,3.8,3.6,3.8c1.5,0,2.6-0.7,3-1.9h2c-0.5,2.3-2.4,3.6-5,3.6
		c-3.3,0-5.6-2.3-5.6-5.9c0-3.7,2.4-6.1,5.5-6.1c2.8,0,5.1,1.9,5.1,5.7C232.4,170.9,232.4,171.2,232.3,171.4z M223.8,170h6.6
		c0-2-1.3-3.3-3.2-3.3C225.3,166.6,224,168.1,223.8,170z"/>
        <path class="st0" d="M235.1,165.2h1.8l0.2,1.6h0.2c0.6-1,1.4-1.8,3.3-1.8h0.7v2c-0.3,0-0.7,0-1,0c-2,0-3.1,1.6-3.1,3.7v6h-2V165.2z
		"/>
        <path class="st0" d="M259.4,175.1v1.6h-0.9c-1.1,0-1.8-0.4-2-1.5c-0.8,1-2.1,1.7-3.8,1.7c-2.1,0-3.8-1-3.8-3.3
		c0-2.2,1.7-3.3,3.9-3.5l3.4-0.3v-0.6c0-1.6-0.9-2.5-2.4-2.5c-1.6,0-2.3,0.9-2.5,2.2h-2c0.2-2.2,1.8-3.8,4.5-3.8
		c2.6,0,4.4,1.4,4.4,4.2v5c0,0.7,0.3,0.9,0.9,0.9H259.4z M256.2,171.3l-2.8,0.3c-1.5,0.1-2.5,0.8-2.5,2c0,1.3,0.9,1.7,2,1.7
		c1.5,0,3.3-0.8,3.3-3V171.3z"/>
        <path class="st0" d="M261.6,165.2h1.8l0.2,1.4h0.2c0.6-0.9,1.5-1.6,3.3-1.6c2.5,0,4.2,1.6,4.2,4.5v7.2h-2v-6.8
		c0-2.2-1.2-3.2-2.7-3.2c-1.6,0-3,1-3,3.4v6.6h-2V165.2z"/>
        <path class="st0" d="M284.9,160.4v16.3h-1.7l-0.2-1.6h-0.1c-0.6,0.8-1.7,1.9-3.7,1.9c-3.1,0-5.3-2.4-5.3-6c0-3.7,2.3-6,5.3-6
		c1.9,0,3.1,0.9,3.7,1.7v-6.3H284.9z M282.9,170.9c0-2.5-1.4-4.2-3.4-4.2c-2.1,0-3.5,1.7-3.5,4.2c0,2.5,1.4,4.2,3.5,4.2
		C281.5,175.2,282.9,173.5,282.9,170.9z"/>
        <path class="st0" d="M301.9,176.9c-4.6,0-7.6-3.4-7.6-8.2c0-4.8,3-8.3,7.6-8.3c3.4,0,6.1,1.9,6.7,5.3h-2.2c-0.6-2-2.1-3.3-4.5-3.3
		c-3.4,0-5.5,2.9-5.5,6.4c0,3.6,2.3,6.3,5.5,6.3c2.4,0,4.1-1.3,4.7-3.2h2.2C308.2,174.9,305.4,176.9,301.9,176.9z"/>
        <path class="st0" d="M321.1,169.5v7.2h-2v-6.8c0-2.2-1.2-3.2-2.7-3.2c-1.6,0-3,1-3,3.4v6.6h-2v-16.3h2v6.2h0.2
		c0.6-0.9,1.5-1.6,3.3-1.6C319.3,165,321.1,166.5,321.1,169.5z"/>
        <path class="st0" d="M323.9,162c0-0.7,0.6-1.3,1.4-1.3c0.7,0,1.3,0.6,1.3,1.3c0,0.7-0.6,1.3-1.3,1.3
		C324.5,163.4,323.9,162.8,323.9,162z M324.2,165.2h2v11.5h-2V165.2z"/>
        <path class="st0" d="M329.3,160.4h2v16.3h-2V160.4z"/>
        <path class="st0" d="M345,160.4v16.3h-1.7l-0.2-1.6H343c-0.6,0.8-1.7,1.9-3.7,1.9c-3.1,0-5.3-2.4-5.3-6c0-3.7,2.3-6,5.3-6
		c1.9,0,3.1,0.9,3.7,1.7v-6.3H345z M343,170.9c0-2.5-1.4-4.2-3.4-4.2c-2.1,0-3.5,1.7-3.5,4.2c0,2.5,1.4,4.2,3.5,4.2
		C341.6,175.2,343,173.5,343,170.9z"/>
        <path class="st0" d="M180.6,192.6c0,4.2-2.6,6.3-6.2,6.3c-3.6,0-6.3-2.1-6.3-6.3v-10h2.1v9.9c0,3,1.8,4.5,4.2,4.5s4.1-1.5,4.1-4.5
		v-9.9h2.1V192.6z"/>
        <path class="st0" d="M184.2,187.2h1.8l0.2,1.4h0.2c0.6-0.9,1.5-1.6,3.3-1.6c2.5,0,4.2,1.6,4.2,4.5v7.2h-2v-6.8
		c0-2.2-1.2-3.2-2.7-3.2c-1.6,0-3,1-3,3.4v6.6h-2V187.2z"/>
        <path class="st0" d="M196.7,184c0-0.7,0.6-1.3,1.4-1.3c0.7,0,1.3,0.6,1.3,1.3c0,0.7-0.6,1.3-1.3,1.3
		C197.3,185.4,196.7,184.8,196.7,184z M197.1,187.2h2v11.5h-2V187.2z"/>
        <path class="st0" d="M201,187.2h2.1l3.4,9.4h0.2l3.4-9.4h2.1l-4.4,11.5h-2.5L201,187.2z"/>
        <path class="st0" d="M223.8,193.4h-8.6c0.1,2.3,1.4,3.8,3.6,3.8c1.5,0,2.6-0.7,3-1.9h2c-0.5,2.3-2.4,3.6-5,3.6
		c-3.3,0-5.6-2.3-5.6-5.9c0-3.7,2.4-6.1,5.5-6.1c2.8,0,5.1,1.9,5.1,5.7C223.8,192.9,223.8,193.2,223.8,193.4z M215.2,192h6.6
		c0-2-1.3-3.3-3.2-3.3C216.7,188.6,215.4,190.1,215.2,192z"/>
        <path class="st0" d="M226.5,187.2h1.8l0.2,1.6h0.2c0.6-1,1.4-1.8,3.3-1.8h0.7v2c-0.3,0-0.7,0-1,0c-2,0-3.1,1.6-3.1,3.7v6h-2V187.2z
		"/>
        <path class="st0" d="M234,195.2h2c0.2,1.6,1.2,2.1,2.6,2.1c1.1,0,2.1-0.5,2.1-1.6c0-1.3-1.2-1.7-2.4-2.1l-0.8-0.2
		c-1.4-0.4-3.1-1-3.1-3.2c0-2.1,1.8-3.3,3.9-3.3c2.8,0,4,1.7,4.1,3.3h-2c-0.1-1-0.9-1.7-2.1-1.7c-1.1,0-2,0.5-2,1.6
		c0,1.1,1,1.4,2.2,1.8l0.7,0.2c1.7,0.5,3.4,1.3,3.4,3.5c0,2.3-1.9,3.2-4.1,3.2C235.6,198.9,234.1,197.4,234,195.2z"/>
        <path class="st0" d="M244.9,184c0-0.7,0.6-1.3,1.4-1.3c0.7,0,1.3,0.6,1.3,1.3c0,0.7-0.6,1.3-1.3,1.3
		C245.5,185.4,244.9,184.8,244.9,184z M245.3,187.2h2v11.5h-2V187.2z"/>
        <path class="st0" d="M251.7,196.1v-7.3h-2.4v-1.6h0.8c1.4,0,1.8-0.5,1.8-1.7v-1.4h1.8v3.1h2.9v1.6h-2.9v7c0,0.8,0.3,1.4,1.4,1.4
		c0.4,0,0.8-0.1,1.2-0.2v1.6c-0.4,0.1-1,0.3-1.7,0.3C252.2,198.9,251.7,197.4,251.7,196.1z"/>
        <path class="st0" d="M258.8,203.3v-1.5c0.4,0.1,0.9,0.2,1.2,0.2c1,0,2-0.4,2.5-1.7l0.6-1.5h-0.7l-4.4-11.5h2.1l3.5,9.4h0.2l3.4-9.4
		h2.1l-4.8,13.3c-0.3,0.9-1.1,3-4,3C259.7,203.5,259.2,203.4,258.8,203.3z"/>
        <path class="st0" d="M289.9,182.6v16.1h-2.1v-7.2H280v7.2h-2.1v-16.1h2.1v7h7.9v-7H289.9z"/>
        <path class="st0" d="M292.9,192.9c0-3.4,2.4-6,5.8-6c3.3,0,5.8,2.6,5.8,6c0,3.4-2.5,6-5.8,6C295.4,198.9,292.9,196.3,292.9,192.9z
		 M302.5,192.9c0-2.3-1.5-4.2-3.8-4.2c-2.3,0-3.7,1.9-3.7,4.2c0,2.3,1.5,4.2,3.7,4.2C301,197.2,302.5,195.2,302.5,192.9z"/>
        <path class="st0" d="M306.5,195.2h2c0.2,1.6,1.2,2.1,2.6,2.1c1.1,0,2.1-0.5,2.1-1.6c0-1.3-1.2-1.7-2.4-2.1l-0.8-0.2
		c-1.4-0.4-3.1-1-3.1-3.2c0-2.1,1.8-3.3,3.9-3.3c2.8,0,4,1.7,4.1,3.3h-2c-0.1-1-0.9-1.7-2.1-1.7c-1.1,0-2,0.5-2,1.6
		c0,1.1,1,1.4,2.2,1.8l0.7,0.2c1.7,0.5,3.4,1.3,3.4,3.5c0,2.3-1.9,3.2-4.1,3.2C308,198.9,306.6,197.4,306.5,195.2z"/>
        <path class="st0" d="M328.7,193c0,3.7-2.3,6-5.3,6c-1.9,0-3.1-0.9-3.7-1.7v6.1h-2v-16.1h1.7l0.2,1.6h0.1c0.6-0.8,1.7-1.9,3.7-1.9
		C326.5,187,328.7,189.4,328.7,193z M326.7,193c0-2.5-1.4-4.2-3.5-4.2c-2.1,0-3.4,1.7-3.4,4.2c0,2.5,1.4,4.2,3.4,4.2
		C325.3,197.2,326.7,195.5,326.7,193z"/>
        <path class="st0" d="M331,184c0-0.7,0.6-1.3,1.4-1.3c0.7,0,1.3,0.6,1.3,1.3c0,0.7-0.6,1.3-1.3,1.3C331.7,185.4,331,184.8,331,184z
		 M331.4,187.2h2v11.5h-2V187.2z"/>
        <path class="st0" d="M337.8,196.1v-7.3h-2.4v-1.6h0.8c1.4,0,1.8-0.5,1.8-1.7v-1.4h1.8v3.1h2.9v1.6h-2.9v7c0,0.8,0.3,1.4,1.4,1.4
		c0.4,0,0.8-0.1,1.2-0.2v1.6c-0.4,0.1-1,0.3-1.7,0.3C338.4,198.9,337.8,197.4,337.8,196.1z"/>
        <path class="st0" d="M354.8,197.1v1.6h-0.9c-1.1,0-1.8-0.4-2-1.5c-0.8,1-2.1,1.7-3.8,1.7c-2.1,0-3.8-1-3.8-3.3
		c0-2.2,1.7-3.3,3.9-3.5l3.4-0.3v-0.6c0-1.6-0.9-2.5-2.4-2.5c-1.6,0-2.3,0.9-2.5,2.2h-2c0.2-2.2,1.8-3.8,4.5-3.8
		c2.6,0,4.4,1.4,4.4,4.2v5c0,0.7,0.3,0.9,0.9,0.9H354.8z M351.6,193.3l-2.8,0.3c-1.5,0.1-2.5,0.8-2.5,2c0,1.3,0.9,1.7,2,1.7
		c1.5,0,3.3-0.8,3.3-3V193.3z"/>
        <path class="st0" d="M357,182.4h2v16.3h-2V182.4z"/>
        <path class="st0" d="M376,198.9c-4.6,0-7.6-3.4-7.6-8.2c0-4.8,3-8.3,7.6-8.3c3.4,0,6.1,1.9,6.7,5.3h-2.2c-0.6-2-2.1-3.3-4.5-3.3
		c-3.4,0-5.5,2.9-5.5,6.4c0,3.6,2.3,6.3,5.5,6.3c2.4,0,4.1-1.3,4.7-3.2h2.2C382.4,196.9,379.6,198.9,376,198.9z"/>
        <path class="st0" d="M395.6,193.4h-8.6c0.1,2.3,1.4,3.8,3.6,3.8c1.5,0,2.6-0.7,3-1.9h2c-0.5,2.3-2.4,3.6-5,3.6
		c-3.3,0-5.6-2.3-5.6-5.9c0-3.7,2.4-6.1,5.5-6.1c2.8,0,5.1,1.9,5.1,5.7C395.7,192.9,395.7,193.2,395.6,193.4z M387.1,192h6.6
		c0-2-1.3-3.3-3.2-3.3C388.6,188.6,387.3,190.1,387.1,192z"/>
        <path class="st0" d="M398.4,187.2h1.8l0.2,1.4h0.2c0.6-0.9,1.5-1.6,3.3-1.6c2.5,0,4.2,1.6,4.2,4.5v7.2h-2v-6.8
		c0-2.2-1.2-3.2-2.7-3.2c-1.6,0-3,1-3,3.4v6.6h-2V187.2z"/>
        <path class="st0" d="M412.2,196.1v-7.3h-2.4v-1.6h0.8c1.4,0,1.8-0.5,1.8-1.7v-1.4h1.8v3.1h2.9v1.6h-2.9v7c0,0.8,0.3,1.4,1.4,1.4
		c0.4,0,0.8-0.1,1.2-0.2v1.6c-0.4,0.1-1,0.3-1.7,0.3C412.8,198.9,412.2,197.4,412.2,196.1z"/>
        <path class="st0" d="M419.2,187.2h1.8l0.2,1.6h0.2c0.6-1,1.4-1.8,3.3-1.8h0.7v2c-0.3,0-0.7,0-1,0c-2,0-3.1,1.6-3.1,3.7v6h-2V187.2z
		"/>
        <path class="st0" d="M437,193.4h-8.6c0.1,2.3,1.4,3.8,3.6,3.8c1.5,0,2.6-0.7,3-1.9h2c-0.5,2.3-2.4,3.6-5,3.6
		c-3.3,0-5.6-2.3-5.6-5.9c0-3.7,2.4-6.1,5.5-6.1c2.8,0,5.1,1.9,5.1,5.7C437,192.9,437,193.2,437,193.4z M428.4,192h6.6
		c0-2-1.3-3.3-3.2-3.3C429.9,188.6,428.6,190.1,428.4,192z"/>
</g>
</svg>
