<?xml version="1.0" encoding="UTF-8"?>
<svg xmlns="http://www.w3.org/2000/svg" xmlns:xlink="http://www.w3.org/1999/xlink" width="200px" height="60px" viewBox="0 0 200 60" version="1.1">
<g id="surface3">
<path style=" stroke:none;fill-rule:nonzero;fill:rgb(29.803922%,65.098039%,87.45098%);fill-opacity:1;" d="M 57.285156 44.648438 C 57.398438 44.433594 57.632812 44.292969 57.894531 44.28125 C 58.242188 44.289062 58.523438 44.539062 58.542969 44.855469 C 58.542969 44.960938 58.519531 45.066406 58.472656 45.164062 C 58.222656 45.726562 57.777344 46.203125 57.207031 46.519531 C 56.621094 46.851562 55.945312 47.027344 55.257812 47.023438 C 54.3125 47.042969 53.394531 46.714844 52.722656 46.109375 C 52.054688 45.492188 51.660156 44.671875 51.613281 43.804688 C 51.550781 43.199219 51.550781 42.585938 51.613281 41.980469 C 51.660156 41.117188 52.054688 40.300781 52.722656 39.683594 C 53.390625 39.074219 54.304688 38.742188 55.25 38.765625 C 55.941406 38.761719 56.617188 38.933594 57.207031 39.261719 C 57.78125 39.578125 58.222656 40.054688 58.472656 40.625 C 58.523438 40.71875 58.546875 40.824219 58.542969 40.929688 C 58.519531 41.246094 58.238281 41.492188 57.894531 41.496094 C 57.632812 41.484375 57.398438 41.347656 57.285156 41.132812 C 56.933594 40.394531 56.132812 39.921875 55.25 39.925781 C 54.644531 39.90625 54.058594 40.128906 53.648438 40.539062 C 53.222656 40.964844 52.96875 41.515625 52.9375 42.089844 C 52.894531 42.632812 52.894531 43.175781 52.9375 43.714844 C 52.921875 44.277344 53.160156 44.824219 53.59375 45.226562 C 54.027344 45.625 54.617188 45.851562 55.234375 45.847656 C 56.121094 45.859375 56.925781 45.386719 57.285156 44.648438 Z M 57.285156 44.648438 "/>
<path style=" stroke:none;fill-rule:nonzero;fill:rgb(29.803922%,65.098039%,87.45098%);fill-opacity:1;" d="M 65.535156 43.625 C 65.5625 43.824219 65.484375 44.023438 65.328125 44.164062 C 65.171875 44.304688 64.953125 44.375 64.734375 44.347656 L 61.199219 44.347656 L 61.199219 44.484375 C 61.171875 44.886719 61.34375 45.277344 61.664062 45.550781 C 61.984375 45.824219 62.421875 45.957031 62.855469 45.90625 C 63.34375 45.894531 63.828125 45.808594 64.285156 45.652344 C 64.46875 45.554688 64.695312 45.554688 64.878906 45.648438 C 65.066406 45.746094 65.179688 45.921875 65.1875 46.113281 C 65.1875 46.332031 65.058594 46.53125 64.851562 46.628906 C 64.222656 46.925781 63.523438 47.0625 62.820312 47.027344 C 62.070312 47.0625 61.332031 46.828125 60.765625 46.375 C 60.242188 45.90625 59.9375 45.265625 59.914062 44.59375 C 59.871094 44.125 59.871094 43.652344 59.914062 43.179688 C 59.9375 42.515625 60.253906 41.890625 60.785156 41.4375 C 61.332031 41 62.039062 40.765625 62.765625 40.785156 C 63.515625 40.75 64.25 41.007812 64.777344 41.496094 C 65.308594 41.984375 65.582031 42.65625 65.535156 43.34375 Z M 64.105469 43.394531 C 64.191406 43.394531 64.242188 43.351562 64.257812 43.257812 C 64.300781 42.878906 64.164062 42.503906 63.875 42.226562 C 63.589844 41.949219 63.1875 41.800781 62.769531 41.816406 C 62.316406 41.785156 61.871094 41.949219 61.566406 42.257812 C 61.261719 42.566406 61.128906 42.984375 61.207031 43.394531 Z M 64.105469 43.394531 "/>
<path style=" stroke:none;fill-rule:nonzero;fill:rgb(29.803922%,65.098039%,87.45098%);fill-opacity:1;" d="M 72.769531 46.304688 C 72.792969 46.472656 72.730469 46.640625 72.605469 46.765625 C 72.480469 46.890625 72.300781 46.960938 72.113281 46.957031 C 71.738281 46.933594 71.449219 46.648438 71.449219 46.304688 L 71.449219 43.214844 C 71.480469 42.859375 71.339844 42.511719 71.066406 42.261719 C 70.789062 42.007812 70.410156 41.882812 70.019531 41.910156 C 69.503906 41.886719 68.988281 41.996094 68.535156 42.226562 L 68.535156 46.304688 C 68.550781 46.476562 68.484375 46.644531 68.355469 46.769531 C 68.226562 46.890625 68.042969 46.960938 67.855469 46.957031 C 67.480469 46.933594 67.191406 46.648438 67.191406 46.304688 L 67.191406 41.84375 C 67.179688 41.65625 67.28125 41.472656 67.457031 41.375 C 68.226562 40.921875 69.128906 40.695312 70.042969 40.722656 C 71.84375 40.722656 72.777344 41.574219 72.777344 43.128906 Z M 72.769531 46.304688 "/>
<path style=" stroke:none;fill-rule:nonzero;fill:rgb(29.803922%,65.098039%,87.45098%);fill-opacity:1;" d="M 76.75 47.007812 C 75.386719 47.007812 74.679688 46.1875 74.679688 44.953125 L 74.679688 40.1875 C 74.675781 40.027344 74.742188 39.871094 74.867188 39.753906 C 74.988281 39.640625 75.160156 39.574219 75.335938 39.574219 C 75.703125 39.578125 76 39.851562 76 40.1875 L 76 41.085938 L 77.722656 41.085938 C 77.949219 41.0625 78.167969 41.160156 78.289062 41.335938 C 78.410156 41.511719 78.410156 41.738281 78.289062 41.914062 C 78.167969 42.089844 77.949219 42.1875 77.722656 42.164062 L 76 42.164062 L 76 45 C 76 45.605469 76.300781 45.898438 76.886719 45.898438 C 77.191406 45.871094 77.492188 45.816406 77.785156 45.730469 C 77.972656 45.667969 78.183594 45.695312 78.347656 45.800781 C 78.511719 45.910156 78.605469 46.082031 78.601562 46.265625 C 78.605469 46.523438 78.421875 46.753906 78.148438 46.824219 C 77.703125 46.972656 77.226562 47.035156 76.75 47.007812 Z M 76.75 47.007812 "/>
<path style=" stroke:none;fill-rule:nonzero;fill:rgb(29.803922%,65.098039%,87.45098%);fill-opacity:1;" d="M 85.363281 43.625 C 85.390625 43.824219 85.3125 44.023438 85.15625 44.164062 C 85 44.304688 84.78125 44.375 84.5625 44.347656 L 80.992188 44.347656 L 80.992188 44.484375 C 80.96875 44.882812 81.136719 45.269531 81.457031 45.542969 C 81.773438 45.816406 82.210938 45.945312 82.644531 45.898438 C 83.132812 45.882812 83.613281 45.789062 84.070312 45.625 C 84.253906 45.527344 84.480469 45.527344 84.667969 45.625 C 84.851562 45.71875 84.96875 45.894531 84.972656 46.089844 C 84.972656 46.304688 84.839844 46.503906 84.628906 46.605469 C 84.007812 46.898438 83.308594 47.039062 82.605469 47.003906 C 81.851562 47.035156 81.113281 46.800781 80.542969 46.351562 C 80.023438 45.878906 79.71875 45.238281 79.699219 44.570312 C 79.65625 44.097656 79.65625 43.625 79.699219 43.15625 C 79.722656 42.492188 80.035156 41.863281 80.570312 41.414062 C 81.113281 40.972656 81.816406 40.738281 82.542969 40.761719 C 83.296875 40.722656 84.03125 40.980469 84.5625 41.46875 C 85.09375 41.957031 85.371094 42.628906 85.320312 43.316406 Z M 83.9375 43.394531 C 84.019531 43.394531 84.070312 43.351562 84.078125 43.257812 C 84.140625 42.878906 84.003906 42.492188 83.714844 42.210938 C 83.425781 41.929688 83.011719 41.785156 82.59375 41.816406 C 82.140625 41.785156 81.695312 41.949219 81.390625 42.257812 C 81.085938 42.566406 80.953125 42.988281 81.035156 43.394531 Z M 83.9375 43.394531 "/>
<path style=" stroke:none;fill-rule:nonzero;fill:rgb(29.803922%,65.098039%,87.45098%);fill-opacity:1;" d="M 90.714844 41.445312 C 90.71875 41.597656 90.652344 41.742188 90.535156 41.851562 C 90.417969 41.957031 90.257812 42.015625 90.09375 42.011719 C 89.960938 42 89.828125 41.980469 89.699219 41.953125 C 89.519531 41.921875 89.339844 41.90625 89.15625 41.910156 C 88.578125 41.910156 88.292969 42.222656 88.292969 42.820312 L 88.292969 46.335938 C 88.292969 46.671875 87.996094 46.945312 87.628906 46.945312 C 87.261719 46.945312 86.964844 46.671875 86.964844 46.335938 L 86.964844 42.632812 C 86.910156 42.113281 87.117188 41.601562 87.523438 41.234375 C 87.929688 40.871094 88.496094 40.691406 89.0625 40.746094 C 89.445312 40.742188 89.828125 40.785156 90.199219 40.871094 C 90.503906 40.921875 90.722656 41.164062 90.714844 41.445312 Z M 90.714844 41.445312 "/>
<path style=" stroke:none;fill-rule:nonzero;fill:rgb(29.803922%,65.098039%,87.45098%);fill-opacity:1;" d="M 95.714844 41.085938 L 95.714844 40.628906 C 95.652344 40.105469 95.851562 39.582031 96.253906 39.203125 C 96.65625 38.828125 97.222656 38.632812 97.800781 38.675781 C 98.195312 38.667969 98.59375 38.710938 98.980469 38.796875 C 99.277344 38.847656 99.496094 39.09375 99.484375 39.371094 C 99.484375 39.519531 99.417969 39.660156 99.300781 39.761719 C 99.183594 39.863281 99.027344 39.914062 98.863281 39.90625 C 98.714844 39.902344 98.5625 39.886719 98.414062 39.859375 C 98.242188 39.824219 98.0625 39.804688 97.886719 39.800781 C 97.328125 39.800781 97.035156 40.09375 97.035156 40.703125 L 97.035156 41.085938 L 98.636719 41.085938 C 98.863281 41.0625 99.082031 41.160156 99.203125 41.335938 C 99.324219 41.511719 99.324219 41.738281 99.203125 41.914062 C 99.082031 42.089844 98.863281 42.1875 98.636719 42.164062 L 97.035156 42.164062 L 97.035156 46.304688 C 97.0625 46.535156 96.941406 46.757812 96.726562 46.882812 C 96.511719 47.003906 96.238281 47.003906 96.023438 46.882812 C 95.808594 46.757812 95.6875 46.535156 95.714844 46.304688 L 95.714844 42.128906 L 95.34375 42.128906 C 95.015625 42.136719 94.738281 41.902344 94.730469 41.601562 C 94.726562 41.453125 94.792969 41.3125 94.90625 41.207031 C 95.023438 41.105469 95.179688 41.050781 95.34375 41.054688 Z M 95.714844 41.085938 "/>
<path style=" stroke:none;fill-rule:nonzero;fill:rgb(29.803922%,65.098039%,87.45098%);fill-opacity:1;" d="M 105.050781 41.386719 C 105.585938 41.800781 105.90625 42.402344 105.9375 43.042969 C 105.980469 43.585938 105.980469 44.132812 105.9375 44.675781 C 105.902344 45.320312 105.582031 45.925781 105.050781 46.351562 C 103.894531 47.226562 102.21875 47.226562 101.0625 46.351562 C 100.535156 45.917969 100.214844 45.316406 100.164062 44.675781 C 100.128906 44.132812 100.128906 43.585938 100.164062 43.042969 C 100.203125 42.402344 100.523438 41.804688 101.058594 41.386719 C 102.226562 40.535156 103.882812 40.535156 105.050781 41.386719 Z M 101.480469 43.199219 C 101.445312 43.632812 101.445312 44.070312 101.480469 44.503906 C 101.492188 44.867188 101.664062 45.210938 101.957031 45.457031 C 102.25 45.699219 102.640625 45.828125 103.035156 45.808594 C 103.433594 45.828125 103.824219 45.703125 104.121094 45.457031 C 104.417969 45.210938 104.597656 44.867188 104.613281 44.503906 C 104.613281 44.21875 104.613281 43.773438 104.613281 43.199219 C 104.605469 42.832031 104.429688 42.484375 104.128906 42.238281 C 103.832031 41.992188 103.4375 41.867188 103.035156 41.894531 C 102.636719 41.867188 102.242188 41.992188 101.949219 42.238281 C 101.65625 42.488281 101.492188 42.835938 101.492188 43.199219 Z M 101.480469 43.199219 "/>
<path style=" stroke:none;fill-rule:nonzero;fill:rgb(29.803922%,65.098039%,87.45098%);fill-opacity:1;" d="M 111.429688 41.445312 C 111.433594 41.597656 111.367188 41.742188 111.25 41.851562 C 111.132812 41.957031 110.972656 42.015625 110.808594 42.011719 C 110.675781 42 110.542969 41.980469 110.414062 41.953125 C 110.234375 41.921875 110.054688 41.90625 109.871094 41.910156 C 109.292969 41.910156 109.007812 42.222656 109.007812 42.820312 L 109.007812 46.335938 C 109.007812 46.671875 108.710938 46.945312 108.34375 46.945312 C 107.976562 46.945312 107.679688 46.671875 107.679688 46.335938 L 107.679688 42.632812 C 107.625 42.113281 107.832031 41.601562 108.238281 41.234375 C 108.644531 40.871094 109.210938 40.691406 109.777344 40.746094 C 110.160156 40.742188 110.542969 40.785156 110.914062 40.871094 C 111.21875 40.921875 111.4375 41.164062 111.429688 41.445312 Z M 111.429688 41.445312 "/>
<path style=" stroke:none;fill-rule:nonzero;fill:rgb(29.803922%,65.098039%,87.45098%);fill-opacity:1;" d="M 117.242188 46.898438 C 116.964844 46.914062 116.691406 46.820312 116.496094 46.640625 C 116.300781 46.460938 116.199219 46.210938 116.222656 45.957031 L 116.222656 39.78125 C 116.203125 39.53125 116.304688 39.285156 116.5 39.105469 C 116.695312 38.929688 116.96875 38.835938 117.242188 38.855469 L 119.285156 38.855469 C 121.792969 38.855469 123.15625 40.160156 123.292969 42.222656 C 123.320312 42.636719 123.320312 43.050781 123.292969 43.46875 C 123.265625 44.402344 122.855469 45.296875 122.144531 45.972656 C 121.367188 46.621094 120.335938 46.957031 119.285156 46.898438 Z M 121.941406 42.332031 C 121.851562 40.820312 120.949219 40.050781 119.265625 40.050781 L 117.5625 40.050781 L 117.5625 45.652344 L 119.285156 45.652344 C 121 45.652344 121.863281 44.824219 121.949219 43.410156 C 121.972656 43.070312 121.96875 42.730469 121.941406 42.390625 Z M 121.941406 42.332031 "/>
<path style=" stroke:none;fill-rule:nonzero;fill:rgb(29.803922%,65.098039%,87.45098%);fill-opacity:1;" d="M 130.09375 45.925781 C 130.105469 46.101562 130.015625 46.269531 129.855469 46.371094 C 129.074219 46.808594 128.175781 47.035156 127.257812 47.023438 C 125.605469 47.023438 124.691406 46.226562 124.691406 45.066406 C 124.679688 44.550781 124.917969 44.054688 125.34375 43.714844 C 125.871094 43.320312 126.546875 43.125 127.230469 43.167969 C 127.761719 43.179688 128.296875 43.246094 128.8125 43.363281 L 128.8125 42.984375 C 128.8125 42.207031 128.394531 41.882812 127.429688 41.882812 C 126.964844 41.894531 126.503906 41.976562 126.070312 42.128906 C 125.527344 42.28125 125.15625 42.050781 125.15625 41.675781 C 125.164062 41.421875 125.335938 41.199219 125.59375 41.113281 C 126.195312 40.871094 126.847656 40.753906 127.507812 40.773438 C 129.15625 40.773438 130.09375 41.476562 130.09375 42.984375 Z M 128.8125 45.59375 L 128.8125 44.347656 C 128.320312 44.230469 127.816406 44.164062 127.308594 44.152344 C 126.519531 44.152344 125.992188 44.472656 125.992188 45.011719 C 125.992188 45.554688 126.480469 45.972656 127.371094 45.972656 C 127.886719 46 128.394531 45.867188 128.8125 45.59375 Z M 128.8125 45.59375 "/>
<path style=" stroke:none;fill-rule:nonzero;fill:rgb(29.803922%,65.098039%,87.45098%);fill-opacity:1;" d="M 134.058594 47.007812 C 132.691406 47.007812 131.984375 46.1875 131.984375 44.953125 L 131.984375 40.1875 C 131.980469 40.027344 132.050781 39.871094 132.171875 39.753906 C 132.296875 39.640625 132.464844 39.574219 132.644531 39.574219 C 133.011719 39.578125 133.308594 39.851562 133.308594 40.1875 L 133.308594 41.085938 L 135 41.085938 C 135.226562 41.0625 135.445312 41.160156 135.566406 41.335938 C 135.6875 41.511719 135.6875 41.738281 135.566406 41.914062 C 135.445312 42.089844 135.226562 42.1875 135 42.164062 L 133.277344 42.164062 L 133.277344 45 C 133.277344 45.605469 133.578125 45.898438 134.164062 45.898438 C 134.46875 45.871094 134.773438 45.816406 135.0625 45.730469 C 135.253906 45.667969 135.464844 45.695312 135.625 45.800781 C 135.789062 45.910156 135.882812 46.082031 135.878906 46.265625 C 135.882812 46.523438 135.699219 46.753906 135.429688 46.824219 C 134.988281 46.972656 134.523438 47.03125 134.058594 47.007812 Z M 134.058594 47.007812 "/>
<path style=" stroke:none;fill-rule:nonzero;fill:rgb(29.803922%,65.098039%,87.45098%);fill-opacity:1;" d="M 142.308594 45.925781 C 142.320312 46.101562 142.230469 46.269531 142.070312 46.371094 C 141.289062 46.808594 140.386719 47.035156 139.472656 47.023438 C 137.820312 47.023438 136.90625 46.226562 136.90625 45.066406 C 136.894531 44.550781 137.132812 44.054688 137.558594 43.714844 C 138.085938 43.320312 138.761719 43.125 139.441406 43.167969 C 139.976562 43.179688 140.507812 43.246094 141.027344 43.363281 L 141.027344 42.984375 C 141.027344 42.207031 140.605469 41.882812 139.644531 41.882812 C 139.179688 41.894531 138.71875 41.976562 138.285156 42.128906 C 137.742188 42.28125 137.371094 42.050781 137.371094 41.675781 C 137.378906 41.421875 137.550781 41.199219 137.808594 41.113281 C 138.410156 40.871094 139.0625 40.753906 139.722656 40.773438 C 141.371094 40.773438 142.308594 41.476562 142.308594 42.984375 Z M 141.027344 45.59375 L 141.027344 44.347656 C 140.535156 44.230469 140.03125 44.164062 139.519531 44.152344 C 138.734375 44.152344 138.207031 44.472656 138.207031 45.011719 C 138.207031 45.554688 138.691406 45.972656 139.585938 45.972656 C 140.101562 46 140.609375 45.867188 141.027344 45.59375 Z M 141.027344 45.59375 "/>
<path style=" stroke:none;fill-rule:nonzero;fill:rgb(29.803922%,65.098039%,87.45098%);fill-opacity:1;" d="M 148.898438 46.898438 C 148.621094 46.917969 148.34375 46.828125 148.140625 46.648438 C 147.941406 46.464844 147.835938 46.214844 147.855469 45.957031 L 147.855469 39.78125 C 147.835938 39.53125 147.941406 39.28125 148.136719 39.101562 C 148.335938 38.925781 148.609375 38.835938 148.886719 38.855469 L 150.894531 38.855469 C 153.40625 38.855469 154.765625 40.160156 154.90625 42.222656 C 154.9375 42.636719 154.9375 43.050781 154.90625 43.46875 C 154.878906 44.394531 154.476562 45.28125 153.777344 45.953125 C 152.992188 46.613281 151.945312 46.945312 150.878906 46.878906 Z M 153.570312 42.390625 C 153.484375 40.878906 152.585938 40.109375 150.898438 40.109375 L 149.199219 40.109375 L 149.199219 45.710938 L 150.898438 45.710938 C 152.613281 45.710938 153.472656 44.882812 153.5625 43.46875 C 153.597656 43.109375 153.601562 42.75 153.570312 42.390625 Z M 153.570312 42.390625 "/>
<path style=" stroke:none;fill-rule:nonzero;fill:rgb(29.803922%,65.098039%,87.45098%);fill-opacity:1;" d="M 160.40625 41.445312 C 160.410156 41.597656 160.347656 41.742188 160.230469 41.851562 C 160.113281 41.957031 159.953125 42.015625 159.785156 42.011719 C 159.65625 42 159.527344 41.980469 159.398438 41.953125 C 159.21875 41.921875 159.035156 41.90625 158.851562 41.910156 C 158.269531 41.910156 157.984375 42.222656 157.984375 42.820312 L 157.984375 46.335938 C 158.011719 46.566406 157.890625 46.792969 157.675781 46.914062 C 157.460938 47.035156 157.1875 47.035156 156.972656 46.914062 C 156.757812 46.792969 156.636719 46.566406 156.664062 46.335938 L 156.664062 42.632812 C 156.609375 42.113281 156.8125 41.601562 157.21875 41.234375 C 157.625 40.871094 158.191406 40.691406 158.757812 40.746094 C 159.140625 40.742188 159.527344 40.785156 159.898438 40.871094 C 160.199219 40.921875 160.414062 41.167969 160.40625 41.445312 Z M 160.40625 41.445312 "/>
<path style=" stroke:none;fill-rule:nonzero;fill:rgb(29.803922%,65.098039%,87.45098%);fill-opacity:1;" d="M 161.570312 39.34375 C 161.570312 38.96875 161.90625 38.664062 162.316406 38.664062 C 162.730469 38.664062 163.0625 38.96875 163.0625 39.34375 C 163.074219 39.523438 163.007812 39.703125 162.871094 39.832031 C 162.734375 39.964844 162.546875 40.039062 162.351562 40.035156 C 162.140625 40.054688 161.9375 39.988281 161.785156 39.855469 C 161.636719 39.722656 161.558594 39.535156 161.570312 39.34375 Z M 163 46.324219 C 163.015625 46.492188 162.949219 46.660156 162.824219 46.78125 C 162.699219 46.90625 162.519531 46.976562 162.335938 46.976562 C 161.964844 46.949219 161.675781 46.664062 161.679688 46.324219 L 161.679688 41.445312 C 161.671875 41.28125 161.738281 41.125 161.863281 41.007812 C 161.988281 40.890625 162.15625 40.824219 162.335938 40.824219 C 162.695312 40.847656 162.984375 41.113281 163 41.445312 Z M 163 46.324219 "/>
<path style=" stroke:none;fill-rule:nonzero;fill:rgb(29.803922%,65.098039%,87.45098%);fill-opacity:1;" d="M 170.457031 41.738281 L 168.671875 46.09375 C 168.546875 46.605469 168.054688 46.964844 167.484375 46.964844 C 166.914062 46.964844 166.421875 46.605469 166.300781 46.09375 L 164.515625 41.699219 C 164.320312 41.476562 164.304688 41.167969 164.476562 40.929688 C 164.652344 40.695312 164.972656 40.585938 165.269531 40.664062 C 165.570312 40.746094 165.777344 40.992188 165.785156 41.277344 L 167.421875 45.554688 C 167.421875 45.585938 167.449219 45.613281 167.484375 45.613281 C 167.519531 45.613281 167.550781 45.585938 167.550781 45.554688 L 169.15625 41.316406 C 169.175781 41.039062 169.382812 40.804688 169.671875 40.726562 C 169.960938 40.652344 170.273438 40.75 170.449219 40.972656 C 170.625 41.199219 170.628906 41.5 170.457031 41.726562 Z M 170.457031 41.738281 "/>
<path style=" stroke:none;fill-rule:nonzero;fill:rgb(29.803922%,65.098039%,87.45098%);fill-opacity:1;" d="M 176.964844 43.625 C 176.992188 43.824219 176.914062 44.023438 176.757812 44.164062 C 176.601562 44.304688 176.382812 44.375 176.164062 44.347656 L 172.628906 44.347656 L 172.628906 44.484375 C 172.601562 44.886719 172.773438 45.277344 173.09375 45.550781 C 173.414062 45.824219 173.851562 45.957031 174.285156 45.90625 C 174.773438 45.886719 175.257812 45.796875 175.714844 45.632812 C 175.898438 45.535156 176.125 45.535156 176.308594 45.628906 C 176.492188 45.726562 176.609375 45.902344 176.613281 46.09375 C 176.617188 46.3125 176.484375 46.511719 176.269531 46.609375 C 175.648438 46.90625 174.949219 47.042969 174.25 47.007812 C 173.496094 47.042969 172.757812 46.808594 172.1875 46.355469 C 171.664062 45.882812 171.363281 45.246094 171.335938 44.574219 C 171.300781 44.105469 171.300781 43.632812 171.335938 43.160156 C 171.363281 42.496094 171.679688 41.871094 172.214844 41.417969 C 172.753906 40.976562 173.460938 40.746094 174.1875 40.765625 C 174.9375 40.730469 175.671875 40.984375 176.203125 41.476562 C 176.734375 41.964844 177.011719 42.636719 176.964844 43.324219 Z M 175.535156 43.394531 C 175.621094 43.394531 175.671875 43.351562 175.6875 43.257812 C 175.730469 42.878906 175.589844 42.5 175.304688 42.222656 C 175.015625 41.945312 174.609375 41.796875 174.191406 41.816406 C 173.738281 41.785156 173.296875 41.949219 172.992188 42.257812 C 172.6875 42.566406 172.554688 42.988281 172.636719 43.394531 Z M 175.535156 43.394531 "/>
<path style=" stroke:none;fill-rule:nonzero;fill:rgb(29.803922%,65.098039%,87.45098%);fill-opacity:1;" d="M 184.199219 46.304688 C 184.222656 46.472656 184.160156 46.644531 184.03125 46.769531 C 183.902344 46.894531 183.722656 46.964844 183.535156 46.957031 C 183.164062 46.929688 182.878906 46.644531 182.878906 46.304688 L 182.878906 43.214844 C 182.910156 42.859375 182.769531 42.511719 182.492188 42.261719 C 182.21875 42.007812 181.835938 41.882812 181.449219 41.910156 C 180.933594 41.886719 180.417969 41.996094 179.964844 42.226562 L 179.964844 46.304688 C 179.976562 46.472656 179.914062 46.640625 179.789062 46.761719 C 179.664062 46.886719 179.484375 46.957031 179.300781 46.957031 C 178.925781 46.933594 178.636719 46.648438 178.636719 46.304688 L 178.636719 41.84375 C 178.621094 41.65625 178.722656 41.472656 178.898438 41.375 C 179.667969 40.921875 180.570312 40.695312 181.484375 40.722656 C 183.285156 40.722656 184.222656 41.574219 184.222656 43.128906 Z M 184.199219 46.304688 "/>
<path style=" stroke:none;fill-rule:nonzero;fill:rgb(29.803922%,65.098039%,87.45098%);fill-opacity:1;" d="M 52.855469 58.3125 C 52.585938 58.328125 52.320312 58.234375 52.125 58.058594 C 51.933594 57.882812 51.832031 57.640625 51.851562 57.390625 L 51.851562 51.214844 C 51.832031 50.964844 51.929688 50.722656 52.125 50.542969 C 52.316406 50.367188 52.582031 50.273438 52.855469 50.289062 L 54.871094 50.289062 C 57.378906 50.289062 58.742188 51.59375 58.878906 53.65625 C 58.914062 54.070312 58.914062 54.484375 58.878906 54.898438 C 58.863281 55.824219 58.472656 56.710938 57.785156 57.390625 C 57 58.050781 55.949219 58.386719 54.886719 58.316406 Z M 57.558594 53.785156 C 57.472656 52.265625 56.570312 51.503906 54.886719 51.503906 L 53.199219 51.503906 L 53.199219 57.105469 L 54.898438 57.105469 C 56.605469 57.105469 57.472656 56.269531 57.558594 54.855469 C 57.589844 54.5 57.59375 54.140625 57.570312 53.785156 Z M 57.558594 53.785156 "/>
<path style=" stroke:none;fill-rule:nonzero;fill:rgb(29.803922%,65.098039%,87.45098%);fill-opacity:1;" d="M 60.714844 50.757812 C 60.714844 50.382812 61.046875 50.082031 61.457031 50.082031 C 61.867188 50.082031 62.199219 50.382812 62.199219 50.757812 C 62.199219 51.132812 61.867188 51.4375 61.457031 51.4375 C 61.046875 51.4375 60.714844 51.132812 60.714844 50.757812 Z M 62.144531 57.742188 C 62.148438 57.90625 62.078125 58.0625 61.953125 58.179688 C 61.828125 58.292969 61.65625 58.359375 61.480469 58.355469 C 61.121094 58.335938 60.835938 58.070312 60.8125 57.742188 L 60.8125 52.859375 C 60.800781 52.691406 60.863281 52.523438 60.992188 52.398438 C 61.117188 52.277344 61.292969 52.207031 61.480469 52.207031 C 61.851562 52.230469 62.144531 52.515625 62.144531 52.859375 Z M 62.144531 57.742188 "/>
<path style=" stroke:none;fill-rule:nonzero;fill:rgb(29.803922%,65.098039%,87.45098%);fill-opacity:1;" d="M 67.144531 54.820312 C 68.3125 55.082031 68.898438 55.664062 68.898438 56.542969 C 68.917969 57.078125 68.652344 57.589844 68.1875 57.914062 C 67.671875 58.269531 67.039062 58.449219 66.394531 58.421875 C 65.566406 58.460938 64.75 58.230469 64.09375 57.769531 C 63.839844 57.578125 63.785156 57.246094 63.964844 56.992188 C 64.054688 56.859375 64.203125 56.769531 64.375 56.746094 C 64.542969 56.722656 64.714844 56.773438 64.84375 56.875 C 65.3125 57.179688 65.875 57.339844 66.449219 57.324219 C 67.164062 57.324219 67.601562 57.027344 67.601562 56.570312 C 67.601562 56.238281 67.351562 56.035156 66.742188 55.917969 C 66.136719 55.800781 65.851562 55.734375 65.84375 55.722656 C 64.628906 55.449219 64.027344 54.878906 64.027344 54.011719 C 64.023438 53.5 64.289062 53.015625 64.742188 52.707031 C 65.234375 52.359375 65.839844 52.171875 66.464844 52.175781 C 67.140625 52.144531 67.808594 52.335938 68.351562 52.707031 C 68.585938 52.914062 68.613281 53.246094 68.40625 53.476562 C 68.1875 53.707031 67.816406 53.742188 67.550781 53.5625 C 67.210938 53.375 66.824219 53.273438 66.429688 53.269531 C 65.714844 53.269531 65.300781 53.511719 65.300781 53.972656 C 65.300781 54.292969 65.527344 54.46875 66.164062 54.625 Z M 67.144531 54.820312 "/>
<path style=" stroke:none;fill-rule:nonzero;fill:rgb(29.803922%,65.098039%,87.45098%);fill-opacity:1;" d="M 74.570312 56.4375 C 74.675781 56.234375 74.902344 56.101562 75.148438 56.105469 C 75.332031 56.109375 75.5 56.179688 75.621094 56.304688 C 75.738281 56.429688 75.792969 56.59375 75.769531 56.757812 C 75.714844 57.207031 75.457031 57.609375 75.058594 57.875 C 74.519531 58.28125 73.832031 58.488281 73.136719 58.453125 C 72.402344 58.480469 71.6875 58.246094 71.136719 57.800781 C 70.585938 57.367188 70.257812 56.75 70.230469 56.085938 C 70.1875 55.546875 70.1875 55.007812 70.230469 54.46875 C 70.261719 53.835938 70.574219 53.242188 71.101562 52.824219 C 71.660156 52.390625 72.378906 52.15625 73.113281 52.175781 C 73.808594 52.140625 74.488281 52.347656 75.019531 52.753906 C 75.425781 53.015625 75.683594 53.425781 75.734375 53.875 C 75.746094 54.035156 75.6875 54.191406 75.566406 54.308594 C 75.449219 54.421875 75.28125 54.488281 75.105469 54.488281 C 74.863281 54.5 74.636719 54.363281 74.550781 54.15625 C 74.238281 53.585938 73.558594 53.265625 72.867188 53.367188 C 72.175781 53.464844 71.636719 53.960938 71.535156 54.59375 C 71.5 55.046875 71.5 55.5 71.535156 55.949219 C 71.550781 56.316406 71.726562 56.664062 72.027344 56.910156 C 72.324219 57.15625 72.71875 57.28125 73.121094 57.253906 C 73.75 57.304688 74.335938 56.972656 74.570312 56.4375 Z M 74.570312 56.4375 "/>
<path style=" stroke:none;fill-rule:nonzero;fill:rgb(29.803922%,65.098039%,87.45098%);fill-opacity:1;" d="M 82.101562 52.824219 C 82.632812 53.242188 82.953125 53.84375 82.984375 54.484375 C 83.019531 55.027344 83.019531 55.570312 82.984375 56.113281 C 82.949219 56.757812 82.628906 57.363281 82.101562 57.789062 C 81.550781 58.234375 80.832031 58.464844 80.101562 58.441406 C 79.371094 58.464844 78.660156 58.230469 78.113281 57.789062 C 77.578125 57.351562 77.257812 56.742188 77.214844 56.085938 C 77.179688 55.542969 77.179688 55 77.214844 54.457031 C 77.261719 53.828125 77.578125 53.242188 78.101562 52.824219 C 79.269531 51.972656 80.929688 51.972656 82.101562 52.824219 Z M 78.527344 54.640625 C 78.492188 55.074219 78.492188 55.507812 78.527344 55.945312 C 78.585938 56.695312 79.269531 57.28125 80.097656 57.28125 C 80.921875 57.28125 81.609375 56.695312 81.664062 55.945312 C 81.691406 55.507812 81.691406 55.074219 81.664062 54.640625 C 81.570312 53.914062 80.898438 53.367188 80.097656 53.367188 C 79.296875 53.367188 78.621094 53.914062 78.527344 54.640625 Z M 78.527344 54.640625 "/>
<path style=" stroke:none;fill-rule:nonzero;fill:rgb(29.803922%,65.098039%,87.45098%);fill-opacity:1;" d="M 90.085938 53.132812 L 88.300781 57.488281 C 88.175781 57.996094 87.683594 58.359375 87.113281 58.359375 C 86.542969 58.359375 86.050781 57.996094 85.929688 57.488281 L 84.144531 53.09375 C 84.066406 52.898438 84.09375 52.683594 84.21875 52.511719 C 84.34375 52.335938 84.550781 52.230469 84.777344 52.21875 C 85.074219 52.238281 85.328125 52.417969 85.414062 52.675781 L 87.050781 56.953125 C 87.0625 56.976562 87.085938 56.992188 87.113281 56.992188 C 87.140625 56.992188 87.167969 56.976562 87.179688 56.953125 L 88.785156 52.707031 C 88.804688 52.433594 89.011719 52.199219 89.300781 52.121094 C 89.589844 52.042969 89.902344 52.144531 90.078125 52.367188 C 90.253906 52.589844 90.257812 52.894531 90.085938 53.121094 Z M 90.085938 53.132812 "/>
<path style=" stroke:none;fill-rule:nonzero;fill:rgb(29.803922%,65.098039%,87.45098%);fill-opacity:1;" d="M 96.585938 55.035156 C 96.613281 55.238281 96.539062 55.4375 96.382812 55.582031 C 96.226562 55.726562 96.003906 55.792969 95.785156 55.765625 L 92.25 55.765625 L 92.25 55.90625 C 92.226562 56.300781 92.394531 56.691406 92.714844 56.960938 C 93.03125 57.234375 93.464844 57.367188 93.898438 57.320312 C 94.390625 57.300781 94.871094 57.210938 95.328125 57.046875 C 95.515625 56.953125 95.738281 56.953125 95.921875 57.050781 C 96.105469 57.144531 96.222656 57.320312 96.230469 57.515625 C 96.230469 57.730469 96.101562 57.925781 95.894531 58.023438 C 95.269531 58.320312 94.574219 58.460938 93.871094 58.421875 C 93.117188 58.457031 92.375 58.222656 91.808594 57.769531 C 91.285156 57.296875 90.980469 56.660156 90.957031 55.988281 C 90.921875 55.519531 90.921875 55.050781 90.957031 54.582031 C 90.984375 53.910156 91.304688 53.28125 91.84375 52.824219 C 92.382812 52.386719 93.089844 52.152344 93.8125 52.175781 C 94.566406 52.136719 95.300781 52.394531 95.828125 52.882812 C 96.359375 53.371094 96.632812 54.042969 96.585938 54.730469 Z M 95.15625 54.808594 C 95.242188 54.808594 95.292969 54.761719 95.308594 54.671875 C 95.367188 54.289062 95.234375 53.90625 94.945312 53.625 C 94.65625 53.347656 94.242188 53.203125 93.820312 53.238281 C 93.371094 53.203125 92.933594 53.359375 92.625 53.664062 C 92.320312 53.964844 92.179688 54.375 92.25 54.78125 Z M 95.15625 54.808594 "/>
<path style=" stroke:none;fill-rule:nonzero;fill:rgb(29.803922%,65.098039%,87.45098%);fill-opacity:1;" d="M 101.929688 52.859375 C 101.933594 53.011719 101.867188 53.160156 101.75 53.265625 C 101.628906 53.375 101.46875 53.429688 101.300781 53.425781 C 101.25 53.425781 101.128906 53.425781 100.914062 53.375 C 100.734375 53.335938 100.550781 53.320312 100.363281 53.328125 C 99.792969 53.328125 99.5 53.636719 99.5 54.234375 L 99.5 57.75 C 99.527344 57.980469 99.40625 58.203125 99.191406 58.328125 C 98.976562 58.449219 98.703125 58.449219 98.488281 58.328125 C 98.273438 58.203125 98.152344 57.980469 98.179688 57.75 L 98.179688 54.046875 C 98.128906 53.527344 98.339844 53.019531 98.746094 52.65625 C 99.152344 52.292969 99.714844 52.117188 100.277344 52.175781 C 100.660156 52.171875 101.042969 52.210938 101.414062 52.296875 C 101.710938 52.347656 101.925781 52.582031 101.929688 52.859375 Z M 101.929688 52.859375 "/>
<path style=" stroke:none;fill-rule:nonzero;fill:rgb(29.803922%,65.098039%,87.45098%);fill-opacity:1;" d="M 103.058594 53.121094 C 102.949219 52.925781 102.96875 52.691406 103.105469 52.511719 C 103.226562 52.339844 103.433594 52.234375 103.65625 52.238281 C 103.972656 52.226562 104.253906 52.417969 104.328125 52.695312 L 106.015625 56.378906 C 106.023438 56.398438 106.042969 56.414062 106.0625 56.417969 C 106.09375 56.421875 106.117188 56.40625 106.128906 56.378906 L 107.679688 52.722656 C 107.691406 52.445312 107.894531 52.203125 108.183594 52.121094 C 108.476562 52.042969 108.789062 52.136719 108.96875 52.363281 C 109.148438 52.589844 109.152344 52.890625 108.980469 53.121094 L 106.628906 58.21875 C 106.292969 59.066406 105.703125 59.808594 104.929688 60.363281 C 104.761719 60.472656 104.566406 60.53125 104.363281 60.535156 C 104.089844 60.523438 103.851562 60.355469 103.773438 60.117188 C 103.695312 59.878906 103.792969 59.617188 104.015625 59.472656 C 104.628906 59.09375 105.089844 58.542969 105.328125 57.898438 Z M 103.058594 53.121094 "/>
<path style=" stroke:none;fill-rule:nonzero;fill:rgb(29.803922%,65.098039%,87.45098%);fill-opacity:1;" d="M 113.644531 50.757812 C 113.644531 50.382812 113.976562 50.082031 114.386719 50.082031 C 114.796875 50.082031 115.128906 50.382812 115.128906 50.757812 C 115.128906 51.132812 114.796875 51.4375 114.386719 51.4375 C 113.976562 51.4375 113.644531 51.132812 113.644531 50.757812 Z M 115.070312 57.742188 C 115.074219 57.90625 115.007812 58.0625 114.882812 58.179688 C 114.757812 58.292969 114.585938 58.359375 114.40625 58.355469 C 114.046875 58.335938 113.761719 58.070312 113.742188 57.742188 L 113.742188 52.859375 C 113.730469 52.691406 113.792969 52.523438 113.917969 52.398438 C 114.046875 52.277344 114.222656 52.207031 114.40625 52.207031 C 114.78125 52.230469 115.074219 52.515625 115.070312 52.859375 Z M 115.070312 57.742188 "/>
<path style=" stroke:none;fill-rule:nonzero;fill:rgb(29.803922%,65.098039%,87.45098%);fill-opacity:1;" d="M 122.742188 57.742188 C 122.75 57.90625 122.679688 58.066406 122.554688 58.179688 C 122.429688 58.296875 122.257812 58.359375 122.078125 58.355469 C 121.71875 58.335938 121.433594 58.070312 121.414062 57.742188 L 121.414062 54.625 C 121.445312 54.273438 121.308594 53.921875 121.03125 53.671875 C 120.757812 53.417969 120.375 53.292969 119.984375 53.320312 C 119.46875 53.296875 118.953125 53.410156 118.5 53.640625 L 118.5 57.738281 C 118.503906 57.898438 118.433594 58.054688 118.308594 58.171875 C 118.183594 58.289062 118.015625 58.351562 117.835938 58.351562 C 117.480469 58.324219 117.199219 58.0625 117.179688 57.738281 L 117.179688 53.257812 C 117.167969 53.066406 117.269531 52.890625 117.441406 52.785156 C 118.207031 52.351562 119.097656 52.136719 120 52.175781 C 121.792969 52.175781 122.734375 53.027344 122.734375 54.582031 Z M 122.742188 57.742188 "/>
<path style=" stroke:none;fill-rule:nonzero;fill:rgb(29.803922%,65.098039%,87.45098%);fill-opacity:1;" d="M 132.230469 58.3125 L 129.371094 58.3125 C 129.09375 58.332031 128.820312 58.242188 128.621094 58.066406 C 128.417969 57.890625 128.308594 57.644531 128.320312 57.390625 L 128.320312 51.226562 C 128.304688 50.972656 128.410156 50.722656 128.605469 50.542969 C 128.804688 50.363281 129.078125 50.273438 129.355469 50.289062 L 132.144531 50.289062 C 132.824219 50.253906 133.492188 50.472656 133.992188 50.894531 C 134.4375 51.277344 134.683594 51.816406 134.664062 52.375 C 134.753906 53.128906 134.292969 53.84375 133.527344 54.136719 C 134.414062 54.386719 134.988281 55.160156 134.914062 56.003906 C 134.914062 57.546875 133.828125 58.3125 132.230469 58.3125 Z M 129.65625 53.648438 L 131.980469 53.648438 C 132.878906 53.648438 133.328125 53.28125 133.328125 52.539062 C 133.328125 51.796875 132.878906 51.445312 131.980469 51.445312 L 129.65625 51.445312 Z M 129.65625 54.730469 L 129.65625 57.148438 L 132.0625 57.148438 C 133.058594 57.148438 133.558594 56.738281 133.558594 55.925781 C 133.574219 55.582031 133.421875 55.253906 133.148438 55.023438 C 132.871094 54.792969 132.5 54.6875 132.128906 54.730469 Z M 129.65625 54.730469 "/>
<path style=" stroke:none;fill-rule:nonzero;fill:rgb(29.803922%,65.098039%,87.45098%);fill-opacity:1;" d="M 136.558594 50.757812 C 136.558594 50.382812 136.890625 50.082031 137.300781 50.082031 C 137.710938 50.082031 138.042969 50.382812 138.042969 50.757812 C 138.042969 51.132812 137.710938 51.4375 137.300781 51.4375 C 136.890625 51.4375 136.558594 51.132812 136.558594 50.757812 Z M 137.984375 57.742188 C 137.988281 57.90625 137.921875 58.0625 137.796875 58.179688 C 137.671875 58.292969 137.5 58.359375 137.320312 58.355469 C 136.960938 58.335938 136.679688 58.070312 136.65625 57.742188 L 136.65625 52.859375 C 136.644531 52.691406 136.707031 52.523438 136.832031 52.398438 C 136.960938 52.277344 137.136719 52.207031 137.320312 52.207031 C 137.695312 52.230469 137.988281 52.515625 137.984375 52.859375 Z M 137.984375 57.742188 "/>
<path style=" stroke:none;fill-rule:nonzero;fill:rgb(29.803922%,65.098039%,87.45098%);fill-opacity:1;" d="M 144.808594 52.824219 C 145.339844 53.234375 145.667969 53.824219 145.714844 54.457031 C 145.75 55 145.75 55.542969 145.714844 56.085938 C 145.675781 56.730469 145.359375 57.335938 144.828125 57.761719 C 144.277344 58.207031 143.5625 58.441406 142.828125 58.414062 C 142.101562 58.4375 141.390625 58.203125 140.84375 57.761719 C 140.308594 57.335938 139.976562 56.734375 139.921875 56.085938 C 139.886719 55.542969 139.886719 55 139.921875 54.457031 C 139.96875 53.828125 140.285156 53.242188 140.808594 52.824219 C 141.976562 51.972656 143.636719 51.972656 144.808594 52.824219 Z M 141.234375 54.640625 C 141.199219 55.074219 141.199219 55.507812 141.234375 55.945312 C 141.292969 56.695312 141.976562 57.28125 142.804688 57.28125 C 143.628906 57.28125 144.316406 56.695312 144.371094 55.945312 C 144.398438 55.507812 144.398438 55.074219 144.371094 54.640625 C 144.277344 53.914062 143.605469 53.367188 142.804688 53.367188 C 142.003906 53.367188 141.328125 53.914062 141.234375 54.640625 Z M 141.234375 54.640625 "/>
<path style=" stroke:none;fill-rule:nonzero;fill:rgb(29.803922%,65.098039%,87.45098%);fill-opacity:1;" d="M 156.363281 57.742188 C 156.367188 57.90625 156.300781 58.0625 156.175781 58.175781 C 156.054688 58.292969 155.882812 58.355469 155.707031 58.355469 C 155.347656 58.335938 155.0625 58.070312 155.042969 57.742188 L 155.042969 54.640625 C 155.042969 53.757812 154.628906 53.335938 153.808594 53.335938 C 153.332031 53.3125 152.875 53.5 152.578125 53.835938 L 152.578125 57.75 C 152.585938 57.914062 152.519531 58.070312 152.394531 58.1875 C 152.269531 58.304688 152.097656 58.367188 151.921875 58.363281 C 151.5625 58.339844 151.277344 58.078125 151.257812 57.75 L 151.257812 54.5625 C 151.257812 53.738281 150.84375 53.328125 150.035156 53.328125 C 149.617188 53.320312 149.203125 53.417969 148.84375 53.609375 L 148.84375 57.742188 C 148.847656 57.90625 148.777344 58.0625 148.652344 58.179688 C 148.527344 58.292969 148.355469 58.359375 148.179688 58.355469 C 147.824219 58.332031 147.542969 58.070312 147.519531 57.742188 L 147.519531 53.28125 C 147.527344 53.085938 147.632812 52.898438 147.808594 52.78125 C 148.449219 52.347656 149.226562 52.117188 150.019531 52.128906 C 150.726562 52.078125 151.417969 52.316406 151.90625 52.78125 C 152.46875 52.363281 153.167969 52.132812 153.894531 52.128906 C 155.5625 52.128906 156.398438 52.929688 156.398438 54.535156 Z M 156.363281 57.742188 "/>
<path style=" stroke:none;fill-rule:nonzero;fill:rgb(29.803922%,65.098039%,87.45098%);fill-opacity:1;" d="M 163.808594 55.035156 C 163.835938 55.238281 163.761719 55.4375 163.605469 55.582031 C 163.445312 55.726562 163.226562 55.792969 163.007812 55.765625 L 159.4375 55.765625 L 159.4375 55.90625 C 159.410156 56.300781 159.582031 56.691406 159.898438 56.960938 C 160.21875 57.234375 160.652344 57.367188 161.085938 57.320312 C 161.574219 57.300781 162.058594 57.207031 162.515625 57.046875 C 162.699219 56.953125 162.925781 56.953125 163.109375 57.050781 C 163.292969 57.144531 163.410156 57.320312 163.414062 57.515625 C 163.414062 57.730469 163.285156 57.925781 163.078125 58.023438 C 162.453125 58.320312 161.753906 58.460938 161.050781 58.421875 C 160.300781 58.46875 159.566406 58.234375 159.015625 57.769531 C 158.464844 57.304688 158.148438 56.652344 158.144531 55.96875 C 158.105469 55.5 158.105469 55.03125 158.144531 54.5625 C 158.183594 53.894531 158.515625 53.273438 159.058594 52.824219 C 159.601562 52.386719 160.308594 52.152344 161.035156 52.175781 C 161.785156 52.140625 162.515625 52.402344 163.046875 52.886719 C 163.574219 53.375 163.851562 54.046875 163.808594 54.730469 Z M 162.378906 54.808594 C 162.464844 54.808594 162.515625 54.761719 162.527344 54.671875 C 162.585938 54.292969 162.453125 53.90625 162.164062 53.628906 C 161.875 53.351562 161.460938 53.207031 161.042969 53.238281 C 160.59375 53.203125 160.152344 53.359375 159.847656 53.664062 C 159.539062 53.964844 159.402344 54.375 159.472656 54.78125 Z M 162.378906 54.808594 "/>
<path style=" stroke:none;fill-rule:nonzero;fill:rgb(29.803922%,65.098039%,87.45098%);fill-opacity:1;" d="M 168.019531 52.175781 C 168.585938 52.179688 169.144531 52.292969 169.65625 52.507812 L 169.65625 50.777344 C 169.679688 50.449219 169.960938 50.1875 170.320312 50.164062 C 170.5 50.164062 170.671875 50.226562 170.796875 50.34375 C 170.921875 50.457031 170.988281 50.617188 170.984375 50.777344 L 170.984375 57.261719 C 171 57.441406 170.90625 57.617188 170.742188 57.71875 C 170.414062 57.921875 170.058594 58.082031 169.6875 58.199219 C 169.207031 58.347656 168.707031 58.421875 168.199219 58.421875 C 167.476562 58.46875 166.761719 58.246094 166.222656 57.804688 C 165.683594 57.359375 165.367188 56.734375 165.34375 56.074219 C 165.292969 55.535156 165.292969 54.996094 165.34375 54.457031 C 165.339844 53.820312 165.625 53.214844 166.132812 52.78125 C 166.644531 52.347656 167.328125 52.125 168.019531 52.175781 Z M 168.222656 57.273438 C 168.730469 57.253906 169.222656 57.113281 169.648438 56.863281 L 169.648438 53.679688 C 169.1875 53.429688 168.652344 53.308594 168.113281 53.328125 C 167.730469 53.289062 167.351562 53.410156 167.074219 53.65625 C 166.796875 53.898438 166.65625 54.242188 166.6875 54.59375 C 166.652344 55.027344 166.652344 55.464844 166.6875 55.898438 C 166.667969 56.269531 166.824219 56.636719 167.117188 56.894531 C 167.410156 57.15625 167.8125 57.289062 168.222656 57.261719 Z M 168.222656 57.273438 "/>
<path style=" stroke:none;fill-rule:nonzero;fill:rgb(29.803922%,65.098039%,87.45098%);fill-opacity:1;" d="M 172.972656 50.757812 C 172.972656 50.382812 173.304688 50.078125 173.71875 50.078125 C 174.128906 50.078125 174.464844 50.382812 174.464844 50.757812 C 174.46875 51.128906 174.152344 51.4375 173.75 51.457031 C 173.539062 51.472656 173.332031 51.40625 173.183594 51.273438 C 173.035156 51.136719 172.957031 50.949219 172.972656 50.757812 Z M 174.398438 57.742188 C 174.402344 57.90625 174.335938 58.0625 174.210938 58.179688 C 174.085938 58.292969 173.914062 58.359375 173.734375 58.355469 C 173.378906 58.332031 173.097656 58.070312 173.078125 57.742188 L 173.078125 52.859375 C 173.066406 52.691406 173.128906 52.527344 173.253906 52.402344 C 173.375 52.277344 173.550781 52.207031 173.734375 52.207031 C 174.109375 52.230469 174.402344 52.515625 174.398438 52.859375 Z M 174.398438 57.742188 "/>
<path style=" stroke:none;fill-rule:nonzero;fill:rgb(29.803922%,65.098039%,87.45098%);fill-opacity:1;" d="M 180.714844 56.4375 C 180.816406 56.230469 181.042969 56.101562 181.292969 56.105469 C 181.472656 56.109375 181.644531 56.179688 181.761719 56.304688 C 181.882812 56.429688 181.9375 56.59375 181.914062 56.757812 C 181.859375 57.207031 181.601562 57.609375 181.199219 57.875 C 180.660156 58.28125 179.972656 58.488281 179.269531 58.453125 C 178.539062 58.480469 177.820312 58.246094 177.269531 57.800781 C 176.71875 57.367188 176.382812 56.75 176.335938 56.085938 C 176.300781 55.546875 176.300781 55.007812 176.335938 54.46875 C 176.371094 53.835938 176.6875 53.242188 177.214844 52.824219 C 177.773438 52.390625 178.488281 52.15625 179.222656 52.175781 C 179.917969 52.140625 180.597656 52.347656 181.136719 52.753906 C 181.539062 53.019531 181.796875 53.425781 181.851562 53.875 C 181.863281 54.035156 181.800781 54.1875 181.683594 54.304688 C 181.566406 54.421875 181.402344 54.488281 181.230469 54.488281 C 180.980469 54.5 180.753906 54.367188 180.664062 54.15625 C 180.355469 53.582031 179.675781 53.261719 178.984375 53.359375 C 178.292969 53.460938 177.753906 53.960938 177.65625 54.59375 C 177.613281 55.042969 177.613281 55.5 177.65625 55.949219 C 177.671875 56.316406 177.847656 56.664062 178.148438 56.910156 C 178.445312 57.15625 178.839844 57.28125 179.242188 57.253906 C 179.878906 57.3125 180.476562 56.980469 180.714844 56.4375 Z M 180.714844 56.4375 "/>
<path style=" stroke:none;fill-rule:nonzero;fill:rgb(29.803922%,65.098039%,87.45098%);fill-opacity:1;" d="M 183.464844 50.757812 C 183.464844 50.382812 183.796875 50.082031 184.207031 50.082031 C 184.617188 50.082031 184.949219 50.382812 184.949219 50.757812 C 184.949219 51.132812 184.617188 51.4375 184.207031 51.4375 C 183.796875 51.4375 183.464844 51.132812 183.464844 50.757812 Z M 184.894531 57.742188 C 184.898438 57.90625 184.828125 58.0625 184.707031 58.175781 C 184.582031 58.292969 184.414062 58.355469 184.234375 58.355469 C 183.875 58.335938 183.59375 58.070312 183.570312 57.742188 L 183.570312 52.859375 C 183.558594 52.691406 183.621094 52.523438 183.746094 52.398438 C 183.875 52.277344 184.050781 52.207031 184.234375 52.207031 C 184.417969 52.210938 184.59375 52.28125 184.71875 52.40625 C 184.839844 52.527344 184.90625 52.691406 184.894531 52.859375 Z M 184.894531 57.742188 "/>
<path style=" stroke:none;fill-rule:nonzero;fill:rgb(29.803922%,65.098039%,87.45098%);fill-opacity:1;" d="M 192.5625 57.742188 C 192.570312 57.90625 192.503906 58.066406 192.375 58.179688 C 192.25 58.296875 192.078125 58.359375 191.898438 58.355469 C 191.542969 58.335938 191.257812 58.070312 191.234375 57.742188 L 191.234375 54.625 C 191.269531 54.273438 191.128906 53.921875 190.851562 53.671875 C 190.578125 53.417969 190.195312 53.292969 189.808594 53.320312 C 189.289062 53.296875 188.773438 53.40625 188.320312 53.640625 L 188.320312 57.738281 C 188.324219 57.898438 188.257812 58.054688 188.132812 58.171875 C 188.007812 58.289062 187.835938 58.351562 187.65625 58.351562 C 187.300781 58.324219 187.019531 58.0625 187 57.738281 L 187 53.257812 C 186.988281 53.070312 187.085938 52.890625 187.257812 52.785156 C 188.027344 52.335938 188.929688 52.105469 189.84375 52.136719 C 191.644531 52.136719 192.585938 52.988281 192.585938 54.542969 Z M 192.5625 57.742188 "/>
<path style=" stroke:none;fill-rule:nonzero;fill:rgb(29.803922%,65.098039%,87.45098%);fill-opacity:1;" d="M 200 55.035156 C 200.027344 55.238281 199.953125 55.4375 199.796875 55.582031 C 199.640625 55.726562 199.417969 55.792969 199.199219 55.765625 L 195.664062 55.765625 L 195.664062 55.90625 C 195.640625 56.300781 195.808594 56.691406 196.128906 56.960938 C 196.445312 57.234375 196.878906 57.367188 197.3125 57.320312 C 197.804688 57.300781 198.285156 57.207031 198.742188 57.046875 C 198.929688 56.953125 199.152344 56.953125 199.335938 57.050781 C 199.519531 57.144531 199.636719 57.320312 199.644531 57.515625 C 199.648438 57.738281 199.507812 57.945312 199.285156 58.042969 C 198.660156 58.339844 197.960938 58.480469 197.257812 58.441406 C 196.507812 58.488281 195.773438 58.253906 195.222656 57.789062 C 194.671875 57.324219 194.355469 56.671875 194.351562 55.988281 C 194.3125 55.519531 194.3125 55.050781 194.351562 54.582031 C 194.382812 53.910156 194.707031 53.277344 195.25 52.824219 C 195.792969 52.386719 196.503906 52.152344 197.230469 52.175781 C 197.976562 52.140625 198.703125 52.398438 199.230469 52.882812 C 199.761719 53.367188 200.039062 54.035156 200 54.71875 Z M 198.570312 54.78125 C 198.65625 54.78125 198.707031 54.738281 198.722656 54.644531 C 198.777344 54.265625 198.644531 53.882812 198.355469 53.601562 C 198.066406 53.324219 197.65625 53.179688 197.234375 53.210938 C 196.78125 53.175781 196.335938 53.335938 196.027344 53.644531 C 195.71875 53.953125 195.585938 54.371094 195.664062 54.78125 Z M 198.570312 54.78125 "/>
<path style=" stroke:none;fill-rule:nonzero;fill:rgb(29.803922%,65.098039%,87.45098%);fill-opacity:1;" d="M 20 31.234375 L 25 31.234375 L 25 22.421875 C 23.457031 23.6875 21.78125 24.816406 20 25.785156 Z M 20 31.234375 "/>
<path style=" stroke:none;fill-rule:nonzero;fill:rgb(29.803922%,65.098039%,87.45098%);fill-opacity:1;" d="M 36.699219 8.230469 L 36.699219 16.175781 C 34.828125 15.371094 32.785156 14.953125 30.714844 14.949219 C 28.746094 14.960938 26.804688 15.339844 25 16.054688 L 25 8.230469 L 20 8.230469 L 20 19.390625 L 19.5625 19.714844 C 15.828125 22.199219 10.652344 21.757812 7.488281 18.683594 C 4.320312 15.613281 4.152344 10.867188 7.09375 7.613281 C 10.035156 4.359375 15.167969 3.613281 19.070312 5.871094 L 19.070312 0.808594 C 17.5 0.273438 15.839844 0 14.164062 0 C 6.339844 0 0 5.789062 0 12.933594 C 0 20.074219 6.339844 25.863281 14.164062 25.863281 C 16.003906 25.863281 17.824219 25.535156 19.527344 24.898438 C 19.691406 24.847656 19.847656 24.789062 20 24.71875 C 21.78125 23.746094 23.457031 22.617188 25 21.351562 L 25.0625 21.300781 C 28.519531 18.8125 33.429688 18.921875 36.742188 21.566406 L 36.742188 31.234375 L 41.742188 31.234375 L 41.742188 8.230469 Z M 36.699219 8.230469 "/>
<path style=" stroke:none;fill-rule:nonzero;fill:rgb(29.803922%,65.098039%,87.45098%);fill-opacity:1;" d="M 9.328125 13.863281 C 9.359375 13.679688 9.359375 13.488281 9.328125 13.304688 C 9.328125 12.894531 9.257812 12.496094 9.214844 12.089844 C 9 11.121094 9.15625 10.113281 9.65625 9.234375 C 9.792969 9.039062 9.953125 8.859375 10.136719 8.699219 C 10.136719 8.699219 10.136719 8.699219 10.171875 8.667969 C 10.945312 8 11.964844 7.617188 13.027344 7.589844 C 13.527344 7.574219 14.027344 7.632812 14.507812 7.761719 C 15 7.882812 15.476562 8.042969 15.9375 8.242188 C 16.128906 8.34375 16.316406 8.453125 16.492188 8.574219 C 16.664062 8.695312 16.8125 8.835938 16.9375 8.992188 C 17.261719 9.398438 17.34375 9.925781 17.148438 10.394531 C 17.132812 10.4375 17.109375 10.480469 17.085938 10.519531 L 17.015625 10.628906 C 17.023438 10.546875 17.023438 10.460938 17.015625 10.375 C 16.988281 10.484375 16.914062 10.582031 16.8125 10.644531 C 16.796875 10.722656 16.773438 10.800781 16.742188 10.878906 C 16.652344 11.015625 16.578125 11.160156 16.527344 11.316406 L 16.527344 11.398438 C 16.730469 11.398438 16.75 11.28125 16.75 11.347656 C 16.75 11.414062 16.578125 11.472656 16.519531 11.496094 C 16.578125 11.765625 16.710938 12.011719 16.90625 12.214844 C 17.042969 12.339844 17.179688 12.4375 17.242188 12.515625 C 17.394531 12.71875 16.992188 12.917969 16.921875 13.003906 C 16.984375 13.140625 17.027344 13.15625 17.050781 13.234375 C 17.070312 13.3125 16.792969 13.402344 16.855469 13.488281 C 16.921875 13.570312 16.949219 13.707031 16.855469 13.773438 C 16.59375 13.945312 16.628906 13.988281 16.707031 14.355469 C 16.785156 14.71875 16.550781 14.863281 16.257812 14.929688 C 15.964844 14.992188 15.214844 14.757812 14.972656 14.929688 C 14.421875 15.3125 13.984375 16.128906 15.414062 18.007812 C 15.527344 18.148438 15.929688 18.585938 15.671875 18.585938 C 14.59375 18.585938 12.8125 16.472656 10.300781 17.851562 C 9.980469 18.027344 11.414062 16.175781 11.636719 15.195312 C 11.371094 15.160156 11.121094 15.050781 10.921875 14.890625 C 10.953125 15.007812 11.035156 15.109375 11.148438 15.167969 C 11.109375 15.164062 11.070312 15.164062 11.027344 15.167969 L 10.914062 15.167969 C 10.609375 15.1875 10.308594 15.113281 10.058594 14.953125 C 9.921875 14.867188 9.820312 14.742188 9.769531 14.59375 C 9.738281 14.476562 9.71875 14.355469 9.714844 14.230469 C 9.679688 14.324219 9.609375 14.402344 9.519531 14.457031 C 9.390625 14.539062 9.226562 14.570312 9.070312 14.542969 C 9.210938 14.339844 9.300781 14.105469 9.328125 13.863281 Z M 9.328125 13.863281 "/>
<path style=" stroke:none;fill-rule:nonzero;fill:rgb(7.45098%,26.27451%,45.882353%);fill-opacity:1;" d="M 57.34375 15.40625 C 57.488281 15.074219 57.84375 14.859375 58.234375 14.863281 C 58.769531 14.867188 59.210938 15.25 59.234375 15.738281 C 59.238281 15.910156 59.203125 16.078125 59.136719 16.238281 C 58.417969 17.605469 56.886719 18.449219 55.230469 18.398438 C 52.835938 18.433594 50.851562 16.71875 50.757812 14.535156 C 50.699219 13.816406 50.699219 13.09375 50.757812 12.371094 C 50.84375 10.179688 52.828125 8.453125 55.230469 8.476562 C 56.886719 8.425781 58.421875 9.273438 59.136719 10.644531 C 59.203125 10.804688 59.238281 10.972656 59.234375 11.144531 C 59.222656 11.570312 58.886719 11.925781 58.433594 12.003906 C 57.976562 12.082031 57.523438 11.863281 57.34375 11.472656 C 56.941406 10.730469 56.105469 10.265625 55.199219 10.277344 C 53.769531 10.277344 52.855469 11.257812 52.757812 12.59375 C 52.707031 13.171875 52.707031 13.753906 52.757812 14.335938 C 52.734375 14.933594 52.984375 15.515625 53.445312 15.941406 C 53.910156 16.371094 54.542969 16.605469 55.199219 16.589844 C 56.105469 16.609375 56.941406 16.144531 57.34375 15.40625 Z M 57.34375 15.40625 "/>
<path style=" stroke:none;fill-rule:nonzero;fill:rgb(7.45098%,26.27451%,45.882353%);fill-opacity:1;" d="M 63.171875 11.394531 C 63.71875 11.035156 64.378906 10.851562 65.050781 10.863281 C 66.941406 10.863281 68.0625 11.894531 68.0625 13.839844 L 68.0625 17.339844 C 68.0625 17.84375 67.617188 18.253906 67.0625 18.253906 C 66.511719 18.253906 66.0625 17.84375 66.0625 17.339844 L 66.0625 13.9375 C 66.113281 13.59375 65.992188 13.246094 65.730469 12.992188 C 65.472656 12.742188 65.101562 12.609375 64.722656 12.632812 C 64.144531 12.628906 63.585938 12.835938 63.171875 13.199219 L 63.171875 17.355469 C 63.179688 17.597656 63.082031 17.835938 62.898438 18.011719 C 62.714844 18.1875 62.460938 18.289062 62.191406 18.292969 C 61.628906 18.285156 61.179688 17.867188 61.179688 17.355469 L 61.179688 9.40625 C 61.167969 8.90625 61.597656 8.492188 62.144531 8.476562 C 62.414062 8.480469 62.671875 8.582031 62.859375 8.757812 C 63.046875 8.933594 63.148438 9.171875 63.144531 9.417969 Z M 63.171875 11.394531 "/>
<path style=" stroke:none;fill-rule:nonzero;fill:rgb(7.45098%,26.27451%,45.882353%);fill-opacity:1;" d="M 71.179688 10.15625 C 70.894531 10.152344 70.621094 10.046875 70.421875 9.859375 C 70.222656 9.675781 70.117188 9.421875 70.121094 9.164062 C 70.113281 8.90625 70.222656 8.65625 70.421875 8.472656 C 70.621094 8.289062 70.894531 8.191406 71.179688 8.199219 C 71.460938 8.195312 71.730469 8.296875 71.929688 8.480469 C 72.125 8.660156 72.238281 8.90625 72.234375 9.164062 C 72.234375 9.699219 71.765625 10.140625 71.179688 10.15625 Z M 72.179688 11.84375 L 72.179688 17.367188 C 72.183594 17.613281 72.082031 17.851562 71.894531 18.027344 C 71.707031 18.203125 71.449219 18.304688 71.179688 18.304688 C 70.621094 18.292969 70.179688 17.875 70.179688 17.367188 L 70.179688 11.84375 C 70.167969 11.597656 70.265625 11.355469 70.457031 11.175781 C 70.644531 11 70.90625 10.902344 71.179688 10.90625 C 71.449219 10.90625 71.707031 11.007812 71.894531 11.183594 C 72.082031 11.359375 72.183594 11.597656 72.179688 11.84375 Z M 72.179688 11.84375 "/>
<path style=" stroke:none;fill-rule:nonzero;fill:rgb(7.45098%,26.27451%,45.882353%);fill-opacity:1;" d="M 76.429688 9.429688 L 76.429688 17.367188 C 76.4375 17.613281 76.339844 17.851562 76.152344 18.03125 C 75.964844 18.207031 75.707031 18.308594 75.4375 18.304688 C 74.878906 18.296875 74.433594 17.878906 74.4375 17.367188 L 74.4375 9.429688 C 74.402344 9.085938 74.585938 8.757812 74.90625 8.574219 C 75.230469 8.394531 75.636719 8.394531 75.957031 8.574219 C 76.277344 8.757812 76.460938 9.085938 76.429688 9.429688 Z M 76.429688 9.429688 "/>
<path style=" stroke:none;fill-rule:nonzero;fill:rgb(7.45098%,26.27451%,45.882353%);fill-opacity:1;" d="M 81.601562 10.863281 C 82.203125 10.878906 82.800781 10.996094 83.355469 11.203125 L 83.355469 9.40625 C 83.351562 8.894531 83.800781 8.480469 84.355469 8.476562 C 84.625 8.476562 84.886719 8.578125 85.070312 8.753906 C 85.257812 8.933594 85.359375 9.171875 85.351562 9.417969 L 85.351562 16.863281 C 85.386719 17.128906 85.246094 17.386719 84.992188 17.515625 C 84.058594 18.066406 82.972656 18.359375 81.863281 18.359375 C 80.984375 18.417969 80.113281 18.152344 79.449219 17.621094 C 78.785156 17.089844 78.382812 16.335938 78.335938 15.527344 C 78.285156 14.902344 78.285156 14.273438 78.335938 13.648438 C 78.332031 12.875 78.683594 12.136719 79.304688 11.609375 C 79.921875 11.078125 80.753906 10.8125 81.601562 10.863281 Z M 81.90625 16.605469 C 82.417969 16.589844 82.914062 16.441406 83.335938 16.179688 L 83.335938 12.972656 C 82.855469 12.734375 82.316406 12.609375 81.769531 12.605469 C 81.378906 12.574219 80.992188 12.699219 80.710938 12.949219 C 80.425781 13.199219 80.28125 13.550781 80.308594 13.910156 C 80.277344 14.34375 80.277344 14.78125 80.308594 15.214844 C 80.277344 15.605469 80.4375 15.984375 80.746094 16.253906 C 81.058594 16.523438 81.484375 16.652344 81.90625 16.605469 Z M 81.90625 16.605469 "/>
<path style=" stroke:none;fill-rule:nonzero;fill:rgb(7.45098%,26.27451%,45.882353%);fill-opacity:1;" d="M 92.257812 11.910156 C 92.253906 12.382812 91.832031 12.765625 91.3125 12.769531 C 90.972656 12.769531 90.644531 12.632812 90.199219 12.644531 C 89.757812 12.660156 89.421875 12.898438 89.421875 13.527344 L 89.421875 17.378906 C 89.453125 17.722656 89.269531 18.054688 88.949219 18.234375 C 88.628906 18.414062 88.222656 18.414062 87.902344 18.234375 C 87.578125 18.054688 87.398438 17.722656 87.429688 17.378906 L 87.429688 13.1875 C 87.367188 12.542969 87.628906 11.90625 88.136719 11.457031 C 88.644531 11.007812 89.347656 10.789062 90.050781 10.863281 C 90.480469 10.859375 90.90625 10.894531 91.328125 10.96875 C 91.847656 11.03125 92.242188 11.429688 92.257812 11.910156 Z M 92.257812 11.910156 "/>
<path style=" stroke:none;fill-rule:nonzero;fill:rgb(7.45098%,26.27451%,45.882353%);fill-opacity:1;" d="M 100.078125 14.347656 C 100.109375 14.601562 100.011719 14.855469 99.808594 15.035156 C 99.609375 15.214844 99.328125 15.296875 99.050781 15.261719 L 95.085938 15.261719 L 95.085938 15.398438 C 95.085938 16.257812 95.800781 16.703125 96.800781 16.703125 C 97.347656 16.691406 97.890625 16.589844 98.398438 16.402344 C 98.675781 16.269531 99.007812 16.277344 99.273438 16.425781 C 99.542969 16.570312 99.707031 16.835938 99.707031 17.121094 C 99.710938 17.441406 99.515625 17.738281 99.199219 17.882812 C 98.433594 18.222656 97.59375 18.382812 96.742188 18.359375 C 95.851562 18.410156 94.972656 18.136719 94.300781 17.59375 C 93.632812 17.054688 93.226562 16.292969 93.171875 15.476562 C 93.136719 14.910156 93.136719 14.339844 93.171875 13.773438 C 93.214844 12.964844 93.609375 12.203125 94.269531 11.660156 C 94.929688 11.113281 95.796875 10.832031 96.6875 10.878906 C 97.613281 10.832031 98.519531 11.148438 99.171875 11.753906 C 99.824219 12.359375 100.164062 13.1875 100.101562 14.035156 Z M 97.992188 14.023438 C 98.101562 14.023438 98.15625 13.96875 98.15625 13.859375 C 98.203125 13.484375 98.0625 13.109375 97.773438 12.839844 C 97.484375 12.570312 97.074219 12.4375 96.664062 12.476562 C 96.214844 12.445312 95.777344 12.605469 95.46875 12.902344 C 95.164062 13.203125 95.023438 13.617188 95.085938 14.023438 Z M 97.992188 14.023438 "/>
<path style=" stroke:none;fill-rule:nonzero;fill:rgb(7.45098%,26.27451%,45.882353%);fill-opacity:1;" d="M 108.730469 17.367188 C 108.734375 17.613281 108.632812 17.851562 108.445312 18.03125 C 108.257812 18.207031 108 18.304688 107.730469 18.304688 C 107.171875 18.292969 106.726562 17.875 106.730469 17.367188 L 106.730469 13.925781 C 106.761719 13.570312 106.621094 13.21875 106.347656 12.96875 C 106.070312 12.71875 105.6875 12.589844 105.300781 12.621094 C 104.789062 12.613281 104.285156 12.726562 103.835938 12.945312 L 103.835938 17.339844 C 103.84375 17.589844 103.746094 17.828125 103.554688 18.003906 C 103.367188 18.183594 103.105469 18.28125 102.835938 18.28125 C 102.28125 18.265625 101.839844 17.847656 101.84375 17.339844 L 101.84375 12.273438 C 101.816406 12.011719 101.953125 11.757812 102.199219 11.621094 C 103.152344 11.097656 104.246094 10.839844 105.355469 10.878906 C 107.59375 10.878906 108.742188 11.949219 108.742188 13.851562 Z M 108.730469 17.367188 "/>
<path style=" stroke:none;fill-rule:nonzero;fill:rgb(7.45098%,26.27451%,45.882353%);fill-opacity:1;" d="M 112.078125 10.113281 C 112.097656 10.683594 111.949219 11.246094 111.648438 11.746094 C 111.46875 12.074219 111.109375 12.28125 110.707031 12.292969 C 110.261719 12.300781 109.890625 11.976562 109.878906 11.570312 C 109.878906 11.160156 110.277344 10.917969 110.277344 10.195312 L 110.277344 9.40625 C 110.277344 9.1875 110.371094 8.980469 110.539062 8.832031 C 110.707031 8.679688 110.933594 8.597656 111.171875 8.601562 C 111.410156 8.597656 111.636719 8.679688 111.808594 8.828125 C 111.980469 8.980469 112.078125 9.1875 112.078125 9.40625 Z M 112.078125 10.113281 "/>
<path style=" stroke:none;fill-rule:nonzero;fill:rgb(7.45098%,26.27451%,45.882353%);fill-opacity:1;" d="M 118.9375 15.976562 C 118.9375 17.503906 117.550781 18.34375 115.820312 18.34375 C 114.796875 18.402344 113.78125 18.125 112.964844 17.554688 C 112.570312 17.277344 112.5 16.753906 112.808594 16.394531 C 113.113281 16.035156 113.683594 15.972656 114.078125 16.253906 C 114.609375 16.554688 115.222656 16.710938 115.851562 16.703125 C 116.628906 16.703125 116.984375 16.441406 116.984375 16.050781 C 116.984375 15.660156 116.75 15.546875 116.121094 15.398438 C 115.492188 15.246094 115.601562 15.300781 115.015625 15.164062 C 113.792969 14.875 112.871094 14.25 112.871094 13.082031 C 112.871094 11.613281 114.164062 10.8125 115.914062 10.8125 C 116.773438 10.777344 117.621094 10.992188 118.34375 11.417969 C 118.53125 11.570312 118.648438 11.78125 118.664062 12.007812 C 118.679688 12.238281 118.59375 12.460938 118.429688 12.632812 C 118.078125 12.933594 117.542969 12.980469 117.136719 12.742188 C 116.730469 12.5625 116.289062 12.460938 115.835938 12.445312 C 115.121094 12.445312 114.777344 12.703125 114.777344 13.03125 C 114.777344 13.355469 115 13.507812 115.671875 13.644531 L 116.730469 13.859375 C 118.207031 14.238281 118.9375 14.902344 118.9375 15.976562 Z M 118.9375 15.976562 "/>
<path style=" stroke:none;fill-rule:nonzero;fill:rgb(7.45098%,26.27451%,45.882353%);fill-opacity:1;" d="M 124.363281 9.527344 C 124.359375 9.007812 124.820312 8.578125 125.394531 8.574219 C 125.671875 8.570312 125.9375 8.667969 126.132812 8.847656 C 126.332031 9.03125 126.4375 9.273438 126.429688 9.527344 L 126.429688 12.535156 L 131.148438 12.535156 L 131.148438 9.527344 C 131.144531 9.019531 131.585938 8.597656 132.144531 8.574219 C 132.417969 8.574219 132.683594 8.671875 132.878906 8.851562 C 133.074219 9.03125 133.179688 9.277344 133.171875 9.527344 L 133.171875 17.355469 C 133.171875 17.871094 132.710938 18.292969 132.144531 18.292969 C 131.574219 18.273438 131.128906 17.847656 131.128906 17.328125 L 131.128906 14.347656 L 126.429688 14.347656 L 126.429688 17.328125 C 126.4375 17.578125 126.335938 17.820312 126.144531 18.003906 C 125.953125 18.183594 125.6875 18.28125 125.414062 18.28125 C 124.84375 18.273438 124.386719 17.847656 124.386719 17.328125 Z M 124.363281 9.527344 "/>
<path style=" stroke:none;fill-rule:nonzero;fill:rgb(7.45098%,26.27451%,45.882353%);fill-opacity:1;" d="M 138.777344 18.34375 C 136.96875 18.449219 135.394531 17.230469 135.207031 15.585938 C 135.164062 14.933594 135.164062 14.28125 135.207031 13.628906 C 135.5 12.039062 137.011719 10.871094 138.777344 10.871094 C 140.546875 10.871094 142.058594 12.039062 142.351562 13.628906 C 142.394531 14.28125 142.394531 14.933594 142.351562 15.585938 C 142.171875 17.238281 140.589844 18.460938 138.777344 18.34375 Z M 140.355469 13.925781 C 140.347656 13.558594 140.171875 13.210938 139.875 12.964844 C 139.574219 12.71875 139.179688 12.59375 138.777344 12.621094 C 138.375 12.59375 137.980469 12.71875 137.679688 12.964844 C 137.378906 13.210938 137.203125 13.554688 137.1875 13.925781 C 137.148438 14.378906 137.148438 14.832031 137.1875 15.285156 C 137.203125 15.65625 137.378906 16 137.679688 16.246094 C 137.980469 16.492188 138.375 16.617188 138.777344 16.589844 C 139.179688 16.617188 139.574219 16.492188 139.871094 16.246094 C 140.167969 16 140.34375 15.652344 140.355469 15.285156 C 140.386719 14.832031 140.386719 14.378906 140.355469 13.925781 Z M 140.355469 13.925781 "/>
<path style=" stroke:none;fill-rule:nonzero;fill:rgb(7.45098%,26.27451%,45.882353%);fill-opacity:1;" d="M 150.105469 15.976562 C 150.105469 17.503906 148.722656 18.34375 146.992188 18.34375 C 145.96875 18.402344 144.953125 18.125 144.136719 17.554688 C 143.769531 17.277344 143.691406 16.789062 143.957031 16.429688 C 144.105469 16.246094 144.324219 16.128906 144.570312 16.097656 C 144.8125 16.066406 145.0625 16.128906 145.257812 16.265625 C 145.789062 16.570312 146.402344 16.726562 147.027344 16.714844 C 147.808594 16.714844 148.164062 16.453125 148.164062 16.0625 C 148.164062 15.671875 147.921875 15.5625 147.300781 15.410156 C 146.679688 15.261719 146.777344 15.3125 146.191406 15.175781 C 144.972656 14.890625 144.050781 14.261719 144.050781 13.09375 C 144.050781 11.628906 145.34375 10.824219 147.085938 10.824219 C 147.945312 10.789062 148.792969 11.003906 149.515625 11.433594 C 149.707031 11.582031 149.824219 11.792969 149.839844 12.019531 C 149.859375 12.25 149.773438 12.476562 149.605469 12.644531 C 149.253906 12.949219 148.71875 12.996094 148.308594 12.757812 C 147.902344 12.574219 147.464844 12.472656 147.015625 12.457031 C 146.300781 12.457031 145.957031 12.71875 145.957031 13.042969 C 145.957031 13.371094 146.179688 13.519531 146.851562 13.65625 L 147.90625 13.871094 C 149.378906 14.238281 150.105469 14.902344 150.105469 15.976562 Z M 150.105469 15.976562 "/>
<path style=" stroke:none;fill-rule:nonzero;fill:rgb(7.45098%,26.27451%,45.882353%);fill-opacity:1;" d="M 155.398438 18.34375 C 154.8125 18.351562 154.230469 18.238281 153.699219 18.007812 L 153.699219 20.035156 C 153.699219 20.539062 153.253906 20.949219 152.699219 20.949219 C 152.148438 20.949219 151.699219 20.539062 151.699219 20.035156 L 151.699219 12.207031 C 151.683594 12.023438 151.785156 11.84375 151.957031 11.746094 C 152.925781 11.164062 154.0625 10.859375 155.222656 10.863281 C 156.097656 10.804688 156.964844 11.074219 157.625 11.605469 C 158.285156 12.140625 158.679688 12.894531 158.722656 13.695312 C 158.765625 14.316406 158.765625 14.933594 158.722656 15.554688 C 158.714844 16.335938 158.351562 17.078125 157.722656 17.605469 C 157.09375 18.136719 156.253906 18.402344 155.398438 18.34375 Z M 155.171875 12.621094 C 154.652344 12.632812 154.144531 12.773438 153.699219 13.023438 L 153.699219 16.238281 C 154.160156 16.476562 154.679688 16.601562 155.207031 16.605469 C 155.605469 16.648438 156.003906 16.527344 156.296875 16.273438 C 156.589844 16.023438 156.746094 15.667969 156.722656 15.300781 C 156.757812 14.867188 156.757812 14.429688 156.722656 13.996094 C 156.746094 13.617188 156.589844 13.246094 156.292969 12.984375 C 155.992188 12.71875 155.585938 12.585938 155.171875 12.621094 Z M 155.171875 12.621094 "/>
<path style=" stroke:none;fill-rule:nonzero;fill:rgb(7.45098%,26.27451%,45.882353%);fill-opacity:1;" d="M 161.722656 10.15625 C 161.4375 10.152344 161.164062 10.046875 160.964844 9.859375 C 160.761719 9.675781 160.652344 9.421875 160.65625 9.164062 C 160.652344 8.902344 160.761719 8.65625 160.960938 8.472656 C 161.164062 8.289062 161.4375 8.191406 161.722656 8.199219 C 162.003906 8.195312 162.273438 8.296875 162.472656 8.480469 C 162.667969 8.660156 162.78125 8.90625 162.777344 9.164062 C 162.777344 9.699219 162.308594 10.140625 161.722656 10.15625 Z M 162.714844 11.84375 L 162.714844 17.367188 C 162.722656 17.613281 162.621094 17.851562 162.433594 18.027344 C 162.246094 18.203125 161.992188 18.304688 161.722656 18.304688 C 161.164062 18.292969 160.722656 17.875 160.722656 17.367188 L 160.722656 11.84375 C 160.710938 11.597656 160.808594 11.355469 161 11.175781 C 161.1875 11 161.449219 10.902344 161.722656 10.90625 C 161.992188 10.90625 162.246094 11.007812 162.433594 11.183594 C 162.621094 11.359375 162.722656 11.597656 162.714844 11.84375 Z M 162.714844 11.84375 "/>
<path style=" stroke:none;fill-rule:nonzero;fill:rgb(7.45098%,26.27451%,45.882353%);fill-opacity:1;" d="M 167.550781 18.34375 C 165.699219 18.34375 164.863281 17.191406 164.863281 15.664062 L 164.863281 10.292969 C 164.855469 10.042969 164.957031 9.800781 165.144531 9.621094 C 165.332031 9.441406 165.59375 9.339844 165.863281 9.339844 C 166.136719 9.34375 166.394531 9.445312 166.582031 9.625 C 166.769531 9.804688 166.871094 10.042969 166.863281 10.292969 L 166.863281 11.21875 L 168.722656 11.21875 C 169.207031 11.21875 169.601562 11.578125 169.601562 12.019531 C 169.601562 12.460938 169.207031 12.820312 168.722656 12.820312 L 166.863281 12.820312 L 166.863281 15.652344 C 166.863281 16.304688 167.171875 16.65625 167.828125 16.65625 C 168.144531 16.644531 168.457031 16.59375 168.757812 16.507812 C 169.03125 16.410156 169.34375 16.441406 169.589844 16.589844 C 169.835938 16.738281 169.988281 16.988281 170 17.257812 C 169.996094 17.617188 169.746094 17.9375 169.371094 18.058594 C 168.792969 18.265625 168.171875 18.363281 167.550781 18.34375 Z M 167.550781 18.34375 "/>
<path style=" stroke:none;fill-rule:nonzero;fill:rgb(7.45098%,26.27451%,45.882353%);fill-opacity:1;" d="M 177.578125 16.957031 C 177.617188 17.21875 177.476562 17.476562 177.222656 17.609375 C 176.273438 18.132812 175.183594 18.390625 174.078125 18.359375 C 171.9375 18.359375 170.929688 17.257812 170.929688 15.964844 C 170.929688 14.8125 171.808594 13.746094 174 13.746094 C 174.558594 13.75 175.117188 13.816406 175.65625 13.949219 L 175.65625 13.585938 C 175.65625 12.875 175.285156 12.523438 174.230469 12.523438 C 173.742188 12.535156 173.261719 12.613281 172.800781 12.75 C 171.949219 12.996094 171.429688 12.601562 171.429688 12.046875 C 171.421875 11.667969 171.691406 11.328125 172.085938 11.21875 C 172.789062 10.984375 173.53125 10.871094 174.277344 10.878906 C 176.378906 10.878906 177.570312 11.71875 177.570312 13.636719 Z M 175.65625 16.441406 L 175.65625 15.214844 C 175.175781 15.074219 174.671875 15 174.164062 15 C 173.355469 15 172.871094 15.363281 172.871094 15.878906 C 172.871094 16.394531 173.394531 16.792969 174.207031 16.792969 C 174.71875 16.8125 175.222656 16.6875 175.65625 16.441406 Z M 175.65625 16.441406 "/>
<path style=" stroke:none;fill-rule:nonzero;fill:rgb(7.45098%,26.27451%,45.882353%);fill-opacity:1;" d="M 181.621094 9.429688 L 181.621094 17.367188 C 181.628906 17.613281 181.527344 17.851562 181.339844 18.03125 C 181.152344 18.207031 180.890625 18.304688 180.621094 18.304688 C 180.066406 18.292969 179.621094 17.875 179.621094 17.367188 L 179.621094 9.429688 C 179.613281 9.183594 179.710938 8.941406 179.902344 8.761719 C 180.089844 8.582031 180.347656 8.480469 180.621094 8.476562 C 181.1875 8.488281 181.632812 8.914062 181.621094 9.429688 Z M 181.621094 9.429688 "/>
<path style=" stroke:none;fill-rule:nonzero;fill:rgb(7.45098%,26.27451%,45.882353%);fill-opacity:1;" d="M 54.351562 31.957031 C 52.539062 32.0625 50.960938 30.839844 50.777344 29.191406 C 50.734375 28.539062 50.734375 27.886719 50.777344 27.234375 C 51.050781 25.628906 52.566406 24.441406 54.351562 24.441406 C 56.132812 24.441406 57.648438 25.628906 57.921875 27.234375 C 57.972656 27.886719 57.972656 28.539062 57.921875 29.191406 C 57.753906 30.847656 56.167969 32.078125 54.351562 31.957031 Z M 55.929688 27.535156 C 55.914062 27.167969 55.742188 26.824219 55.441406 26.578125 C 55.144531 26.332031 54.75 26.207031 54.351562 26.230469 C 53.949219 26.207031 53.550781 26.332031 53.25 26.578125 C 52.949219 26.824219 52.769531 27.167969 52.75 27.535156 C 52.722656 27.988281 52.722656 28.445312 52.75 28.898438 C 52.769531 29.265625 52.949219 29.609375 53.25 29.855469 C 53.550781 30.101562 53.949219 30.226562 54.351562 30.203125 C 54.75 30.226562 55.144531 30.101562 55.441406 29.855469 C 55.742188 29.609375 55.914062 29.265625 55.929688 28.898438 C 55.957031 28.445312 55.957031 27.988281 55.929688 27.535156 Z M 55.929688 27.535156 "/>
<path style=" stroke:none;fill-rule:nonzero;fill:rgb(7.45098%,26.27451%,45.882353%);fill-opacity:1;" d="M 60.355469 24.46875 C 60.355469 22.824219 61.386719 21.9375 63.007812 21.9375 C 63.515625 21.941406 64.023438 22 64.515625 22.113281 C 64.972656 22.195312 65.296875 22.566406 65.285156 22.988281 C 65.289062 23.210938 65.1875 23.421875 65.011719 23.574219 C 64.832031 23.722656 64.59375 23.796875 64.351562 23.777344 C 64.019531 23.777344 63.636719 23.65625 63.199219 23.65625 C 62.765625 23.65625 62.351562 23.953125 62.351562 24.542969 L 62.351562 24.828125 L 64.078125 24.828125 C 64.5625 24.828125 64.957031 25.1875 64.957031 25.628906 C 64.957031 26.074219 64.5625 26.433594 64.078125 26.433594 L 62.351562 26.433594 L 62.351562 30.953125 C 62.367188 31.203125 62.269531 31.445312 62.082031 31.628906 C 61.894531 31.8125 61.632812 31.914062 61.355469 31.917969 C 61.082031 31.914062 60.824219 31.808594 60.636719 31.625 C 60.449219 31.445312 60.347656 31.203125 60.355469 30.953125 L 60.355469 26.433594 L 60 26.433594 C 59.515625 26.433594 59.121094 26.074219 59.121094 25.628906 C 59.121094 25.1875 59.515625 24.828125 60 24.828125 L 60.355469 24.828125 Z M 60.355469 24.46875 "/>
<path style=" stroke:none;fill-rule:nonzero;fill:rgb(7.45098%,26.27451%,45.882353%);fill-opacity:1;" d="M 72.8125 28.695312 L 72.8125 30.917969 C 72.820312 31.4375 72.367188 31.867188 71.800781 31.886719 C 71.230469 31.863281 70.78125 31.4375 70.777344 30.917969 L 70.777344 23.476562 C 70.75 23.140625 70.886719 22.808594 71.148438 22.570312 C 71.410156 22.332031 71.773438 22.210938 72.144531 22.238281 L 75.113281 22.238281 C 76.082031 22.191406 77.03125 22.515625 77.726562 23.136719 C 78.417969 23.757812 78.796875 24.613281 78.765625 25.5 C 78.765625 27.554688 77.171875 28.761719 74.980469 28.761719 Z M 74.957031 26.902344 C 76.207031 26.902344 76.742188 26.359375 76.742188 25.472656 C 76.742188 24.585938 76.144531 24.066406 75 24.066406 L 72.855469 24.066406 L 72.855469 26.921875 Z M 74.957031 26.902344 "/>
<path style=" stroke:none;fill-rule:nonzero;fill:rgb(7.45098%,26.27451%,45.882353%);fill-opacity:1;" d="M 82.328125 25.003906 C 82.875 24.640625 83.535156 24.453125 84.207031 24.46875 C 86.101562 24.46875 87.214844 25.507812 87.214844 27.449219 L 87.214844 30.953125 C 87.246094 31.296875 87.0625 31.625 86.742188 31.808594 C 86.421875 31.988281 86.015625 31.988281 85.695312 31.808594 C 85.371094 31.625 85.191406 31.296875 85.222656 30.953125 L 85.222656 27.546875 C 85.273438 27.203125 85.148438 26.855469 84.890625 26.605469 C 84.628906 26.351562 84.257812 26.21875 83.878906 26.242188 C 83.300781 26.238281 82.742188 26.445312 82.328125 26.8125 L 82.328125 30.976562 C 82.335938 31.222656 82.234375 31.460938 82.050781 31.636719 C 81.867188 31.8125 81.609375 31.914062 81.34375 31.917969 C 80.78125 31.910156 80.328125 31.492188 80.328125 30.976562 L 80.328125 23.015625 C 80.328125 22.511719 80.777344 22.101562 81.328125 22.101562 C 81.878906 22.101562 82.328125 22.511719 82.328125 23.015625 Z M 82.328125 25.003906 "/>
<path style=" stroke:none;fill-rule:nonzero;fill:rgb(7.45098%,26.27451%,45.882353%);fill-opacity:1;" d="M 90.328125 23.765625 C 89.742188 23.75 89.277344 23.308594 89.285156 22.773438 C 89.277344 22.515625 89.386719 22.265625 89.585938 22.082031 C 89.785156 21.898438 90.058594 21.796875 90.34375 21.800781 C 90.628906 21.796875 90.90625 21.894531 91.113281 22.078125 C 91.316406 22.261719 91.429688 22.511719 91.429688 22.773438 C 91.425781 23.324219 90.933594 23.769531 90.328125 23.765625 Z M 91.328125 25.453125 L 91.328125 30.976562 C 91.335938 31.222656 91.230469 31.460938 91.042969 31.640625 C 90.855469 31.816406 90.597656 31.914062 90.328125 31.917969 C 89.773438 31.902344 89.332031 31.484375 89.335938 30.976562 L 89.335938 25.433594 C 89.320312 25.1875 89.421875 24.945312 89.609375 24.769531 C 89.796875 24.589844 90.058594 24.492188 90.328125 24.496094 C 90.597656 24.496094 90.859375 24.59375 91.046875 24.773438 C 91.234375 24.949219 91.335938 25.1875 91.328125 25.433594 Z M 91.328125 25.453125 "/>
<path style=" stroke:none;fill-rule:nonzero;fill:rgb(7.45098%,26.27451%,45.882353%);fill-opacity:1;" d="M 95.550781 23.042969 L 95.550781 30.976562 C 95.558594 31.226562 95.457031 31.464844 95.265625 31.640625 C 95.078125 31.816406 94.820312 31.917969 94.550781 31.917969 C 94 31.894531 93.570312 31.480469 93.570312 30.976562 L 93.570312 23.042969 C 93.570312 22.535156 94.019531 22.128906 94.570312 22.128906 C 95.125 22.128906 95.570312 22.535156 95.570312 23.042969 Z M 95.550781 23.042969 "/>
<path style=" stroke:none;fill-rule:nonzero;fill:rgb(7.45098%,26.27451%,45.882353%);fill-opacity:1;" d="M 103.984375 30.566406 C 104.023438 30.832031 103.882812 31.089844 103.628906 31.21875 C 102.683594 31.742188 101.589844 32.003906 100.484375 31.96875 C 98.34375 31.96875 97.335938 30.867188 97.335938 29.574219 C 97.335938 28.414062 98.214844 27.359375 100.40625 27.359375 C 100.96875 27.359375 101.523438 27.429688 102.0625 27.5625 L 102.0625 27.195312 C 102.0625 26.484375 101.691406 26.132812 100.636719 26.132812 C 100.148438 26.144531 99.667969 26.222656 99.207031 26.359375 C 98.355469 26.609375 97.835938 26.210938 97.835938 25.65625 C 97.828125 25.277344 98.097656 24.941406 98.492188 24.828125 C 99.195312 24.59375 99.9375 24.476562 100.6875 24.484375 C 102.785156 24.484375 103.980469 25.332031 103.980469 27.246094 Z M 102.0625 30.050781 L 102.0625 28.824219 C 101.582031 28.683594 101.078125 28.613281 100.570312 28.609375 C 99.765625 28.609375 99.277344 28.976562 99.277344 29.492188 C 99.277344 30.007812 99.800781 30.40625 100.613281 30.40625 C 101.125 30.421875 101.628906 30.300781 102.0625 30.050781 Z M 102.0625 30.050781 "/>
<path style=" stroke:none;fill-rule:nonzero;fill:rgb(7.45098%,26.27451%,45.882353%);fill-opacity:1;" d="M 109.070312 24.46875 C 109.675781 24.484375 110.273438 24.601562 110.828125 24.816406 L 110.828125 23.015625 C 110.824219 22.769531 110.925781 22.53125 111.113281 22.355469 C 111.300781 22.179688 111.558594 22.078125 111.828125 22.074219 C 112.105469 22.066406 112.371094 22.164062 112.566406 22.339844 C 112.761719 22.519531 112.867188 22.761719 112.855469 23.015625 L 112.855469 30.476562 C 112.894531 30.738281 112.753906 30.996094 112.5 31.128906 C 111.554688 31.679688 110.457031 31.964844 109.335938 31.957031 C 108.453125 32.015625 107.582031 31.75 106.917969 31.21875 C 106.253906 30.6875 105.855469 29.933594 105.808594 29.125 C 105.757812 28.5 105.757812 27.875 105.808594 27.246094 C 105.808594 26.476562 106.160156 25.738281 106.777344 25.210938 C 107.394531 24.683594 108.226562 24.414062 109.070312 24.46875 Z M 109.378906 30.214844 C 109.890625 30.199219 110.382812 30.050781 110.808594 29.792969 L 110.808594 26.582031 C 110.328125 26.34375 109.789062 26.214844 109.242188 26.210938 C 108.851562 26.179688 108.464844 26.304688 108.183594 26.554688 C 107.902344 26.808594 107.753906 27.15625 107.777344 27.515625 C 107.75 27.949219 107.75 28.386719 107.777344 28.820312 C 107.746094 29.210938 107.90625 29.59375 108.214844 29.863281 C 108.527344 30.132812 108.953125 30.261719 109.378906 30.214844 Z M 109.378906 30.214844 "/>
<path style=" stroke:none;fill-rule:nonzero;fill:rgb(7.45098%,26.27451%,45.882353%);fill-opacity:1;" d="M 121.722656 27.925781 C 121.753906 28.179688 121.652344 28.433594 121.453125 28.613281 C 121.25 28.792969 120.972656 28.875 120.691406 28.839844 L 116.730469 28.839844 L 116.730469 28.976562 C 116.730469 29.835938 117.441406 30.28125 118.441406 30.28125 C 118.992188 30.269531 119.53125 30.171875 120.042969 29.988281 C 120.320312 29.855469 120.648438 29.863281 120.917969 30.011719 C 121.183594 30.15625 121.347656 30.421875 121.351562 30.703125 C 121.359375 31.027344 121.160156 31.324219 120.84375 31.46875 C 120.078125 31.808594 119.234375 31.96875 118.386719 31.945312 C 117.492188 31.996094 116.613281 31.71875 115.945312 31.179688 C 115.273438 30.636719 114.867188 29.875 114.8125 29.0625 C 114.777344 28.492188 114.777344 27.925781 114.8125 27.359375 C 114.859375 26.546875 115.253906 25.785156 115.914062 25.242188 C 116.574219 24.695312 117.445312 24.414062 118.335938 24.457031 C 119.261719 24.410156 120.164062 24.730469 120.816406 25.335938 C 121.46875 25.9375 121.804688 26.769531 121.742188 27.613281 Z M 119.636719 27.601562 C 119.742188 27.601562 119.800781 27.546875 119.800781 27.4375 C 119.847656 27.0625 119.710938 26.6875 119.421875 26.417969 C 119.132812 26.148438 118.726562 26.011719 118.3125 26.046875 C 117.863281 26.019531 117.421875 26.175781 117.113281 26.476562 C 116.808594 26.777344 116.664062 27.191406 116.730469 27.601562 Z M 119.636719 27.601562 "/>
<path style=" stroke:none;fill-rule:nonzero;fill:rgb(7.45098%,26.27451%,45.882353%);fill-opacity:1;" d="M 125.515625 23.042969 L 125.515625 30.976562 C 125.523438 31.226562 125.421875 31.464844 125.230469 31.640625 C 125.042969 31.816406 124.785156 31.917969 124.515625 31.917969 C 123.957031 31.902344 123.515625 31.488281 123.515625 30.976562 L 123.515625 23.042969 C 123.503906 22.792969 123.605469 22.550781 123.792969 22.371094 C 123.980469 22.191406 124.242188 22.089844 124.515625 22.089844 C 125.078125 22.101562 125.527344 22.527344 125.515625 23.042969 Z M 125.515625 23.042969 "/>
<path style=" stroke:none;fill-rule:nonzero;fill:rgb(7.45098%,26.27451%,45.882353%);fill-opacity:1;" d="M 131.320312 31.957031 C 130.734375 31.960938 130.152344 31.847656 129.621094 31.617188 L 129.621094 33.644531 C 129.652344 33.988281 129.46875 34.320312 129.148438 34.5 C 128.828125 34.679688 128.421875 34.679688 128.101562 34.5 C 127.78125 34.320312 127.597656 33.988281 127.628906 33.644531 L 127.628906 25.820312 C 127.609375 25.632812 127.707031 25.457031 127.878906 25.355469 C 128.847656 24.773438 129.984375 24.464844 131.144531 24.46875 C 132.023438 24.410156 132.890625 24.679688 133.550781 25.210938 C 134.210938 25.742188 134.605469 26.496094 134.648438 27.300781 C 134.691406 27.921875 134.691406 28.542969 134.648438 29.164062 C 134.644531 29.949219 134.28125 30.691406 133.648438 31.21875 C 133.019531 31.75 132.175781 32.015625 131.320312 31.957031 Z M 131.101562 26.230469 C 130.578125 26.246094 130.066406 26.386719 129.621094 26.636719 L 129.621094 29.851562 C 130.082031 30.085938 130.601562 30.210938 131.128906 30.214844 C 131.527344 30.257812 131.929688 30.136719 132.222656 29.886719 C 132.515625 29.632812 132.671875 29.277344 132.648438 28.910156 C 132.679688 28.476562 132.679688 28.039062 132.648438 27.605469 C 132.675781 27.226562 132.515625 26.859375 132.21875 26.59375 C 131.921875 26.332031 131.511719 26.199219 131.101562 26.230469 Z M 131.101562 26.230469 "/>
<path style=" stroke:none;fill-rule:nonzero;fill:rgb(7.45098%,26.27451%,45.882353%);fill-opacity:1;" d="M 138.570312 25.003906 C 139.117188 24.640625 139.777344 24.453125 140.449219 24.46875 C 142.335938 24.46875 143.457031 25.507812 143.457031 27.449219 L 143.457031 30.953125 C 143.457031 31.457031 143.007812 31.863281 142.457031 31.863281 C 141.90625 31.863281 141.457031 31.457031 141.457031 30.953125 L 141.457031 27.546875 C 141.507812 27.203125 141.386719 26.859375 141.128906 26.605469 C 140.867188 26.355469 140.5 26.222656 140.121094 26.242188 C 139.542969 26.238281 138.984375 26.441406 138.570312 26.8125 L 138.570312 30.976562 C 138.578125 31.222656 138.480469 31.460938 138.292969 31.636719 C 138.109375 31.8125 137.851562 31.914062 137.585938 31.917969 C 137.023438 31.910156 136.570312 31.492188 136.570312 30.976562 L 136.570312 23.015625 C 136.570312 22.511719 137.019531 22.101562 137.570312 22.101562 C 138.125 22.101562 138.570312 22.511719 138.570312 23.015625 Z M 138.570312 25.003906 "/>
<path style=" stroke:none;fill-rule:nonzero;fill:rgb(7.45098%,26.27451%,45.882353%);fill-opacity:1;" d="M 146.570312 23.765625 C 145.980469 23.757812 145.507812 23.3125 145.515625 22.773438 C 145.507812 22.515625 145.613281 22.265625 145.816406 22.082031 C 146.015625 21.898438 146.289062 21.796875 146.570312 21.800781 C 146.855469 21.800781 147.125 21.902344 147.324219 22.085938 C 147.523438 22.269531 147.632812 22.515625 147.628906 22.773438 C 147.628906 23.3125 147.160156 23.75 146.570312 23.765625 Z M 147.570312 25.433594 L 147.570312 30.976562 C 147.578125 31.222656 147.472656 31.460938 147.285156 31.640625 C 147.097656 31.816406 146.839844 31.914062 146.570312 31.917969 C 146.015625 31.902344 145.570312 31.488281 145.570312 30.976562 L 145.570312 25.433594 C 145.558594 25.1875 145.660156 24.945312 145.847656 24.769531 C 146.039062 24.589844 146.300781 24.492188 146.570312 24.496094 C 146.839844 24.496094 147.097656 24.597656 147.285156 24.773438 C 147.472656 24.949219 147.578125 25.1875 147.570312 25.433594 Z M 147.570312 25.433594 "/>
<path style=" stroke:none;fill-rule:nonzero;fill:rgb(7.45098%,26.27451%,45.882353%);fill-opacity:1;" d="M 156.070312 30.566406 C 156.109375 30.832031 155.964844 31.089844 155.707031 31.21875 C 154.761719 31.742188 153.667969 32.003906 152.5625 31.96875 C 150.421875 31.96875 149.421875 30.867188 149.421875 29.574219 C 149.421875 28.414062 150.300781 27.359375 152.492188 27.359375 C 153.050781 27.359375 153.605469 27.425781 154.144531 27.5625 L 154.144531 27.195312 C 154.144531 26.484375 153.769531 26.132812 152.714844 26.132812 C 152.230469 26.144531 151.746094 26.222656 151.285156 26.359375 C 150.4375 26.609375 149.914062 26.210938 149.914062 25.65625 C 149.90625 25.277344 150.175781 24.941406 150.570312 24.828125 C 151.269531 24.59375 152.011719 24.476562 152.757812 24.484375 C 154.898438 24.484375 156.058594 25.332031 156.058594 27.246094 Z M 154.144531 30.050781 L 154.144531 28.824219 C 153.664062 28.683594 153.160156 28.609375 152.65625 28.609375 C 151.851562 28.609375 151.355469 28.976562 151.355469 29.492188 C 151.355469 30.007812 151.878906 30.40625 152.699219 30.40625 C 153.207031 30.421875 153.710938 30.300781 154.144531 30.050781 Z M 154.144531 30.050781 "/>
</g>
</svg>
