<svg id="Layer_1" data-name="Layer 1" xmlns="http://www.w3.org/2000/svg" width="245"
     height="50" viewBox="25 120 245 50">
    <defs>
        <style>.cls-1{fill:#231f20;}.cls-2{fill:#99773d;}</style>
    </defs>
    <path class="cls-1"
          d="M158.79,164.19c-2.52,0-4.44-1.58-4.44-4.08a4.21,4.21,0,0,1,4.32-4.22,4.91,4.91,0,0,1,1.44.24,4.84,4.84,0,0,0,1.22.21h.15l.12,1.87-.52.15a2.17,2.17,0,0,0-2.17-1.78c-1.39,0-2.83,1-2.83,3.29,0,1.73,1,3.61,2.78,3.61a2.08,2.08,0,0,0,2.24-1.76l.5.15-.28,1.85-.49.17a5.36,5.36,0,0,1-2,.29Z"/>
    <path class="cls-1"
          d="M136.23,160.45h-1.82c.14-.44.71-2.17.92-2.8l.9,2.8m2.71,2.66c-.11-.27-.22-.59-.33-.9l-.08-.23v0c0-.05-.16-.45-2-5.68l-.1-.28c0-.09-.09-.08-.16-.07h-.18l-.27,0h-.62l0,.07c-.07.26-.23.69-.37,1.07l-.06.17-.14.39-1.79,5.14a.93.93,0,0,1-.88.66h-.16V164H132c.35,0,.71,0,1.05,0s.81,0,1.18,0h.28v-.52h-.22c-.22,0-.74,0-.74-.31a1.71,1.71,0,0,1,.12-.49l.12-.36s.26-.87.34-1.09h2.39l.42,1.23a4.68,4.68,0,0,1,.22.77c0,.23-.42.25-.54.25h-.23V164h.28c.46,0,.94,0,1.44,0s.92,0,1.37,0h.27v-.53h-.16a.63.63,0,0,1-.66-.39"/>
    <path class="cls-1"
          d="M181.08,156.06H181l-.68,0-.77,0c-.24,0-.52,0-.79,0h-.1v.53H179c.32,0,.85.12.85.95,0,0,0,3.17,0,4L175,156.06l0,0h0l-.5,0h-1.1l-.62,0h-.09v.49h.23a.85.85,0,0,1,.59.25,1,1,0,0,1,.27.69l0,4.71c0,.85-.14,1.34-.85,1.34h-.25v.5h.1l.73,0h0l.73,0,.72,0h0l.7,0h.1v-.53h-.29c-.72,0-.92-.27-.92-1.21,0,0,0-3.47,0-4.35l5.62,6.26h.57v-.11a7.09,7.09,0,0,1-.07-1.12l0-5.09c0-1.32.5-1.32.85-1.32h.26V156h-.09Z"/>
    <path class="cls-1"
          d="M113.76,160.22a3.43,3.43,0,0,1-.7,2.18,2.63,2.63,0,0,1-2.09.93c-.76,0-1.06-.08-1.06-.79v-5.78H110a5.65,5.65,0,0,1,.58,0,3.27,3.27,0,0,1,2.25.67,3.6,3.6,0,0,1,.94,2.84m.54-3.1h0A4.92,4.92,0,0,0,111,156l-.68,0h0c-.33,0-.69,0-1.08,0s-.83,0-1.2,0h-.68v.53h.25c.47,0,.74.08.74.54V163c0,.51-.31.55-.68.55h-.26V164h.1l.51,0h.13c.33,0,.74,0,1.15,0,.92,0,1.79,0,2,.05a4,4,0,0,0,3-1.08,4.06,4.06,0,0,0,1.27-2.95,3.73,3.73,0,0,0-1.22-2.88"/>
    <path class="cls-1"
          d="M198.89,162.09c-.16.61-.34.9-.63,1a3.28,3.28,0,0,1-1.37.15h0c-.78,0-1.27,0-1.27-.64V160.2h1.29c.67,0,.73.28.8,1v.11l.5-.11v-.08c0-.45,0-.81,0-1.2s0-.76,0-1.18v-.11l-.48,0v.08c-.06.59-.25.76-.84.76h-1.27v-2.67h1.47c1.11,0,1.19.36,1.24,1.07l0,.11.49-.13v-.08a14.5,14.5,0,0,1,0-1.47V156h-.09l-1.29,0h-.1l-1.48,0-1.6,0-1.18,0H193v.53h.26c.46,0,.73.08.73.54V163c0,.48-.24.57-.66.57h-.25v.5h.09l1.14,0,1.76,0,1.71,0h.1l1.14,0h.08V164l.09-.62a11,11,0,0,1,.2-1.12l0-.09-.5-.12Z"/>
    <path class="cls-1"
          d="M104.58,162.09c-.15.61-.33.9-.62,1a3.34,3.34,0,0,1-1.38.15h0c-.79,0-1.27,0-1.27-.64V160.2h1.28c.68,0,.73.28.8,1v.11l.5-.11v-.08c0-.45,0-.81,0-1.2s0-.76,0-1.18v-.11l-.47,0v.08c-.07.59-.26.76-.84.76h-1.27v-2.67h1.46c1.12,0,1.2.36,1.25,1.07V158l.49-.13v-.08a14.45,14.45,0,0,1,0-1.47l0-.25h-.1l-1.29,0H103l-1.48,0-1.6,0-1.18,0h-.09v.53h.25c.46,0,.73.08.73.54V163c0,.48-.24.57-.66.57h-.25v.5h.1l1.14,0,1.75,0,1.72,0h.1l1.13,0h.08V164l.1-.62a10.91,10.91,0,0,1,.19-1.12l0-.09-.5-.12Z"/>
    <path class="cls-1"
          d="M170,162.09c-.16.61-.34.9-.63,1a3.28,3.28,0,0,1-1.37.15h0c-.79,0-1.26,0-1.26-.64V160.2H168c.68,0,.73.28.8,1v.11l.5-.11v-.08c0-.45,0-.81,0-1.2s0-.76,0-1.18v-.11l-.47,0v.08c-.06.59-.25.76-.84.76h-1.26v-2.67h1.45c1.11,0,1.2.36,1.25,1.07l0,.11.49-.13v-.08a14.5,14.5,0,0,1,0-1.47V156h-.1l-1.29,0h-.1l-1.47,0-1.6,0-1.19,0h-.09v.53h.25c.46,0,.73.08.73.54V163c0,.48-.24.57-.65.57h-.25v.5h.09l1.14,0,1.76,0,1.71,0h.1l1.13,0h.08l0-.08.09-.62a8.77,8.77,0,0,1,.2-1.12v-.09l-.49-.12Z"/>
    <path class="cls-1"
          d="M120.91,156l-.64,0H120l-.84,0-.85,0h-.06l-.74,0h-.1v.53h.25c.47,0,.74.09.74.54V163c0,.45-.27.54-.74.54h-.25V164h.1l.73,0,.91,0,.89,0h0l.83,0H121v-.53h-.25c-.46,0-.73-.09-.73-.54V157.1c0-.45.27-.54.73-.54H121V156h-.09Z"/>
    <path class="cls-1"
          d="M146.94,162a1.69,1.69,0,0,1-.3.67,1.41,1.41,0,0,1-1,.53,6.54,6.54,0,0,1-1.33,0c-.4,0-.58-.21-.58-.53v-5.67c0-.5.25-.5.67-.5h.37V156h-.09l-.82,0h0l-.85,0c-.3,0-.59,0-.88,0l-.89,0h-.09v.53h.25c.47,0,.74.09.74.54v5.75c0,.6-.35.65-.74.65h-.25V164h.09l1.44,0h0l1.47,0,1.41,0h0l1.37,0h.08V164c.09-.42.17-.81.24-1.21l.14-.76H147Z"/>
    <path class="cls-1"
          d="M206.17,158.2a1.82,1.82,0,0,1-.43,1.32,1.59,1.59,0,0,1-1.18.39l-.47,0v-3.15h0a2.93,2.93,0,0,1,.49,0,1.41,1.41,0,0,1,1.54,1.5m2.15,4.68-1.44-1.95a2.29,2.29,0,0,0-.62-.63,2.47,2.47,0,0,0,1.59-2.17,1.82,1.82,0,0,0-.85-1.68,3.62,3.62,0,0,0-1.9-.42l-.67,0h-.23q-.42,0-.9,0c-.38,0-.76,0-1.13,0h-.11l-.49,0h-.1v.53h.3c.38,0,.69.05.69.75V163c0,.49-.49.53-.64.53h-.3v.5h.09l.81,0c.24,0,.5,0,.77,0l.95,0h0l.94,0h.1v-.53h-.3c-.51,0-.82,0-.82-.79v-2.14h.5a.46.46,0,0,1,.4.21c.26.41.89,1.36,1.85,2.62a1.56,1.56,0,0,0,1.43.61h1.27v-.5h-.09a1.11,1.11,0,0,1-1.13-.63"/>
    <path class="cls-1"
          d="M190.92,156l-.25,0h-5.9l-.59,0h-.06l-.42,0v.1a5.44,5.44,0,0,1,0,.67v.19l-.11.82v.08H184l0-.07c.17-.82.19-.92,1-.93h1.5v5.83c0,.81-.25.84-.83.84h-.31V164h.09l.76,0,1.13,0,1,0h0l.77,0h.1v-.53H189c-.48,0-.83-.06-.83-.86v-5.81h1.55c.7,0,.73.62.75.95v.12l.51-.13v-.07l0-.89c0-.3,0-.57,0-.71V156Z"/>
    <path class="cls-1"
          d="M90.44,164.2l-2.9-6.3c-.12,1.65-.23,4.22-.23,4.62s.18,1,1.12,1h.17V164h-.89l-.7,0-1.65,0v-.53h.17c.78,0,.92-.27,1-.89l.31-4.19c0-.61.06-.57.06-.72,0-.56-.15-1.18-1.07-1.18h-.17V156h.88l.71,0,.51,0h.61L91.08,162,93.8,156h.11l1.12,0,1.29,0h.18v.48h-.17c-.71,0-1,.5-1,1.36l.1,4.38c0,.84,0,1.24.9,1.24h.17V164l-1.71,0-2.09,0v-.53h.17c.85,0,1-.26,1-.88s0-1.39-.08-2.42c0-.6,0-1.59,0-2.29L91,164.2Z"/>
    <path class="cls-1"
          d="M127.35,164.19c-2.51,0-4.43-1.58-4.43-4.08a4.2,4.2,0,0,1,4.32-4.22,5,5,0,0,1,1.44.24,4.75,4.75,0,0,0,1.21.21H130l.13,1.87-.53.15a2.15,2.15,0,0,0-2.16-1.78c-1.39,0-2.84,1-2.84,3.29,0,1.73,1,3.61,2.79,3.61a2.08,2.08,0,0,0,2.24-1.76l.5.15-.28,1.85-.5.17a5.3,5.3,0,0,1-2,.29Z"/>
    <path class="cls-1"
          d="M172.27,135.11c0,2-.76,2.94-2.42,2.94s-2.48-.77-2.48-2.66c0-1.18,0-2.38,0-3.54l0-2.44h-1.08l0,2.45c0,1.16,0,2.37,0,3.56,0,2.46,1.06,3.56,3.45,3.56s3.54-1.22,3.57-3.95l.06-5.62h-1.05Z"/>
    <path class="cls-1"
          d="M185.2,132.2c0,1.24,0,2.53,0,3.8h0c0,.42,0,.84,0,1.25-.25-.44-.54-.87-.87-1.37l-4.48-6.61-.08,0-1,.3-.08,9.23h1v-.11c0-.05.05-4.38.05-6.53,0-.41,0-.8,0-1.2.28.47.58.93.87,1.37l4.47,6.61,1.1-.32.08-9.24h-1Z"/>
    <polygon class="cls-1" points="191.82 129.41 191.74 138.83 192.82 138.83 192.9 129.41 192.79 129.41 191.82 129.41"/>
    <path class="cls-1"
          d="M204.78,129.35l-2.92,7.31c-.11.28-.2.53-.28.78-.09-.29-.17-.54-.25-.76l-2.84-7.43-1.08.34,3.61,9.24h1l3.8-9.24-1-.34Z"/>
    <path class="cls-1"
          d="M210.29,129.41l-.08,9.42h5.13v-1h-4c0-.21,0-3.2,0-3.4h4v-1h-4c0-.21,0-2.94,0-3.14h4v-1h-5.06Z"/>
    <path class="cls-1"
          d="M234.46,130.19a3.88,3.88,0,0,1,2,.49l.09,0,.52-.85-.11-.06a5.13,5.13,0,0,0-2.54-.56,2.55,2.55,0,0,0-2.77,2.45c0,1.63,1.23,2.21,2.31,2.72s1.86.88,1.86,2A1.63,1.63,0,0,1,234,138a4.28,4.28,0,0,1-2.08-.53l-.09-.06-.53.86.09.06a5.42,5.42,0,0,0,2.57.62c1.85,0,3-1,3-2.64s-1.29-2.3-2.43-2.84c-.94-.45-1.76-.84-1.76-1.73A1.57,1.57,0,0,1,234.46,130.19Z"/>
    <polygon class="cls-1" points="242.38 129.41 242.3 138.83 243.38 138.83 243.47 129.41 243.35 129.41 242.38 129.41"/>
    <path class="cls-1" d="M248.42,129.41v1h2.89c0,.22-.06,8.44-.06,8.44h1.08s.06-8.22.06-8.44h2.9v-1h-6.87Z"/>
    <path class="cls-1"
          d="M265.34,129.25,263,132.52c-.2.27-.52.74-.68,1-.13-.2-.36-.58-.57-.89l-2.32-3.39-.09,0-.86.45,3.28,4.81c0,.07,0,4.31,0,4.31h1.08s0-4.34,0-4.41l3.41-4.71Z"/>
    <path class="cls-1"
          d="M224.79,134.9h0a1.68,1.68,0,0,0-.51-.49,2.85,2.85,0,0,0,2.33-2.62c0-1.62-1.07-2.48-3.11-2.48-.65,0-1.31,0-1.95.06l-.62,0v.11l-.08,9.32h1.08s0-4,0-4.2h.58a1.29,1.29,0,0,1,1,.43l2.77,3.84.06.08,1-.46-.09-.11S224.89,135,224.79,134.9Zm.7-3a1.93,1.93,0,0,1-2.09,1.84H222c0-.21,0-3.28,0-3.48.51,0,1,0,1.51,0C224.83,130.21,225.49,130.78,225.49,131.89Zm-3,2.74h0Z"/>
    <path class="cls-1"
          d="M38.26,129.43l-.47,0H37.6l-.6,0-.8,0h0l-.7,0h-.11v.62h.34c.61,0,.73.12.73.32a1.82,1.82,0,0,1-.16.7l-2.08,5.27L32,130.69a1.42,1.42,0,0,1-.12-.38c0-.1.16-.26.58-.26h.42v-.62h-.12l-.58,0h-.33l-1,0-1,0c-.32,0-.68,0-1,0h-.11v.62h.24a.88.88,0,0,1,1,.68l3.43,8.35H34l0-.06c.09-.22.53-1.26,1.36-3.31.69-1.66,2.11-5.12,2.18-5.25.19-.38.39-.41.6-.41h.25v-.62h-.11Z"/>
    <path class="cls-1"
          d="M46.86,137.8c-.13-.32-.26-.7-.39-1.08l-.09-.26v0S46.2,136,44,129.76l-.12-.32c0-.1-.11-.1-.19-.09h-.22l-.31,0h0a4.2,4.2,0,0,1-.62,0h-.09l0,.09c-.08.31-.27.81-.43,1.26l-.07.19-.17.48-2.12,6.07a1.08,1.08,0,0,1-1,.78h-.19v.63h.29c.41,0,.83,0,1.25,0s.95,0,1.38,0h.33v-.61h-.26c-.26,0-.88,0-.88-.37a2.24,2.24,0,0,1,.15-.58l.14-.42.39-1.29H44l.49,1.45a4.34,4.34,0,0,1,.26.92c0,.26-.49.29-.64.29h-.26v.6h.32c.56,0,1.12,0,1.71,0s1.09,0,1.61,0h.33v-.63h-.2A.73.73,0,0,1,46.86,137.8Zm-3.2-3.15H41.5l1.09-3.31C42.66,131.59,43.59,134.43,43.66,134.65Z"/>
    <path class="cls-1"
          d="M59.3,129.46h-.11l-.79,0-.92,0c-.28,0-.61,0-.93,0h-.11v.62h.4c.37,0,1,.15,1,1.13,0,0,0,3.73,0,4.72-.92-1.05-5.66-6.38-5.71-6.44l0,0h-.05l-.59,0h-1.3l-.73,0h-.11V130l.28,0a1,1,0,0,1,.69.29,1.18,1.18,0,0,1,.32.82l0,5.56c0,1-.17,1.59-1,1.59h-.3v.59h.12l.86,0h0l.87,0,.85,0h0l.84,0H53v-.62h-.34c-.85,0-1.09-.33-1.09-1.43,0,0,0-4.11,0-5.15l6.64,7.4h.67V139a8.43,8.43,0,0,1-.08-1.32l0-6c0-1.57.58-1.57,1-1.57h.31v-.6H60Z"/>
    <path class="cls-1"
          d="M70.64,130.71h0a5.81,5.81,0,0,0-3.92-1.28l-.8,0h-.06c-.39,0-.81,0-1.27,0s-1,0-1.42,0h-.8v.62h.29c.55,0,.87.1.87.64v6.93c0,.6-.36.65-.8.65h-.3v.6h.11l.61,0h.15c.39,0,.87,0,1.36,0,1.08,0,2.11,0,2.4,0a4.69,4.69,0,0,0,3.52-1.28,4.8,4.8,0,0,0,1.5-3.47A4.44,4.44,0,0,0,70.64,130.71ZM70,134.38a4,4,0,0,1-.83,2.58,3.08,3.08,0,0,1-2.46,1.09c-.9,0-1.27-.09-1.27-.93v-6.83h.11a5.06,5.06,0,0,1,.68-.05,3.88,3.88,0,0,1,2.66.79A4.29,4.29,0,0,1,70,134.38Z"/>
    <path class="cls-1"
          d="M81.32,136.59c-.19.71-.39,1.06-.74,1.24A4.06,4.06,0,0,1,79,138h0c-.93,0-1.5,0-1.5-.75v-2.89h1.51c.8,0,.87.33,1,1.13v.13l.59-.13v-.1c0-.52,0-.95,0-1.42s0-.89,0-1.39v-.12h-.56v.1c-.08.7-.3.9-1,.9h-1.5v-3.16h1.72c1.32,0,1.41.43,1.48,1.27v.13l.59-.15v-.1a14.5,14.5,0,0,1,0-1.74v-.29h-.11l-1.52,0H79.5l-1.75,0c-.62,0-1.35,0-1.89,0l-1.4,0h-.11v.62h.3c.55,0,.86.1.86.64v6.93c0,.56-.28.67-.77.67h-.3v.59h.11l1.35,0c.65,0,1.41,0,2.08,0s1.38,0,2,0h.12l1.34,0h.1v-.1l.11-.72a12.16,12.16,0,0,1,.23-1.32l0-.12-.58-.14Z"/>
    <path class="cls-1"
          d="M101.21,133.71a2.19,2.19,0,0,0,1.83-2.09,1.88,1.88,0,0,0-.72-1.56,3.85,3.85,0,0,0-2.41-.63l-.94,0H98.9l-1.1,0-1.09,0h-.06l-.91,0h-.11v.62h.29c.55,0,.87.1.87.64v6.93c0,.53-.32.64-.87.64h-.29v.62h.11l.88,0h.08c.43,0,.93,0,1.38,0s.87,0,1.27,0l1,0a3.53,3.53,0,0,0,2.27-.8,2.51,2.51,0,0,0,1-1.93,2.25,2.25,0,0,0-.68-1.64A3.2,3.2,0,0,0,101.21,133.71Zm-2-.27H98.7V130.2h.68c.82,0,1.66.2,1.66,1.67C101,132.93,100.46,133.44,99.25,133.44Zm2.37,2.76a1.81,1.81,0,0,1-1.84,1.9c-.94,0-1.08-.14-1.08-1V134.2h.74a2.43,2.43,0,0,1,1.57.48A1.85,1.85,0,0,1,101.62,136.2Z"/>
    <path class="cls-1"
          d="M110.4,129.43l-.76,0h-.3l-1,0-1,0h-.07l-.88,0h-.11v.62h.3c.55,0,.86.1.86.64v6.93c0,.53-.31.64-.86.64h-.3v.62h.11l.87,0c.33,0,.72,0,1.08,0l1,0h0l1,0h.11v-.62h-.3c-.54,0-.86-.11-.86-.64v-6.93c0-.54.32-.64.86-.64h.3v-.62h-.11Z"/>
    <path class="cls-1"
          d="M120.49,136.54a2.25,2.25,0,0,1-.36.79A1.7,1.7,0,0,1,119,138a8.1,8.1,0,0,1-1.56,0c-.49-.06-.69-.25-.69-.63v-6.7c0-.6.29-.6.78-.6H118v-.62h-.12l-1,0h0l-1,0-1,0c-.32,0-.69,0-1.05,0h-.12v.62h.3c.56,0,.88.1.88.64v6.79c0,.72-.41.78-.88.78h-.3v.62h.12l1.7,0h0l1.74,0,1.66,0h0l1.62,0h.09l0-.09c.1-.5.19-.95.28-1.44l.17-.89h-.61Z"/>
    <path class="cls-1"
          d="M92.49,137.53l-1.7-2.31a2.66,2.66,0,0,0-.74-.74,3,3,0,0,0,1.88-2.57,2.14,2.14,0,0,0-1-2,4.29,4.29,0,0,0-2.25-.5l-.79,0h-.27l-1.07,0c-.45,0-.9,0-1.33,0h-.83v.62h.35c.45,0,.82.07.82.89v6.72c0,.57-.58.62-.76.62h-.35v.59h.11l1,0,.91,0,1.13,0h0l1.11,0h.11v-.62h-.35c-.6,0-1,0-1-.95v-2.52h.6a.56.56,0,0,1,.47.26c.31.48,1,1.6,2.18,3.08a1.84,1.84,0,0,0,1.7.73h1.5v-.59h-.1A1.33,1.33,0,0,1,92.49,137.53ZM89.94,132a2.11,2.11,0,0,1-.51,1.56A1.86,1.86,0,0,1,88,134l-.56,0v-3.72h.07a3.65,3.65,0,0,1,.57,0A1.67,1.67,0,0,1,89.94,132Z"/>
    <path class="cls-1"
          d="M130.27,129.39l-.29,0h-7c-.32,0-.51,0-.71,0h-.06l-.5-.05v.12a4.63,4.63,0,0,1,0,.8v.22l-.12,1,0,.1h.62l0-.08c.2-1,.22-1.1,1.13-1.11h1.78v6.89c0,1-.3,1-1,1h-.36v.62h.11l.89,0c.42,0,.91,0,1.34,0s.82,0,1.22,0h0l.92,0h.11v-.62H128c-.58,0-1-.07-1-1v-6.87h1.84c.82,0,.86.73.88,1.12v.14l.6-.15v-.08l0-1.06c0-.35,0-.67.06-.82v-.14h-.13Z"/>
    <path class="cls-2"
          d="M149.71,123.49v1.36h.53c.54,0,1.29,0,1.59.29.57.62-.18,1.18-.87,2.11-1.09,1.45-.42,2.4.3,1.89A19.43,19.43,0,0,1,153,128c.91-.44,1.5.72.55,2-.38.51-1.1,1.17-1.57,1.85-.57.83-.3,1.95.8,1.12,1.28-1,1.73.53.38,1.92s-2,2.29-1.62,3.44c.13.42.29.89.43,1.29a.16.16,0,0,0,0,.07l0,.06a.21.21,0,0,0-.11,0h-.78c0-.11-.45-1.21-.88-2.39-.14-.35-.31-.6-1.16-.85l-.42-.13a.33.33,0,0,0-.32.05l-.55.41c-.51.37-.76.49-1,.43s-.25-.17-.25-.39v-.06a5.6,5.6,0,0,0,.57-1.27,5.37,5.37,0,0,0,.22-1.37l0-.05a.36.36,0,0,1,.43-.19c.21.08.36.31.58.9,0,.11.14.39.23.62a.33.33,0,0,0,.27.25h0l.72.22a.12.12,0,0,1,.07,0l0,0a.3.3,0,0,1,0-.07l-.56-1.52a3.23,3.23,0,0,0-1.26-1.82c-.65-.46-1.65-.82-2.21-1.15-1.72-1-1.43-2.39-.45-2.34a8.45,8.45,0,0,1,1.83.56c1.06.39,1.09-.91-.27-1.91-1.74-1.27-2.07-1.93-1.66-2.45.21-.28.81-.28,1.4-.27H147c0-.34,0-1,0-1.37H135.55v1.37c.28,0,.51,0,.84,0,1,.08,1.68.55,2.45,2.5.66,1.76,6.15,15.67,6.72,17.15h5.56c.48-1.23,5.85-15,6.72-17.21.77-2,1.61-2.35,2.53-2.42.22,0,.49,0,.72,0v-1.39Zm-4.1,12.88c-.72-.26-1-.49-1.09-1.24,0-.19,0-.45,0-.45a3.78,3.78,0,0,1,.27-.37c.48-.58.84-.62,1.59-.43l.65.14a5.13,5.13,0,0,1-.21,1.34,5.2,5.2,0,0,1-.56,1.25Z"/>
</svg>